<?xml version="1.0" encoding="utf-8"?>
<!-- Generator: Adobe Illustrator 16.0.0, SVG Export Plug-In . SVG Version: 6.00 Build 0)  -->
<!DOCTYPE svg PUBLIC "-//W3C//DTD SVG 1.1//EN" "http://www.w3.org/Graphics/SVG/1.1/DTD/svg11.dtd">
<svg version="1.1" id="Layer_1" xmlns="http://www.w3.org/2000/svg" xmlns:xlink="http://www.w3.org/1999/xlink" x="0px" y="0px"
	 width="524.378px" height="72.087px" viewBox="0 0 524.378 72.087" enable-background="new 0 0 524.378 72.087"
	 xml:space="preserve">
<g>
	<g>
		<path fill="#333333" d="M493.514,65.087H53.666c-6.76,0-13.339-2.231-18.696-6.314c-5.94,4.038-13.666,4.921-19.284,4.921
			c-4.737,0-8.185-0.612-8.33-0.639L0,61.728l7.036-2.523c11.665-4.184,15.52-11.772,16.668-17.562
			c-0.598-2.423-0.901-4.916-0.901-7.419v-3.359C22.802,13.845,36.648,0,53.666,0h439.848c17.019,0,30.864,13.845,30.864,30.864
			v3.359C524.378,51.241,510.532,65.087,493.514,65.087z M35.059,53.659l1.257,1.064c4.842,4.104,11.004,6.363,17.35,6.363h439.848
			c14.813,0,26.864-12.051,26.864-26.864v-3.359C520.378,16.051,508.327,4,493.514,4H53.666C38.854,4,26.802,16.051,26.802,30.864
			v3.359c0,2.313,0.297,4.617,0.883,6.846l0.112,0.427l-0.078,0.435c-0.995,5.553-4.025,12.642-12.396,17.762
			c5.45,0.052,13.165-0.774,18.449-5.004L35.059,53.659z"/>
	</g>
</g>
<g>
	<g>
		<path fill="#7D7494" d="M493.514,72.087H53.666c-6.761,0-13.339-2.231-18.695-6.313c-10.631,7.235-26.9,4.411-27.615,4.282
			l-7.351-1.326c0,0,7.385-2.652,7.569-2.701l1.312,0.213c3.451,0.469,16.945,1.805,24.887-4.553l1.286-1.029l1.257,1.065
			c4.842,4.103,11.004,6.362,17.35,6.362h439.848c9.822,0,13.822-1.375,26.086-10.361C513.211,67.295,504.147,72.087,493.514,72.087
			z"/>
	</g>
</g>
</svg>
