<svg width="700" height="365" viewBox="0 0 700 365" version="1.1" xmlns="http://www.w3.org/2000/svg" xmlns:xlink="http://www.w3.org/1999/xlink">
<title>javascript2017</title>
<desc>Created using Figma</desc>
<g id="Canvas" transform="matrix(0.5 0 0 0.5 596.5 998.5)">
<g id="javascript2017">
<g id="js no shadow">
<g id="Group">
<g id="Vector">
<use xlink:href="#path0_stroke" transform="translate(-394 -1687)" fill="#4500EE"/>
</g>
<g id="Vector">
<use xlink:href="#path1_stroke" transform="translate(-394 -1687)" fill="#FFFFFF"/>
</g>
</g>
<g id="Group">
<g id="Group">
<g id="Vector">
<use xlink:href="#path2_stroke" transform="translate(-104 -1687)" fill="#4500EE"/>
</g>
<g id="Vector">
<use xlink:href="#path3_stroke" transform="translate(-104 -1687)" fill="#4500EE"/>
</g>
</g>
<g id="Group">
<g id="Vector">
<use xlink:href="#path4_stroke" transform="translate(-104 -1687)" fill="#FFFFFF"/>
</g>
<g id="Vector">
<use xlink:href="#path5_stroke" transform="translate(-104 -1687)" fill="#FFFFFF"/>
</g>
</g>
</g>
<g id="Group">
<g id="Group">
<g id="Vector">
<use xlink:href="#path6_stroke" transform="translate(7 -1737)" fill="#4500EE"/>
</g>
<g id="Vector">
<use xlink:href="#path7_stroke" transform="translate(7 -1687)" fill="#4500EE"/>
</g>
</g>
<g id="Group">
<g id="Vector">
<use xlink:href="#path8_stroke" transform="translate(7 -1737)" fill="#FFFFFF"/>
</g>
<g id="Vector">
<use xlink:href="#path9_stroke" transform="translate(7 -1687)" fill="#FFFFFF"/>
</g>
</g>
</g>
<g id="Group">
<g id="Group">
<g id="Vector">
<use xlink:href="#path10_stroke" transform="translate(-1073 -1747)" fill="#4500EE"/>
</g>
<g id="Vector">
<use xlink:href="#path11_stroke" transform="translate(-1093 -1747)" fill="#4500EE"/>
</g>
</g>
<g id="Group">
<g id="Vector">
<use xlink:href="#path12_stroke" transform="translate(-1073 -1747)" fill="#FFFFFF"/>
</g>
<g id="Vector">
<use xlink:href="#path13_stroke" transform="translate(-1093 -1747)" fill="#FFFFFF"/>
</g>
</g>
</g>
<g id="Group">
<g id="Group">
<g id="Vector">
<use xlink:href="#path14_stroke" transform="translate(-940 -1687)" fill="#4500EE"/>
</g>
<g id="Vector">
<use xlink:href="#path15_stroke" transform="translate(-860 -1687)" fill="#4500EE"/>
</g>
</g>
<g id="Group">
<g id="Vector">
<use xlink:href="#path16_stroke" transform="translate(-940 -1687)" fill="#FFFFFF"/>
</g>
<g id="Vector">
<use xlink:href="#path17_stroke" transform="translate(-860 -1687)" fill="#FFFFFF"/>
</g>
</g>
</g>
<g id="Group">
<g id="Group">
<g id="Vector">
<use xlink:href="#path14_stroke" transform="translate(-677 -1687)" fill="#4500EE"/>
</g>
<g id="Vector">
<use xlink:href="#path15_stroke" transform="translate(-597 -1687)" fill="#4500EE"/>
</g>
</g>
<g id="Group">
<g id="Vector">
<use xlink:href="#path16_stroke" transform="translate(-677 -1687)" fill="#FFFFFF"/>
</g>
<g id="Vector">
<use xlink:href="#path17_stroke" transform="translate(-597 -1687)" fill="#FFFFFF"/>
</g>
</g>
</g>
<g id="Group">
<g id="Vector">
<use xlink:href="#path18_stroke" transform="translate(-808 -1687)" fill="#4500EE"/>
</g>
<g id="Vector">
<use xlink:href="#path19_stroke" transform="translate(-808 -1687)" fill="#FFFFFF"/>
</g>
</g>
<g id="Group">
<g id="Group">
<g id="Vector">
<use xlink:href="#path20_stroke" transform="translate(-183 -1687)" fill="#4500EE"/>
</g>
<g id="Vector">
<use xlink:href="#path21_stroke" transform="translate(-163 -1717)" fill="#4500EE"/>
</g>
<g id="Vector">
<use xlink:href="#path7_stroke" transform="translate(-183 -1587)" fill="#4500EE"/>
</g>
</g>
<g id="Group">
<g id="Vector">
<use xlink:href="#path22_stroke" transform="translate(-183 -1687)" fill="#FFFFFF"/>
</g>
<g id="Vector">
<use xlink:href="#path23_stroke" transform="translate(-163 -1717)" fill="#FFFFFF"/>
</g>
<g id="Vector">
<use xlink:href="#path9_stroke" transform="translate(-183 -1587)" fill="#FFFFFF"/>
</g>
</g>
</g>
<g id="Group">
<g id="Vector">
<use xlink:href="#path24_stroke" transform="translate(-543 -1747)" fill="#4500EE"/>
</g>
<g id="Vector">
<use xlink:href="#path25_stroke" transform="translate(-543 -1747)" fill="#FFFFFF"/>
</g>
</g>
<g id="Vector">
<use xlink:href="#path26_fill" transform="translate(-164.919 -1718.42)" fill="#FFFFFF"/>
</g>
</g>
<g id="r2">
<g id="Group">
<g id="Group">
<g id="Vector">
<use xlink:href="#path27_fill" transform="translate(-296.5 -1699.5)" fill="#4500EE"/>
</g>
</g>
<g id="Group">
<g id="Vector">
<use xlink:href="#path28_fill" transform="translate(-269.964 -1699.5)" fill="#4500EE"/>
</g>
</g>
<g id="Group">
<g id="Vector">
<use xlink:href="#path29_fill" transform="translate(-296.5 -1599.5)" fill="#4500EE"/>
</g>
</g>
</g>
</g>
<g id="r1">
<g id="Group">
<g id="Vector">
<use xlink:href="#path22_stroke" transform="translate(-284 -1687)" fill="#FFFFFF"/>
</g>
</g>
<g id="Group">
<g id="Vector">
<use xlink:href="#path30_stroke" transform="translate(-264 -1687)" fill="#FFFFFF"/>
</g>
</g>
<g id="Group">
<g id="Vector">
<use xlink:href="#path9_stroke" transform="translate(-284 -1587)" fill="#FFFFFF"/>
</g>
</g>
</g>
<g id="state">
<g id="Group">
<g id="Group">
<g id="Vector">
<use xlink:href="#path31_stroke" transform="translate(-553 -1907)" fill="#333333"/>
</g>
<g id="Vector">
<use xlink:href="#path32_stroke" transform="translate(-529 -1837)" fill="#333333"/>
</g>
<g id="Vector">
<use xlink:href="#path33_stroke" transform="translate(-823 -1867)" fill="#333333"/>
</g>
<g id="Vector">
<use xlink:href="#path34_stroke" transform="translate(-683 -1887)" fill="#333333"/>
</g>
<g id="Vector">
<use xlink:href="#path35_stroke" transform="translate(-633 -1887)" fill="#333333"/>
</g>
<g id="Vector">
<use xlink:href="#path34_stroke" transform="translate(-403 -1887)" fill="#333333"/>
</g>
<g id="Vector">
<use xlink:href="#path36_stroke" transform="translate(-253 -1867)" fill="#333333"/>
</g>
<g id="Vector">
<use xlink:href="#path37_stroke" transform="translate(-253 -1807)" fill="#333333"/>
</g>
<g id="Vector">
<use xlink:href="#path36_stroke" transform="translate(-253 -1747)" fill="#333333"/>
</g>
<g id="Vector">
<use xlink:href="#path35_stroke" transform="translate(-353 -1887)" fill="#333333"/>
</g>
<g id="Vector">
<use xlink:href="#path38_stroke" transform="translate(-253 -1867)" fill="#333333"/>
</g>
</g>
</g>
</g>
<g id="flags">
<g id="Group">
<g id="Group">
<g id="Vector">
<use xlink:href="#path39_stroke" transform="matrix(0.7071 -0.7071 0.7071 0.7071 -219.193 -1465.05)" fill="#333333"/>
</g>
<g id="Vector">
<use xlink:href="#path40_stroke" transform="matrix(0.7071 -0.7071 0.7071 0.7071 -182.902 -1483.17)" fill="#333333"/>
</g>
<g id="Vector">
<use xlink:href="#path41_stroke" transform="translate(-228.246 -1474.1)" fill="#333333"/>
</g>
</g>
<g id="Group">
<g id="Vector">
<use xlink:href="#path39_stroke" transform="matrix(0.7071 -0.7071 0.7071 0.7071 -219.193 -1465.05)" fill="#333333"/>
</g>
<g id="Vector">
<use xlink:href="#path40_stroke" transform="matrix(0.7071 -0.7071 0.7071 0.7071 -182.902 -1483.17)" fill="#333333"/>
</g>
<g id="Vector">
<use xlink:href="#path41_stroke" transform="translate(-228.246 -1474.1)" fill="#333333"/>
</g>
</g>
</g>
<g id="Group">
<g id="Group">
<g id="Vector">
<use xlink:href="#path42_stroke" transform="matrix(-0.7071 -0.7071 0.7071 -0.7071 -798.56 -1433.28)" fill="#333333"/>
</g>
<g id="Vector">
<use xlink:href="#path43_stroke" transform="matrix(-0.7071 -0.7071 0.7071 -0.7071 -834.859 -1451.42)" fill="#333333"/>
</g>
<g id="Vector">
<use xlink:href="#path44_stroke" transform="translate(-834.858 -1474.1)" fill="#333333"/>
</g>
</g>
<g id="Group">
<g id="Vector">
<use xlink:href="#path42_stroke" transform="matrix(-0.7071 -0.7071 0.7071 -0.7071 -798.56 -1433.28)" fill="#333333"/>
</g>
<g id="Vector">
<use xlink:href="#path43_stroke" transform="matrix(-0.7071 -0.7071 0.7071 -0.7071 -834.859 -1451.42)" fill="#333333"/>
</g>
<g id="Vector">
<use xlink:href="#path44_stroke" transform="translate(-834.858 -1474.1)" fill="#333333"/>
</g>
</g>
</g>
</g>
<g id="lines">
<g id="Group">
<g id="Vector">
<use xlink:href="#path45_stroke" transform="translate(-93 -1477)" fill="#333333"/>
</g>
<g id="Vector">
<use xlink:href="#path45_stroke" transform="translate(-93 -1462)" fill="#7D7494"/>
</g>
</g>
<g id="Group">
<g id="Vector">
<use xlink:href="#path46_stroke" transform="translate(-1093 -1477)" fill="#333333"/>
</g>
<g id="Vector">
<use xlink:href="#path46_stroke" transform="translate(-1093 -1462)" fill="#7D7494"/>
</g>
</g>
</g>
<g id="the_of_copy">
<g id="of">
<use xlink:href="#path47_fill" transform="translate(-138.687 -1855.3)" fill="#333333"/>
<use xlink:href="#path48_fill" transform="translate(-138.687 -1855.3)" fill="#333333"/>
</g>
<g id="the">
<use xlink:href="#path49_fill" transform="translate(-993.11 -1854.37)" fill="#333333"/>
<use xlink:href="#path50_fill" transform="translate(-993.11 -1854.37)" fill="#333333"/>
<use xlink:href="#path51_fill" transform="translate(-993.11 -1854.37)" fill="#333333"/>
</g>
</g>
<g id="_x32_016">
<g id="Group">
<g id="Group">
<g id="Vector">
<use xlink:href="#path52_stroke" transform="translate(-563 -1477)" fill="#333333"/>
</g>
<g id="Vector">
<use xlink:href="#path53_stroke" transform="translate(-423 -1477)" fill="#333333"/>
</g>
<g id="Vector">
<use xlink:href="#path54_stroke" transform="translate(-703 -1527)" fill="#333333"/>
</g>
</g>
<g id="Group">
<g id="Vector">
<use xlink:href="#path55_stroke" transform="translate(-563 -1477)" fill="#333333"/>
</g>
<g id="Vector">
<use xlink:href="#path56_stroke" transform="translate(-423 -1477)" fill="#333333"/>
</g>
<g id="Vector">
<use xlink:href="#path57_stroke" transform="translate(-703 -1527)" fill="#333333"/>
</g>
</g>
</g>
</g>
<g id="Layer_24">
<g id="Vector">
<use xlink:href="#path58_stroke" transform="translate(-353 -1527)" fill="#333333"/>
</g>
</g>
<g id="frame">
<g id="Group">
<g id="Vector">
<use xlink:href="#path59_stroke" transform="translate(-1142.96 -1964.99)" fill="#7D7494"/>
</g>
<g id="Vector">
<use xlink:href="#path60_stroke" transform="translate(-1161.34 -1977)" fill="#333333"/>
</g>
</g>
</g>
</g>
</g>
<defs>
<path id="path0_stroke" d="M 60 112.5L 72.5 112.5L 72.5 87.5L 60 87.5L 60 112.5ZM 20 100L 11.1612 108.839C 13.5054 111.183 16.6848 112.5 20 112.5L 20 100ZM 0 80L -12.5 80C -12.5 83.3152 -11.183 86.4946 -8.83883 88.8388L 0 80ZM 0 20L -8.83883 11.1612C -11.183 13.5054 -12.5 16.6848 -12.5 20L 0 20ZM 20 0L 20 -12.5C 16.6848 -12.5 13.5054 -11.183 11.1612 -8.83883L 20 0ZM 60 12.5L 72.5 12.5L 72.5 -12.5L 60 -12.5L 60 12.5ZM 60 87.5L 20 87.5L 20 112.5L 60 112.5L 60 87.5ZM 28.8388 91.1612L 8.83883 71.1612L -8.83883 88.8388L 11.1612 108.839L 28.8388 91.1612ZM 12.5 80L 12.5 20L -12.5 20L -12.5 80L 12.5 80ZM 8.83883 28.8388L 28.8388 8.83883L 11.1612 -8.83883L -8.83883 11.1612L 8.83883 28.8388ZM 20 12.5L 60 12.5L 60 -12.5L 20 -12.5L 20 12.5Z"/>
<path id="path1_stroke" d="M 60 101C 60.5523 101 61 100.552 61 100C 61 99.4477 60.5523 99 60 99L 60 101ZM 20 100L 19.2929 100.707C 19.4804 100.895 19.7348 101 20 101L 20 100ZM 0 80L -1 80C -1 80.2652 -0.894643 80.5196 -0.707107 80.7071L 0 80ZM 0 20L -0.707107 19.2929C -0.894643 19.4804 -1 19.7348 -1 20L 0 20ZM 20 0L 20 -1C 19.7348 -1 19.4804 -0.894643 19.2929 -0.707107L 20 0ZM 60 1C 60.5523 1 61 0.552285 61 0C 61 -0.552285 60.5523 -1 60 -1L 60 1ZM 60 99L 20 99L 20 101L 60 101L 60 99ZM 20.7071 99.2929L 0.707107 79.2929L -0.707107 80.7071L 19.2929 100.707L 20.7071 99.2929ZM 1 80L 1 20L -1 20L -1 80L 1 80ZM 0.707107 20.7071L 20.7071 0.707107L 19.2929 -0.707107L -0.707107 19.2929L 0.707107 20.7071ZM 20 1L 60 1L 60 -1L 20 -1L 20 1Z"/>
<path id="path2_stroke" d="M 12.5 0L 12.5 -12.5L -12.5 -12.5L -12.5 0L 12.5 0ZM -12.5 170L -12.5 182.5L 12.5 182.5L 12.5 170L -12.5 170ZM -12.5 0L -12.5 170L 12.5 170L 12.5 0L -12.5 0Z"/>
<path id="path3_stroke" d="M 20 0L 20 -12.5C 16.6848 -12.5 13.5054 -11.183 11.1612 -8.83883L 20 0ZM 50 0L 58.8388 -8.83883C 56.4946 -11.183 53.3152 -12.5 50 -12.5L 50 0ZM 70 20L 82.5 20C 82.5 16.6848 81.183 13.5054 78.8388 11.1612L 70 20ZM 70 80L 78.8388 88.8388C 81.183 86.4946 82.5 83.3152 82.5 80L 70 80ZM 50 100L 50 112.5C 53.3152 112.5 56.4946 111.183 58.8388 108.839L 50 100ZM 20 100L 11.1612 108.839C 13.5054 111.183 16.6848 112.5 20 112.5L 20 100ZM 8.83883 28.8388L 28.8388 8.83883L 11.1612 -8.83883L -8.83883 11.1612L 8.83883 28.8388ZM 20 12.5L 50 12.5L 50 -12.5L 20 -12.5L 20 12.5ZM 41.1612 8.83883L 61.1612 28.8388L 78.8388 11.1612L 58.8388 -8.83883L 41.1612 8.83883ZM 57.5 20L 57.5 80L 82.5 80L 82.5 20L 57.5 20ZM 61.1612 71.1612L 41.1612 91.1612L 58.8388 108.839L 78.8388 88.8388L 61.1612 71.1612ZM 50 87.5L 20 87.5L 20 112.5L 50 112.5L 50 87.5ZM 28.8388 91.1612L 8.83883 71.1612L -8.83883 88.8388L 11.1612 108.839L 28.8388 91.1612Z"/>
<path id="path4_stroke" d="M 1 0C 1 -0.552285 0.552285 -1 0 -1C -0.552285 -1 -1 -0.552285 -1 0L 1 0ZM -1 170C -1 170.552 -0.552285 171 0 171C 0.552285 171 1 170.552 1 170L -1 170ZM -1 0L -1 170L 1 170L 1 0L -1 0Z"/>
<path id="path5_stroke" d="M -0.707107 19.2929C -1.09763 19.6834 -1.09763 20.3166 -0.707107 20.7071C -0.316583 21.0976 0.316583 21.0976 0.707107 20.7071L -0.707107 19.2929ZM 20 0L 20 -1C 19.7348 -1 19.4804 -0.894643 19.2929 -0.707107L 20 0ZM 50 0L 50.7071 -0.707107C 50.5196 -0.894643 50.2652 -1 50 -1L 50 0ZM 70 20L 71 20C 71 19.7348 70.8946 19.4804 70.7071 19.2929L 70 20ZM 70 80L 70.7071 80.7071C 70.8946 80.5196 71 80.2652 71 80L 70 80ZM 50 100L 50 101C 50.2652 101 50.5196 100.895 50.7071 100.707L 50 100ZM 20 100L 19.2929 100.707C 19.4804 100.895 19.7348 101 20 101L 20 100ZM 0.707107 79.2929C 0.316583 78.9024 -0.316583 78.9024 -0.707107 79.2929C -1.09763 79.6834 -1.09763 80.3166 -0.707107 80.7071L 0.707107 79.2929ZM 0.707107 20.7071L 20.7071 0.707107L 19.2929 -0.707107L -0.707107 19.2929L 0.707107 20.7071ZM 20 1L 50 1L 50 -1L 20 -1L 20 1ZM 49.2929 0.707107L 69.2929 20.7071L 70.7071 19.2929L 50.7071 -0.707107L 49.2929 0.707107ZM 69 20L 69 80L 71 80L 71 20L 69 20ZM 69.2929 79.2929L 49.2929 99.2929L 50.7071 100.707L 70.7071 80.7071L 69.2929 79.2929ZM 50 99L 20 99L 20 101L 50 101L 50 99ZM 20.7071 99.2929L 0.707107 79.2929L -0.707107 80.7071L 19.2929 100.707L 20.7071 99.2929Z"/>
<path id="path6_stroke" d="M 12.5 0L 12.5 -12.5L -12.5 -12.5L -12.5 0L 12.5 0ZM 0 130L -12.5 130C -12.5 133.315 -11.183 136.495 -8.83883 138.839L 0 130ZM 20 150L 11.1612 158.839C 13.5054 161.183 16.6848 162.5 20 162.5L 20 150ZM 40 162.5L 52.5 162.5L 52.5 137.5L 40 137.5L 40 162.5ZM -12.5 0L -12.5 130L 12.5 130L 12.5 0L -12.5 0ZM -8.83883 138.839L 11.1612 158.839L 28.8388 141.161L 8.83883 121.161L -8.83883 138.839ZM 20 162.5L 40 162.5L 40 137.5L 20 137.5L 20 162.5Z"/>
<path id="path7_stroke" d="M 0 -12.5L -12.5 -12.5L -12.5 12.5L 0 12.5L 0 -12.5ZM 40 12.5L 52.5 12.5L 52.5 -12.5L 40 -12.5L 40 12.5ZM 0 12.5L 40 12.5L 40 -12.5L 0 -12.5L 0 12.5Z"/>
<path id="path8_stroke" d="M 1 0C 1 -0.552285 0.552285 -1 0 -1C -0.552285 -1 -1 -0.552285 -1 0L 1 0ZM 0 130L -1 130C -1 130.265 -0.894643 130.52 -0.707107 130.707L 0 130ZM 20 150L 19.2929 150.707C 19.4804 150.895 19.7348 151 20 151L 20 150ZM 40 151C 40.5523 151 41 150.552 41 150C 41 149.448 40.5523 149 40 149L 40 151ZM -1 0L -1 130L 1 130L 1 0L -1 0ZM -0.707107 130.707L 19.2929 150.707L 20.7071 149.293L 0.707107 129.293L -0.707107 130.707ZM 20 151L 40 151L 40 149L 20 149L 20 151Z"/>
<path id="path9_stroke" d="M 0 -1C -0.552285 -1 -1 -0.552285 -1 0C -1 0.552285 -0.552285 1 0 1L 0 -1ZM 40 1C 40.5523 1 41 0.552285 41 0C 41 -0.552285 40.5523 -1 40 -1L 40 1ZM 0 1L 40 1L 40 -1L 0 -1L 0 1Z"/>
<path id="path10_stroke" d="M 0 -12.5L -12.5 -12.5L -12.5 12.5L 0 12.5L 0 -12.5ZM 160 12.5L 172.5 12.5L 172.5 -12.5L 160 -12.5L 160 12.5ZM 0 12.5L 160 12.5L 160 -12.5L 0 -12.5L 0 12.5Z"/>
<path id="path11_stroke" d="M 112.5 0L 112.5 -12.5L 87.5 -12.5L 87.5 0L 112.5 0ZM 100 200.114L 108.749 209.041C 111.148 206.69 112.5 203.473 112.5 200.114L 100 200.114ZM 80 219.715L 80.0594 232.215C 83.3104 232.199 86.4275 230.918 88.7493 228.642L 80 219.715ZM 20 220L 11.1865 228.864C 13.5432 231.207 16.736 232.516 20.0594 232.5L 20 220ZM 8.81353 191.25L -0.0505312 182.436L -17.6776 200.165L -8.81353 208.978L 8.81353 191.25ZM 87.5 0L 87.5 200.114L 112.5 200.114L 112.5 0L 87.5 0ZM 91.2507 191.187L 71.2507 210.788L 88.7493 228.642L 108.749 209.041L 91.2507 191.187ZM 79.9406 207.215L 19.9406 207.5L 20.0594 232.5L 80.0594 232.215L 79.9406 207.215ZM 28.8135 211.136L 8.81353 191.25L -8.81353 208.978L 11.1865 228.864L 28.8135 211.136Z"/>
<path id="path12_stroke" d="M 0 -1C -0.552285 -1 -1 -0.552285 -1 0C -1 0.552285 -0.552285 1 0 1L 0 -1ZM 160 1C 160.552 1 161 0.552285 161 0C 161 -0.552285 160.552 -1 160 -1L 160 1ZM 0 1L 160 1L 160 -1L 0 -1L 0 1Z"/>
<path id="path13_stroke" d="M 101 0C 101 -0.552285 100.552 -1 100 -1C 99.4477 -1 99 -0.552285 99 0L 101 0ZM 100 200.114L 100.7 200.828C 100.892 200.64 101 200.383 101 200.114L 100 200.114ZM 80 219.715L 80.0048 220.715C 80.2648 220.714 80.5142 220.611 80.6999 220.429L 80 219.715ZM 20 220L 19.2949 220.709C 19.4835 220.897 19.7389 221.001 20.0047 221L 20 220ZM 0.705083 199.405C 0.313444 199.015 -0.319719 199.017 -0.709125 199.409C -1.09853 199.801 -1.09672 200.434 -0.705083 200.823L 0.705083 199.405ZM 99 0L 99 200.114L 101 200.114L 101 0L 99 0ZM 99.3001 199.4L 79.3001 219.001L 80.6999 220.429L 100.7 200.828L 99.3001 199.4ZM 79.9952 218.715L 19.9953 219L 20.0047 221L 80.0048 220.715L 79.9952 218.715ZM 20.7051 219.291L 0.705083 199.405L -0.705083 200.823L 19.2949 220.709L 20.7051 219.291Z"/>
<path id="path14_stroke" d="M 0 20L -8.83883 11.1612C -11.183 13.5054 -12.5 16.6848 -12.5 20L 0 20ZM 20 0L 20 -12.5C 16.6848 -12.5 13.5054 -11.183 11.1612 -8.83883L 20 0ZM 60 0L 68.8388 -8.83883C 66.4946 -11.183 63.3152 -12.5 60 -12.5L 60 0ZM 80 20L 92.5 20C 92.5 16.6848 91.183 13.5054 88.8388 11.1612L 80 20ZM 80 80L 88.8388 88.8388C 91.183 86.4946 92.5 83.3152 92.5 80L 80 80ZM 60 100L 60 112.5C 63.3152 112.5 66.4946 111.183 68.8388 108.839L 60 100ZM 20 100L 11.1612 108.839C 13.5054 111.183 16.6848 112.5 20 112.5L 20 100ZM 0 80L -12.5 80C -12.5 83.3152 -11.183 86.4946 -8.83883 88.8388L 0 80ZM 8.83883 28.8388L 28.8388 8.83883L 11.1612 -8.83883L -8.83883 11.1612L 8.83883 28.8388ZM 20 12.5L 60 12.5L 60 -12.5L 20 -12.5L 20 12.5ZM 51.1612 8.83883L 71.1612 28.8388L 88.8388 11.1612L 68.8388 -8.83883L 51.1612 8.83883ZM 67.5 20L 67.5 80L 92.5 80L 92.5 20L 67.5 20ZM 71.1612 71.1612L 51.1612 91.1612L 68.8388 108.839L 88.8388 88.8388L 71.1612 71.1612ZM 60 87.5L 20 87.5L 20 112.5L 60 112.5L 60 87.5ZM 28.8388 91.1612L 8.83883 71.1612L -8.83883 88.8388L 11.1612 108.839L 28.8388 91.1612ZM 12.5 80L 12.5 20L -12.5 20L -12.5 80L 12.5 80Z"/>
<path id="path15_stroke" d="M 12.5 0L 12.5 -12.5L -12.5 -12.5L -12.5 0L 12.5 0ZM -12.5 100L -12.5 112.5L 12.5 112.5L 12.5 100L -12.5 100ZM -12.5 0L -12.5 100L 12.5 100L 12.5 0L -12.5 0Z"/>
<path id="path16_stroke" d="M 0 20L -0.707107 19.2929C -0.894643 19.4804 -1 19.7348 -1 20L 0 20ZM 20 0L 20 -1C 19.7348 -1 19.4804 -0.894643 19.2929 -0.707107L 20 0ZM 60 0L 60.7071 -0.707107C 60.5196 -0.894643 60.2652 -1 60 -1L 60 0ZM 80 20L 81 20C 81 19.7348 80.8946 19.4804 80.7071 19.2929L 80 20ZM 80 80L 80.7071 80.7071C 80.8946 80.5196 81 80.2652 81 80L 80 80ZM 60 100L 60 101C 60.2652 101 60.5196 100.895 60.7071 100.707L 60 100ZM 20 100L 19.2929 100.707C 19.4804 100.895 19.7348 101 20 101L 20 100ZM 0 80L -1 80C -1 80.2652 -0.894643 80.5196 -0.707107 80.7071L 0 80ZM 0.707107 20.7071L 20.7071 0.707107L 19.2929 -0.707107L -0.707107 19.2929L 0.707107 20.7071ZM 20 1L 60 1L 60 -1L 20 -1L 20 1ZM 59.2929 0.707107L 79.2929 20.7071L 80.7071 19.2929L 60.7071 -0.707107L 59.2929 0.707107ZM 79 20L 79 80L 81 80L 81 20L 79 20ZM 79.2929 79.2929L 59.2929 99.2929L 60.7071 100.707L 80.7071 80.7071L 79.2929 79.2929ZM 60 99L 20 99L 20 101L 60 101L 60 99ZM 20.7071 99.2929L 0.707107 79.2929L -0.707107 80.7071L 19.2929 100.707L 20.7071 99.2929ZM 1 80L 1 20L -1 20L -1 80L 1 80Z"/>
<path id="path17_stroke" d="M 1 0C 1 -0.552285 0.552285 -1 0 -1C -0.552285 -1 -1 -0.552285 -1 0L 1 0ZM -1 100C -1 100.552 -0.552285 101 0 101C 0.552285 101 1 100.552 1 100L -1 100ZM -1 0L -1 100L 1 100L 1 0L -1 0Z"/>
<path id="path18_stroke" d="M 11.606 -4.64238L 6.96358 -16.2483L -16.2483 -6.96358L -11.606 4.64238L 11.606 -4.64238ZM 40 100L 28.394 104.642C 30.2923 109.388 34.8887 112.5 40 112.5C 45.1113 112.5 49.7077 109.388 51.606 104.642L 40 100ZM 91.606 4.64238L 96.2483 -6.96358L 73.0364 -16.2483L 68.394 -4.64238L 91.606 4.64238ZM -11.606 4.64238L 28.394 104.642L 51.606 95.3576L 11.606 -4.64238L -11.606 4.64238ZM 51.606 104.642L 91.606 4.64238L 68.394 -4.64238L 28.394 95.3576L 51.606 104.642Z"/>
<path id="path19_stroke" d="M 0.928477 -0.371391C 0.723363 -0.884174 0.141393 -1.13359 -0.371391 -0.928477C -0.884174 -0.723363 -1.13359 -0.141393 -0.928477 0.371391L 0.928477 -0.371391ZM 40 100L 39.0715 100.371C 39.2234 100.751 39.5911 101 40 101C 40.4089 101 40.7766 100.751 40.9285 100.371L 40 100ZM 80.9285 0.371391C 81.1336 -0.141393 80.8842 -0.723363 80.3714 -0.928477C 79.8586 -1.13359 79.2766 -0.884174 79.0715 -0.371391L 80.9285 0.371391ZM -0.928477 0.371391L 39.0715 100.371L 40.9285 99.6286L 0.928477 -0.371391L -0.928477 0.371391ZM 40.9285 100.371L 80.9285 0.371391L 79.0715 -0.371391L 39.0715 99.6286L 40.9285 100.371Z"/>
<path id="path20_stroke" d="M 7.5 100L 7.5 112.5L 32.5 112.5L 32.5 100L 7.5 100ZM 20 0L 32.5 0C 32.5 -6.90356 26.9036 -12.5 20 -12.5L 20 0ZM 0 -12.5L -12.5 -12.5L -12.5 12.5L 0 12.5L 0 -12.5ZM 32.5 100L 32.5 0L 7.5 0L 7.5 100L 32.5 100ZM 20 -12.5L 0 -12.5L 0 12.5L 20 12.5L 20 -12.5Z"/>
<path id="path21_stroke" d="M -12.5 1L -12.5 13.5L 12.5 13.5L 12.5 1L -12.5 1ZM 12.5 0L 12.5 -12.5L -12.5 -12.5L -12.5 0L 12.5 0ZM 12.5 1L 12.5 0L -12.5 0L -12.5 1L 12.5 1Z"/>
<path id="path22_stroke" d="M 19 100C 19 100.552 19.4477 101 20 101C 20.5523 101 21 100.552 21 100L 19 100ZM 20 0L 21 0C 21 -0.552285 20.5523 -1 20 -1L 20 0ZM 0 -1C -0.552285 -1 -1 -0.552285 -1 0C -1 0.552285 -0.552285 1 0 1L 0 -1ZM 21 100L 21 0L 19 0L 19 100L 21 100ZM 20 -1L 0 -1L 0 1L 20 1L 20 -1Z"/>
<path id="path23_stroke" d="M -1 1C -1 1.55228 -0.552285 2 0 2C 0.552285 2 1 1.55228 1 1L -1 1ZM 1 0C 1 -0.552285 0.552285 -1 0 -1C -0.552285 -1 -1 -0.552285 -1 0L 1 0ZM 1 1L 1 0L -1 0L -1 1L 1 1Z"/>
<path id="path24_stroke" d="M 91.1612 28.8388L 100 37.6777L 117.678 20L 108.839 11.1612L 91.1612 28.8388ZM 80 0L 88.8388 -8.83883C 86.4946 -11.183 83.3152 -12.5 80 -12.5L 80 0ZM 20 0L 20 -12.5C 16.6848 -12.5 13.5054 -11.183 11.1612 -8.83883L 20 0ZM 0 20L -8.83883 11.1612C -11.183 13.5054 -12.5 16.6848 -12.5 20L 0 20ZM 0 90L -12.5 90C -12.5 93.3152 -11.183 96.4946 -8.83883 98.8388L 0 90ZM 20 110L 11.1612 118.839C 13.5054 121.183 16.6848 122.5 20 122.5L 20 110ZM 80 110L 88.8388 101.161C 86.4946 98.817 83.3152 97.5 80 97.5L 80 110ZM 100 130L 112.5 130C 112.5 126.685 111.183 123.505 108.839 121.161L 100 130ZM 100 200L 108.839 208.839C 111.183 206.495 112.5 203.315 112.5 200L 100 200ZM 80 220L 80 232.5C 83.3152 232.5 86.4946 231.183 88.8388 228.839L 80 220ZM 20 220L 11.1612 228.839C 13.5054 231.183 16.6848 232.5 20 232.5L 20 220ZM 8.83883 191.161L 0 182.322L -17.6777 200L -8.83883 208.839L 8.83883 191.161ZM 108.839 11.1612L 88.8388 -8.83883L 71.1612 8.83883L 91.1612 28.8388L 108.839 11.1612ZM 80 -12.5L 20 -12.5L 20 12.5L 80 12.5L 80 -12.5ZM 11.1612 -8.83883L -8.83883 11.1612L 8.83883 28.8388L 28.8388 8.83883L 11.1612 -8.83883ZM -12.5 20L -12.5 90L 12.5 90L 12.5 20L -12.5 20ZM -8.83883 98.8388L 11.1612 118.839L 28.8388 101.161L 8.83883 81.1612L -8.83883 98.8388ZM 20 122.5L 80 122.5L 80 97.5L 20 97.5L 20 122.5ZM 71.1612 118.839L 91.1612 138.839L 108.839 121.161L 88.8388 101.161L 71.1612 118.839ZM 87.5 130L 87.5 200L 112.5 200L 112.5 130L 87.5 130ZM 91.1612 191.161L 71.1612 211.161L 88.8388 228.839L 108.839 208.839L 91.1612 191.161ZM 80 207.5L 20 207.5L 20 232.5L 80 232.5L 80 207.5ZM 28.8388 211.161L 8.83883 191.161L -8.83883 208.839L 11.1612 228.839L 28.8388 211.161Z"/>
<path id="path25_stroke" d="M 99.2929 20.7071C 99.6834 21.0976 100.317 21.0976 100.707 20.7071C 101.098 20.3166 101.098 19.6834 100.707 19.2929L 99.2929 20.7071ZM 80 0L 80.7071 -0.707107C 80.5196 -0.894643 80.2652 -1 80 -1L 80 0ZM 20 0L 20 -1C 19.7348 -1 19.4804 -0.894643 19.2929 -0.707107L 20 0ZM 0 20L -0.707107 19.2929C -0.894643 19.4804 -1 19.7348 -1 20L 0 20ZM 0 90L -1 90C -1 90.2652 -0.894643 90.5196 -0.707107 90.7071L 0 90ZM 20 110L 19.2929 110.707C 19.4804 110.895 19.7348 111 20 111L 20 110ZM 80 110L 80.7071 109.293C 80.5196 109.105 80.2652 109 80 109L 80 110ZM 100 130L 101 130C 101 129.735 100.895 129.48 100.707 129.293L 100 130ZM 100 200L 100.707 200.707C 100.895 200.52 101 200.265 101 200L 100 200ZM 80 220L 80 221C 80.2652 221 80.5196 220.895 80.7071 220.707L 80 220ZM 20 220L 19.2929 220.707C 19.4804 220.895 19.7348 221 20 221L 20 220ZM 0.707107 199.293C 0.316583 198.902 -0.316583 198.902 -0.707107 199.293C -1.09763 199.683 -1.09763 200.317 -0.707107 200.707L 0.707107 199.293ZM 100.707 19.2929L 80.7071 -0.707107L 79.2929 0.707107L 99.2929 20.7071L 100.707 19.2929ZM 80 -1L 20 -1L 20 1L 80 1L 80 -1ZM 19.2929 -0.707107L -0.707107 19.2929L 0.707107 20.7071L 20.7071 0.707107L 19.2929 -0.707107ZM -1 20L -1 90L 1 90L 1 20L -1 20ZM -0.707107 90.7071L 19.2929 110.707L 20.7071 109.293L 0.707107 89.2929L -0.707107 90.7071ZM 20 111L 80 111L 80 109L 20 109L 20 111ZM 79.2929 110.707L 99.2929 130.707L 100.707 129.293L 80.7071 109.293L 79.2929 110.707ZM 99 130L 99 200L 101 200L 101 130L 99 130ZM 99.2929 199.293L 79.2929 219.293L 80.7071 220.707L 100.707 200.707L 99.2929 199.293ZM 80 219L 20 219L 20 221L 80 221L 80 219ZM 20.7071 219.293L 0.707107 199.293L -0.707107 200.707L 19.2929 220.707L 20.7071 219.293Z"/>
<path id="path26_fill" d="M 1.919 3.83801C 2.97883 3.83801 3.83795 2.97883 3.83795 1.919C 3.83795 0.859166 2.97883 -6.34766e-06 1.919 -6.34766e-06C 0.859166 -6.34766e-06 5.46875e-05 0.859166 5.46875e-05 1.919C 5.46875e-05 2.97883 0.859166 3.83801 1.919 3.83801Z"/>
<path id="path27_fill" d="M 45 125L 20 125L 20 25L 0 25L 0 0L 32.5 0C 39.403 0 45 5.597 45 12.5L 45 125Z"/>
<path id="path28_fill" d="M 5.964 50.178L 1.07422e-05 20.786L 17.125 3.66101C 19.469 1.31701 22.648 0 25.964 0L 58.464 0L 58.464 25L 31.142 25L 5.964 50.178Z"/>
<path id="path29_fill" d="M 65 0L 0 0L 0 25L 65 25L 65 0Z"/>
<path id="path30_stroke" d="M -0.707107 19.2929C -1.09763 19.6834 -1.09763 20.3166 -0.707107 20.7071C -0.316583 21.0976 0.316583 21.0976 0.707107 20.7071L -0.707107 19.2929ZM 20 0L 20 -1C 19.7348 -1 19.4804 -0.894643 19.2929 -0.707107L 20 0ZM 40 1C 40.5523 1 41 0.552285 41 0C 41 -0.552285 40.5523 -1 40 -1L 40 1ZM 0.707107 20.7071L 20.7071 0.707107L 19.2929 -0.707107L -0.707107 19.2929L 0.707107 20.7071ZM 20 1L 40 1L 40 -1L 20 -1L 20 1Z"/>
<path id="path31_stroke" d="M -4.38948 107.606C -5.71179 110.03 -4.8185 113.067 -2.39426 114.389C 0.029981 115.712 3.06716 114.819 4.38948 112.394L -4.38948 107.606ZM 60 0L 64.3895 -2.39426C 63.5133 -4.00056 61.8297 -5 60 -5C 58.1703 -5 56.4867 -4.00056 55.6105 -2.39426L 60 0ZM 115.611 112.394C 116.933 114.819 119.97 115.712 122.394 114.389C 124.819 113.067 125.712 110.03 124.389 107.606L 115.611 112.394ZM 4.38948 112.394L 64.3895 2.39426L 55.6105 -2.39426L -4.38948 107.606L 4.38948 112.394ZM 55.6105 2.39426L 115.611 112.394L 124.389 107.606L 64.3895 -2.39426L 55.6105 2.39426Z"/>
<path id="path32_stroke" d="M 0 -5C -2.76142 -5 -5 -2.76142 -5 0C -5 2.76142 -2.76142 5 0 5L 0 -5ZM 72 5C 74.7614 5 77 2.76142 77 0C 77 -2.76142 74.7614 -5 72 -5L 72 5ZM 0 5L 72 5L 72 -5L 0 -5L 0 5Z"/>
<path id="path33_stroke" d="M 90 5C 92.7614 5 95 2.76142 95 0C 95 -2.76142 92.7614 -5 90 -5L 90 5ZM 0 115C -2.76142 115 -5 117.239 -5 120C -5 122.761 -2.76142 125 0 125L 0 115ZM 90 0C 90 -5 89.9998 -5 89.9993 -5C 89.9989 -5 89.9982 -5 89.9973 -5C 89.9954 -5 89.9927 -5 89.9891 -5C 89.9818 -5 89.9709 -5 89.9565 -5C 89.9276 -5 89.8845 -5 89.8276 -5C 89.7137 -5 89.5447 -5 89.3237 -5C 88.8818 -5 88.2324 -5 87.4023 -5C 85.7422 -5 83.3594 -5 80.4688 -5C 74.6875 -5 66.875 -5 58.75 -5C 42.5 -5 25 -5 20 -5L 20 5C 25 5 42.5 5 58.75 5C 66.875 5 74.6875 5 80.4688 5C 83.3594 5 85.7422 5 87.4023 5C 88.2324 5 88.8818 5 89.3237 5C 89.5447 5 89.7137 5 89.8276 5C 89.8845 5 89.9276 5 89.9565 5C 89.9709 5 89.9818 5 89.9891 5C 89.9927 5 89.9954 5 89.9973 5C 89.9982 5 89.9989 5 89.9993 5C 89.9998 5 90 5 90 0ZM 20 -5C 13.3738 -5 7.1662 -1.73726 2.71447 2.71447C -1.73726 7.1662 -5 13.3738 -5 20L 5 20C 5 16.6262 6.73726 12.8338 9.78553 9.78553C 12.8338 6.73726 16.6262 5 20 5L 20 -5ZM -5 20C -5 30 -5 30 -5 40L 5 40C 5 30 5 30 5 20L -5 20ZM -5 40C -5 46.6262 -1.73726 52.8338 2.71447 57.2855C 7.1662 61.7373 13.3738 65 20 65L 20 55C 16.6262 55 12.8338 53.2627 9.78553 50.2145C 6.73726 47.1662 5 43.3738 5 40L -5 40ZM 20 65C 30 65 60 65 70 65L 70 55C 60 55 30 55 20 55L 20 65ZM 70 65C 73.3738 65 77.1662 66.7373 80.2145 69.7855C 83.2627 72.8338 85 76.6262 85 80L 95 80C 95 73.3738 91.7373 67.1662 87.2855 62.7145C 82.8338 58.2627 76.6262 55 70 55L 70 65ZM 85 80C 85 90 85 90 85 100L 95 100C 95 90 95 90 95 80L 85 80ZM 85 100C 85 103.374 83.2627 107.166 80.2145 110.214C 77.1662 113.263 73.3738 115 70 115L 70 125C 76.6262 125 82.8338 121.737 87.2855 117.286C 91.7373 112.834 95 106.626 95 100L 85 100ZM 70 115C 65 115 47.5 115 31.25 115C 23.125 115 15.3125 115 9.53125 115C 6.64062 115 4.25781 115 2.59766 115C 1.76758 115 1.11816 115 0.67627 115C 0.455322 115 0.286255 115 0.172424 115C 0.115509 115 0.072403 115 0.0435257 115C 0.0290871 115 0.0182056 115 0.0109339 115C 0.00729799 115 0.00456452 115 0.00274003 115C 0.00182778 115 0.00114277 115 0.000685826 115C 0.000228882 115 0 115 0 120C 0 125 0.000228882 125 0.000685826 125C 0.00114277 125 0.00182778 125 0.00274003 125C 0.00456452 125 0.00729799 125 0.0109339 125C 0.0182056 125 0.0290871 125 0.0435257 125C 0.072403 125 0.115509 125 0.172424 125C 0.286255 125 0.455322 125 0.67627 125C 1.11816 125 1.76758 125 2.59766 125C 4.25781 125 6.64062 125 9.53125 125C 15.3125 125 23.125 125 31.25 125C 47.5 125 65 125 70 125L 70 115Z"/>
<path id="path34_stroke" d="M 0 -5C -2.76142 -5 -5 -2.76142 -5 0C -5 2.76142 -2.76142 5 0 5L 0 -5ZM 100 5C 102.761 5 105 2.76142 105 0C 105 -2.76142 102.761 -5 100 -5L 100 5ZM 0 5L 100 5L 100 -5L 0 -5L 0 5Z"/>
<path id="path35_stroke" d="M 5 0C 5 -2.76142 2.76142 -5 0 -5C -2.76142 -5 -5 -2.76142 -5 0L 5 0ZM -5 140C -5 142.761 -2.76142 145 0 145C 2.76142 145 5 142.761 5 140L -5 140ZM -5 0L -5 140L 5 140L 5 0L -5 0Z"/>
<path id="path36_stroke" d="M 0 -5C -2.76142 -5 -5 -2.76142 -5 0C -5 2.76142 -2.76142 5 0 5L 0 -5ZM 90 5C 92.7614 5 95 2.76142 95 0C 95 -2.76142 92.7614 -5 90 -5L 90 5ZM 0 5L 90 5L 90 -5L 0 -5L 0 5Z"/>
<path id="path37_stroke" d="M 0 -5C -2.76142 -5 -5 -2.76142 -5 0C -5 2.76142 -2.76142 5 0 5L 0 -5ZM 70 5C 72.7614 5 75 2.76142 75 0C 75 -2.76142 72.7614 -5 70 -5L 70 5ZM 0 5L 70 5L 70 -5L 0 -5L 0 5Z"/>
<path id="path38_stroke" d="M 5 0C 5 -2.76142 2.76142 -5 0 -5C -2.76142 -5 -5 -2.76142 -5 0L 5 0ZM -5 120C -5 122.761 -2.76142 125 0 125C 2.76142 125 5 122.761 5 120L -5 120ZM -5 0L -5 120L 5 120L 5 0L -5 0Z"/>
<path id="path39_stroke" d="M -1.17188e-05 -2.68555e-05L -1.17188e-05 -2.00003C -1.10458 -2.00003 -2.00001 -1.1046 -2.00001 -2.68555e-05L -1.17188e-05 -2.68555e-05ZM 38.486 -2.68555e-05L 40.486 -2.68555e-05C 40.486 -1.1046 39.5905 -2.00003 38.486 -2.00003L 38.486 -2.68555e-05ZM 38.486 44.899L 38.486 46.899C 39.5905 46.899 40.486 46.0036 40.486 44.899L 38.486 44.899ZM -1.17188e-05 44.899L -2.00001 44.899C -2.00001 46.0036 -1.10458 46.899 -1.17188e-05 46.899L -1.17188e-05 44.899ZM -1.17188e-05 1.99997L 38.486 1.99997L 38.486 -2.00003L -1.17188e-05 -2.00003L -1.17188e-05 1.99997ZM 36.486 -2.68555e-05L 36.486 44.899L 40.486 44.899L 40.486 -2.68555e-05L 36.486 -2.68555e-05ZM 38.486 42.899L -1.17188e-05 42.899L -1.17188e-05 46.899L 38.486 46.899L 38.486 42.899ZM 1.99999 44.899L 1.99999 -2.68555e-05L -2.00001 -2.68555e-05L -2.00001 44.899L 1.99999 44.899Z"/>
<path id="path40_stroke" d="M 5.07813e-05 -2.14844e-05L 5.07813e-05 -2.00002C -1.10452 -2.00002 -1.99995 -1.10459 -1.99995 -2.14844e-05L 5.07813e-05 -2.14844e-05ZM 25.6561 -2.14844e-05L 27.6561 -2.14844e-05C 27.6561 -1.10459 26.7606 -2.00002 25.6561 -2.00002L 25.6561 -2.14844e-05ZM 25.6561 44.899L 25.6561 46.899C 26.7606 46.899 27.6561 46.0036 27.6561 44.899L 25.6561 44.899ZM 5.07813e-05 44.899L -1.99995 44.899C -1.99995 46.0036 -1.10452 46.899 5.07813e-05 46.899L 5.07813e-05 44.899ZM 5.07813e-05 1.99998L 25.6561 1.99998L 25.6561 -2.00002L 5.07813e-05 -2.00002L 5.07813e-05 1.99998ZM 23.6561 -2.14844e-05L 23.6561 44.899L 27.6561 44.899L 27.6561 -2.14844e-05L 23.6561 -2.14844e-05ZM 25.6561 42.899L 5.07813e-05 42.899L 5.07813e-05 46.899L 25.6561 46.899L 25.6561 42.899ZM 2.00005 44.899L 2.00005 -2.14844e-05L -1.99995 -2.14844e-05L -1.99995 44.899L 2.00005 44.899Z"/>
<path id="path41_stroke" d="M 1.41424 -1.41422C 0.633193 -2.19527 -0.633137 -2.19527 -1.41419 -1.41422C -2.19523 -0.633169 -2.19523 0.633161 -1.41419 1.41421L 1.41424 -1.41422ZM 75.6898 78.5182C 76.4709 79.2993 77.7372 79.2993 78.5182 78.5182C 79.2993 77.7372 79.2993 76.4708 78.5182 75.6898L 75.6898 78.5182ZM -1.41419 1.41421L 75.6898 78.5182L 78.5182 75.6898L 1.41424 -1.41422L -1.41419 1.41421Z"/>
<path id="path42_stroke" d="M -1.12305e-05 -2.68555e-05L -1.12305e-05 -2.00003C -1.10458 -2.00003 -2.00001 -1.1046 -2.00001 -2.68555e-05L -1.12305e-05 -2.68555e-05ZM 38.486 -2.68555e-05L 40.486 -2.68555e-05C 40.486 -1.1046 39.5906 -2.00003 38.486 -2.00003L 38.486 -2.68555e-05ZM 38.486 44.899L 38.486 46.899C 39.5906 46.899 40.486 46.0036 40.486 44.899L 38.486 44.899ZM -1.12305e-05 44.899L -2.00001 44.899C -2.00001 46.0036 -1.10458 46.899 -1.12305e-05 46.899L -1.12305e-05 44.899ZM -1.12305e-05 1.99997L 38.486 1.99997L 38.486 -2.00003L -1.12305e-05 -2.00003L -1.12305e-05 1.99997ZM 36.486 -2.68555e-05L 36.486 44.899L 40.486 44.899L 40.486 -2.68555e-05L 36.486 -2.68555e-05ZM 38.486 42.899L -1.12305e-05 42.899L -1.12305e-05 46.899L 38.486 46.899L 38.486 42.899ZM 1.99999 44.899L 1.99999 -2.68555e-05L -2.00001 -2.68555e-05L -2.00001 44.899L 1.99999 44.899Z"/>
<path id="path43_stroke" d="M 4.39453e-06 -2.14844e-05L 4.39453e-06 -2.00002C -1.10457 -2.00002 -2 -1.10459 -2 -2.14844e-05L 4.39453e-06 -2.14844e-05ZM 25.656 -2.14844e-05L 27.656 -2.14844e-05C 27.656 -1.10459 26.7606 -2.00002 25.656 -2.00002L 25.656 -2.14844e-05ZM 25.656 44.899L 25.656 46.899C 26.7606 46.899 27.656 46.0036 27.656 44.899L 25.656 44.899ZM 4.39453e-06 44.899L -2 44.899C -2 46.0036 -1.10457 46.899 4.39453e-06 46.899L 4.39453e-06 44.899ZM 4.39453e-06 1.99998L 25.656 1.99998L 25.656 -2.00002L 4.39453e-06 -2.00002L 4.39453e-06 1.99998ZM 23.656 -2.14844e-05L 23.656 44.899L 27.656 44.899L 27.656 -2.14844e-05L 23.656 -2.14844e-05ZM 25.656 42.899L 4.39453e-06 42.899L 4.39453e-06 46.899L 25.656 46.899L 25.656 42.899ZM 2 44.899L 2 -2.14844e-05L -2 -2.14844e-05L -2 44.899L 2 44.899Z"/>
<path id="path44_stroke" d="M 78.5182 1.41421C 79.2992 0.633161 79.2992 -0.633169 78.5182 -1.41422C 77.7371 -2.19527 76.4708 -2.19527 75.6898 -1.41422L 78.5182 1.41421ZM -1.41422 75.6898C -2.19526 76.4708 -2.19526 77.7372 -1.41422 78.5182C -0.633166 79.2993 0.633164 79.2993 1.41421 78.5182L -1.41422 75.6898ZM 75.6898 -1.41422L -1.41422 75.6898L 1.41421 78.5182L 78.5182 1.41421L 75.6898 -1.41422Z"/>
<path id="path45_stroke" d="M -0.296681 28.0221C -1.38903 28.186 -2.14173 29.2043 -1.97787 30.2967C -1.81402 31.389 -0.795668 32.1417 0.296681 31.9779L -0.296681 28.0221ZM 200.297 1.97787C 201.389 1.81402 202.142 0.795668 201.978 -0.296681C 201.814 -1.38903 200.796 -2.14173 199.703 -1.97787L 200.297 1.97787ZM 0.296681 31.9779L 200.297 1.97787L 199.703 -1.97787L -0.296681 28.0221L 0.296681 31.9779Z"/>
<path id="path46_stroke" d="M 199.703 31.9779C 200.796 32.1417 201.814 31.389 201.978 30.2967C 202.142 29.2043 201.389 28.186 200.297 28.0221L 199.703 31.9779ZM 0.296681 -1.97787C -0.795668 -2.14173 -1.81402 -1.38903 -1.97787 -0.296681C -2.14173 0.795668 -1.38903 1.81402 -0.296681 1.97787L 0.296681 -1.97787ZM 200.297 28.0221L 0.296681 -1.97787L -0.296681 1.97787L 199.703 31.9779L 200.297 28.0221Z"/>
<path id="path47_fill" d="M 0 45.5337C 0 38.4487 1.9417 32.6384 5.82511 28.1028C 9.70852 23.5672 14.8518 21.2995 21.255 21.2995C 27.6878 21.2995 32.8459 23.5672 36.7293 28.1028C 40.6127 32.6384 42.5544 38.4487 42.5544 45.5337L 42.5544 47.0011C 42.5544 54.1157 40.6127 59.9408 36.7293 64.4764C 32.8756 68.9824 27.7471 71.2353 21.3439 71.2353C 14.8815 71.2353 9.70852 68.9824 5.82511 64.4764C 1.9417 59.9408 0 54.1157 0 47.0011L 0 45.5337ZM 5.33598 47.0011C 5.33598 52.5742 6.74409 57.258 9.5603 61.0525C 12.3765 64.847 16.3044 66.7442 21.3439 66.7442C 26.2945 66.7442 30.1779 64.847 32.9941 61.0525C 35.8104 57.258 37.2185 52.5742 37.2185 47.0011L 37.2185 45.5337C 37.2185 40.0495 35.7955 35.3953 32.9497 31.5712C 30.1335 27.7471 26.2352 25.835 21.255 25.835C 16.2747 25.835 12.3765 27.7471 9.5603 31.5712C 6.74409 35.3953 5.33598 40.0495 5.33598 45.5337L 5.33598 47.0011Z"/>
<path id="path48_fill" d="M 50.4695 26.5465L 50.4695 22.1888L 58.429 22.1888L 58.429 15.1631C 58.429 10.3311 59.6444 6.59586 62.0752 3.95752C 64.5061 1.31917 67.9004 0 72.2581 0C 73.2067 0 74.1849 0.0741103 75.1929 0.222332C 76.2008 0.370554 77.2235 0.578063 78.261 0.844862L 77.594 5.24705C 76.8826 5.06918 76.1563 4.93578 75.4152 4.84685C 74.6741 4.72827 73.7996 4.66898 72.7917 4.66898C 69.8865 4.66898 67.6484 5.58795 66.0772 7.4259C 64.5357 9.26385 63.765 11.8429 63.765 15.1631L 63.765 22.1888L 75.2373 22.1888L 75.2373 26.5465L 63.765 26.5465L 63.765 65.8104L 71.013 66.3885L 71.013 70.3015L 51.1809 70.3015L 51.1809 66.3885L 58.429 65.8104L 58.429 26.5465L 50.4695 26.5465Z"/>
<path id="path49_fill" d="M 13.6512 8.93777L 13.6512 21.255L 24.2342 21.255L 24.2342 25.6127L 13.6512 25.6127L 13.6512 56.9616C 13.6512 60.1039 14.2145 62.342 15.3409 63.676C 16.4971 64.9804 18.0238 65.6326 19.921 65.6326C 20.7807 65.6326 21.6107 65.6029 22.4111 65.5436C 23.2412 65.4547 24.1898 65.3213 25.257 65.1434L 26.0574 69.1009C 25.168 69.4863 24.086 69.7828 22.8113 69.9903C 21.5366 70.1978 20.2619 70.3015 18.9872 70.3015C 15.6077 70.3015 12.9694 69.2343 11.0722 67.1C 9.20457 64.9656 8.27077 61.5861 8.27077 56.9616L 8.27077 25.6127L 0 25.6127L 0 21.255L 8.27077 21.255L 8.27077 8.93777L 13.6512 8.93777Z"/>
<path id="path50_fill" d="M 32.505 3.95752L 32.505 0L 45.0446 0L 45.0446 29.4813C 46.6454 26.6058 48.7798 24.3676 51.4477 22.7668C 54.1157 21.1661 57.2284 20.3657 60.7857 20.3657C 65.8549 20.3657 69.7383 21.9368 72.4359 25.0791C 75.1632 28.2214 76.5269 33.0979 76.5269 39.7086L 76.5269 64.8766L 83.7749 65.4547L 83.7749 69.3677L 63.9428 69.3677L 63.9428 65.4547L 71.1909 64.8766L 71.1909 39.6197C 71.1909 34.4022 70.1533 30.6671 68.0782 28.4141C 66.0328 26.1315 63.2017 24.9902 59.5851 24.9902C 55.9389 24.9902 52.8855 25.9536 50.425 27.8805C 47.9942 29.7777 46.2007 32.3123 45.0446 35.4843L 45.0446 64.8766L 52.2926 65.4547L 52.2926 69.3677L 32.505 69.3677L 32.505 65.4547L 39.7531 64.8766L 39.7531 4.53558L 32.505 3.95752Z"/>
<path id="path51_fill" d="M 112.545 70.3015C 106.497 70.3015 101.487 68.093 97.515 63.676C 93.5427 59.2294 91.5565 53.5821 91.5565 46.7343L 91.5565 44.2886C 91.5565 37.4111 93.5279 31.7046 97.4706 27.169C 101.443 22.6334 106.23 20.3657 111.833 20.3657C 117.732 20.3657 122.372 22.2333 125.751 25.9684C 129.131 29.7036 130.82 34.6839 130.82 40.9092L 130.82 45.4448L 96.848 45.4448L 96.848 46.7343C 96.848 52.1296 98.2858 56.6651 101.161 60.341C 104.066 63.9873 107.861 65.8104 112.545 65.8104C 115.835 65.8104 118.651 65.3509 120.993 64.432C 123.335 63.513 125.336 62.1938 126.996 60.4744L 129.264 64.1207C 127.456 66.0179 125.173 67.5298 122.416 68.6563C 119.659 69.7531 116.369 70.3015 112.545 70.3015ZM 111.833 24.9012C 107.92 24.9012 104.615 26.4131 101.917 29.4368C 99.2492 32.4309 97.6929 36.1957 97.2482 40.7313L 97.3372 40.9537L 125.529 40.9537L 125.529 39.6197C 125.529 35.4398 124.299 31.9418 121.838 29.1256C 119.378 26.3093 116.043 24.9012 111.833 24.9012Z"/>
<path id="path52_stroke" d="M -5 20C -5 40 -5 50 -5 70L 5 70C 5 50 5 40 5 20L -5 20ZM -5 70C -5 75 -4.99235 79.0265 -4.65692 82.1147C -4.31051 85.2323 -3.52467 88.5464 -1.03553 91.0355C 1.4536 93.5247 4.76771 94.3105 7.88534 94.6569C 10.9735 94.9923 15 95 20 95L 20 85C 15 85 11.5265 85.0077 8.98966 84.7181C 6.48229 84.4395 6.0464 83.9753 6.03553 83.9645C 6.02467 83.9536 5.56051 83.5177 5.28192 81.0103C 4.99235 78.4735 5 75 5 70L -5 70ZM 20 95C 30 95 32.5 95 35 95C 37.5 95 40 95 50 95L 50 85C 40 85 37.5 85 35 85C 32.5 85 30 85 20 85L 20 95ZM 50 95C 55 95 59.0265 94.9923 62.1147 94.6569C 65.2323 94.3105 68.5464 93.5247 71.0355 91.0355C 73.5247 88.5464 74.3105 85.2323 74.6569 82.1147C 74.9923 79.0265 75 75 75 70L 65 70C 65 75 65.0077 78.4735 64.7181 81.0103C 64.4395 83.5177 63.9753 83.9536 63.9645 83.9645C 63.9536 83.9753 63.5177 84.4395 61.0103 84.7181C 58.4735 85.0077 55 85 50 85L 50 95ZM 75 70C 75 50 75 40 75 20L 65 20C 65 40 65 50 65 70L 75 70ZM 75 20C 75 15 74.9923 10.9735 74.6569 7.88534C 74.3105 4.76771 73.5247 1.4536 71.0355 -1.03553C 68.5464 -3.52467 65.2323 -4.31051 62.1147 -4.65692C 59.0265 -4.99235 55 -5 50 -5L 50 5C 55 5 58.4735 4.99235 61.0103 5.28192C 63.5177 5.56051 63.9536 6.02467 63.9645 6.03553C 63.9753 6.0464 64.4395 6.48229 64.7181 8.98966C 65.0077 11.5265 65 15 65 20L 75 20ZM 50 -5C 40 -5 37.375 -5 34.7812 -5C 32.1875 -5 29.625 -5 19.75 -5L 19.75 5C 29.625 5 32.1875 5 34.7812 5C 37.375 5 40 5 50 5L 50 -5ZM 19.75 -5C 14.8125 -5 10.8294 -4.99216 7.77297 -4.65615C 4.68037 -4.30818 1.38294 -3.5164 -1.08895 -1.01323C -3.54831 1.47726 -4.32059 4.78442 -4.66158 7.89216C -4.99254 10.9769 -5 15 -5 20L 5 20C 5 15 4.99254 11.5231 5.27877 8.98284C 5.55496 6.46558 6.01706 6.02274 6.02645 6.01323C 6.18631 5.79772 6.02227 5.91329 6.53431 5.75226C 7.14245 5.51565 7.71989 5.40808 8.89109 5.28115C 11.3893 4.99216 14.8125 5 19.75 5L 19.75 -5Z"/>
<path id="path53_stroke" d="M -5 90C -5 92.7614 -2.76142 95 0 95C 2.76142 95 5 92.7614 5 90L -5 90ZM 5 0C 5 -2.76142 2.76142 -5 0 -5C -2.76142 -5 -5 -2.76142 -5 0L 5 0ZM 5 90L 5 0L -5 0L -5 90L 5 90Z"/>
<path id="path54_stroke" d="M 70 145C 72.7614 145 75 142.761 75 140C 75 137.239 72.7614 135 70 135L 70 145ZM 0 140L -5 140C -5 142.761 -2.76142 145 1.11022e-15 145L 0 140ZM -5 20C -5 22.7614 -2.76142 25 0 25C 2.76142 25 5 22.7614 5 20L -5 20ZM 70 135L 20 135L 20 145L 70 145L 70 135ZM 20 135L 0 135L 0 145L 20 145L 20 135ZM 0 140C 5 140 5 140 5 140C 5 139.999 5 139.999 5 139.998C 5 139.997 5 139.995 5 139.993C 5 139.988 5 139.981 5 139.971C 5 139.952 5 139.923 5 139.885C 5 139.809 5 139.696 5 139.548C 5 139.253 5 138.818 5 138.262C 5 137.148 5 135.547 5 133.594C 5 129.688 5 124.375 5 118.75C 5 107.5 5 95 5 90L -5 90C -5 95 -5 107.5 -5 118.75C -5 124.375 -5 129.688 -5 133.594C -5 135.547 -5 137.148 -5 138.262C -5 138.818 -5 139.253 -5 139.548C -5 139.696 -5 139.809 -5 139.885C -5 139.923 -5 139.952 -5 139.971C -5 139.981 -5 139.988 -5 139.993C -5 139.995 -5 139.997 -5 139.998C -5 139.999 -5 139.999 -5 140C -5 140 -5 140 0 140ZM 5 90C 5 84.5682 5.16295 81.2694 6.66025 79.0235C 7.78554 77.3356 10.6603 75 20 75L 20 65C 9.33968 65 2.21446 67.6644 -1.66025 73.4765C -5.16295 78.7306 -5 85.4318 -5 90L 5 90ZM 20 75C 30 75 32.5 75 35 75C 37.5 75 40 75 50 75L 50 65C 40 65 37.5 65 35 65C 32.5 65 30 65 20 65L 20 75ZM 50 75C 55 75 59.0265 74.9923 62.1147 74.6569C 65.2323 74.3105 68.5464 73.5247 71.0355 71.0355C 73.5247 68.5464 74.3105 65.2323 74.6569 62.1147C 74.9923 59.0265 75 55 75 50L 65 50C 65 55 65.0077 58.4735 64.7181 61.0103C 64.4395 63.5177 63.9753 63.9536 63.9645 63.9645C 63.9536 63.9753 63.5177 64.4395 61.0103 64.7181C 58.4735 65.0077 55 65 50 65L 50 75ZM 75 50C 75 40 75 37.5 75 35C 75 32.5 75 30 75 20L 65 20C 65 30 65 32.5 65 35C 65 37.5 65 40 65 50L 75 50ZM 75 20C 75 15 74.9923 10.9735 74.6569 7.88534C 74.3105 4.76771 73.5247 1.4536 71.0355 -1.03553C 68.5464 -3.52467 65.2323 -4.31051 62.1147 -4.65692C 59.0265 -4.99235 55 -5 50 -5L 50 5C 55 5 58.4735 4.99235 61.0103 5.28192C 63.5177 5.56051 63.9536 6.02467 63.9645 6.03553C 63.9753 6.0464 64.4395 6.48229 64.7181 8.98966C 65.0077 11.5265 65 15 65 20L 75 20ZM 50 -5C 40 -5 37.5 -5 35 -5C 32.5 -5 30 -5 20 -5L 20 5C 30 5 32.5 5 35 5C 37.5 5 40 5 50 5L 50 -5ZM 20 -5C 15 -5 10.9735 -4.99235 7.88534 -4.65692C 4.76771 -4.31051 1.4536 -3.52467 -1.03553 -1.03553C -3.52467 1.4536 -4.31051 4.76771 -4.65692 7.88534C -4.99235 10.9735 -5 15 -5 20L 5 20C 5 15 4.99235 11.5265 5.28192 8.98966C 5.56051 6.48229 6.02467 6.0464 6.03553 6.03553C 6.0464 6.02467 6.48229 5.56051 8.98966 5.28192C 11.5265 4.99235 15 5 20 5L 20 -5Z"/>
<path id="path55_stroke" d="M -2 20C -2 40 -2 50 -2 70L 2 70C 2 50 2 40 2 20L -2 20ZM -2 70C -2 75 -1.99694 78.8606 -1.67527 81.7834C -1.34921 84.7179 -0.659867 87.1686 1.08579 88.9142C 2.83144 90.6599 5.28208 91.3492 8.21664 91.6753C 11.1394 91.9969 15 92 20 92L 20 88C 15 88 11.3606 88.0031 8.65836 87.6997C 5.96792 87.4008 4.66856 86.8401 3.91421 86.0858C 3.15987 85.3314 2.59921 84.0321 2.30027 81.3416C 1.99694 78.6394 2 75 2 70L -2 70ZM 20 92C 30 92 32.5 92 35 92C 37.5 92 40 92 50 92L 50 88C 40 88 37.5 88 35 88C 32.5 88 30 88 20 88L 20 92ZM 50 92C 55 92 58.8606 91.9969 61.7834 91.6753C 64.7179 91.3492 67.1686 90.6599 68.9142 88.9142C 70.6599 87.1686 71.3492 84.7179 71.6753 81.7834C 71.9969 78.8606 72 75 72 70L 68 70C 68 75 68.0031 78.6394 67.6997 81.3416C 67.4008 84.0321 66.8401 85.3314 66.0858 86.0858C 65.3314 86.8401 64.0321 87.4008 61.3416 87.6997C 58.6394 88.0031 55 88 50 88L 50 92ZM 72 70C 72 50 72 40 72 20L 68 20C 68 40 68 50 68 70L 72 70ZM 72 20C 72 15 71.9969 11.1394 71.6753 8.21664C 71.3492 5.28208 70.6599 2.83144 68.9142 1.08579C 67.1686 -0.659867 64.7179 -1.34921 61.7834 -1.67527C 58.8606 -1.99694 55 -2 50 -2L 50 2C 55 2 58.6394 1.99694 61.3416 2.30027C 64.0321 2.59921 65.3314 3.15987 66.0858 3.91421C 66.8401 4.66856 67.4008 5.96792 67.6997 8.65836C 68.0031 11.3606 68 15 68 20L 72 20ZM 50 -2C 40 -2 37.375 -2 34.7812 -2C 32.1875 -2 29.625 -2 19.75 -2L 19.75 2C 29.625 2 32.1875 2 34.7812 2C 37.375 2 40 2 50 2L 50 -2ZM 19.75 -2C 14.8125 -2 10.9974 -1.99686 8.10841 -1.67496C 5.20496 -1.34827 2.77505 -0.656562 1.04567 1.09471C -0.678698 2.8409 -1.35792 5.28877 -1.67947 8.21937C -1.99701 11.1408 -2 15 -2 20L 2 20C 2 15 1.99701 11.3592 2.29666 8.65563C 2.5923 5.96123 3.14745 4.6591 3.89183 3.90529C 4.6312 3.15656 5.90441 2.59827 8.55566 2.29996C 11.2214 1.99686 14.8125 2 19.75 2L 19.75 -2Z"/>
<path id="path56_stroke" d="M -2 90C -2 91.1046 -1.10457 92 0 92C 1.10457 92 2 91.1046 2 90L -2 90ZM 2 0C 2 -1.10457 1.10457 -2 0 -2C -1.10457 -2 -2 -1.10457 -2 0L 2 0ZM 2 90L 2 0L -2 0L -2 90L 2 90Z"/>
<path id="path57_stroke" d="M 70 142C 71.1046 142 72 141.105 72 140C 72 138.895 71.1046 138 70 138L 70 142ZM 0 140L -2 140C -2 141.105 -1.10457 142 4.44089e-16 142L 0 140ZM -2 20C -2 21.1046 -1.10457 22 0 22C 1.10457 22 2 21.1046 2 20L -2 20ZM 70 138L 20 138L 20 142L 70 142L 70 138ZM 20 138L 0 138L 0 142L 20 142L 20 138ZM 0 140C 2 140 2 140 2 140C 2 139.999 2 139.999 2 139.998C 2 139.997 2 139.995 2 139.993C 2 139.988 2 139.981 2 139.971C 2 139.952 2 139.923 2 139.885C 2 139.809 2 139.696 2 139.548C 2 139.253 2 138.818 2 138.262C 2 137.148 2 135.547 2 133.594C 2 129.688 2 124.375 2 118.75C 2 107.5 2 95 2 90L -2 90C -2 95 -2 107.5 -2 118.75C -2 124.375 -2 129.688 -2 133.594C -2 135.547 -2 137.148 -2 138.262C -2 138.818 -2 139.253 -2 139.548C -2 139.696 -2 139.809 -2 139.885C -2 139.923 -2 139.952 -2 139.971C -2 139.981 -2 139.988 -2 139.993C -2 139.995 -2 139.997 -2 139.998C -2 139.999 -2 139.999 -2 140C -2 140 -2 140 0 140ZM 2 90C 2 84.8273 2.06518 80.5078 4.1641 77.3594C 6.11422 74.4342 10.2641 72 20 72L 20 68C 9.73587 68 3.88578 70.5658 0.835899 75.1406C -2.06518 79.4922 -2 85.1727 -2 90L 2 90ZM 20 72C 30 72 32.5 72 35 72C 37.5 72 40 72 50 72L 50 68C 40 68 37.5 68 35 68C 32.5 68 30 68 20 68L 20 72ZM 50 72C 55 72 58.8606 71.9969 61.7834 71.6753C 64.7179 71.3492 67.1686 70.6599 68.9142 68.9142C 70.6599 67.1686 71.3492 64.7179 71.6753 61.7834C 71.9969 58.8606 72 55 72 50L 68 50C 68 55 68.0031 58.6394 67.6997 61.3416C 67.4008 64.0321 66.8401 65.3314 66.0858 66.0858C 65.3314 66.8401 64.0321 67.4008 61.3416 67.6997C 58.6394 68.0031 55 68 50 68L 50 72ZM 72 50C 72 40 72 37.5 72 35C 72 32.5 72 30 72 20L 68 20C 68 30 68 32.5 68 35C 68 37.5 68 40 68 50L 72 50ZM 72 20C 72 15 71.9969 11.1394 71.6753 8.21664C 71.3492 5.28208 70.6599 2.83144 68.9142 1.08579C 67.1686 -0.659867 64.7179 -1.34921 61.7834 -1.67527C 58.8606 -1.99694 55 -2 50 -2L 50 2C 55 2 58.6394 1.99694 61.3416 2.30027C 64.0321 2.59921 65.3314 3.15987 66.0858 3.91421C 66.8401 4.66856 67.4008 5.96792 67.6997 8.65836C 68.0031 11.3606 68 15 68 20L 72 20ZM 50 -2C 40 -2 37.5 -2 35 -2C 32.5 -2 30 -2 20 -2L 20 2C 30 2 32.5 2 35 2C 37.5 2 40 2 50 2L 50 -2ZM 20 -2C 15 -2 11.1394 -1.99694 8.21664 -1.67527C 5.28208 -1.34921 2.83144 -0.659867 1.08579 1.08579C -0.659867 2.83144 -1.34921 5.28208 -1.67527 8.21664C -1.99694 11.1394 -2 15 -2 20L 2 20C 2 15 1.99694 11.3606 2.30027 8.65836C 2.59921 5.96792 3.15987 4.66856 3.91421 3.91421C 4.66856 3.15987 5.96792 2.59921 8.65836 2.30027C 11.3606 1.99694 15 2 20 2L 20 -2Z"/>
<path id="path58_stroke" d="M -5 20C -5 22.7614 -2.76142 25 0 25C 2.76142 25 5 22.7614 5 20L -5 20ZM 65 140C 65 142.761 67.2386 145 70 145C 72.7614 145 75 142.761 75 140L 65 140ZM 5 20C 5 15 4.99235 11.5265 5.28192 8.98966C 5.56051 6.48229 6.02467 6.0464 6.03553 6.03553C 6.0464 6.02467 6.48229 5.56051 8.98966 5.28192C 11.5265 4.99235 15 5 20 5L 20 -5C 15 -5 10.9735 -4.99235 7.88534 -4.65692C 4.76771 -4.31051 1.4536 -3.52467 -1.03553 -1.03553C -3.52467 1.4536 -4.31051 4.76771 -4.65692 7.88534C -4.99235 10.9735 -5 15 -5 20L 5 20ZM 20 5C 30 5 32.5 5 35 5C 37.5 5 40 5 50 5L 50 -5C 40 -5 37.5 -5 35 -5C 32.5 -5 30 -5 20 -5L 20 5ZM 50 5C 55 5 58.4735 4.99235 61.0103 5.28192C 63.5177 5.56051 63.9536 6.02467 63.9645 6.03553C 63.9753 6.0464 64.4395 6.48229 64.7181 8.98966C 65.0077 11.5265 65 15 65 20L 75 20C 75 15 74.9923 10.9735 74.6569 7.88534C 74.3105 4.76771 73.5247 1.4536 71.0355 -1.03553C 68.5464 -3.52467 65.2323 -4.31051 62.1147 -4.65692C 59.0265 -4.99235 55 -5 50 -5L 50 5ZM 65 20C 65 30 65 60 65 87.5C 65 101.25 65 114.375 65 124.062C 65 128.906 65 132.891 65 135.664C 65 137.051 65 138.135 65 138.872C 65 139.241 65 139.523 65 139.713C 65 139.807 65 139.879 65 139.927C 65 139.952 65 139.97 65 139.982C 65 139.988 65 139.992 65 139.995C 65 139.997 65 139.998 65 139.999C 65 140 65 140 70 140C 75 140 75 140 75 139.999C 75 139.998 75 139.997 75 139.995C 75 139.992 75 139.988 75 139.982C 75 139.97 75 139.952 75 139.927C 75 139.879 75 139.807 75 139.713C 75 139.523 75 139.241 75 138.872C 75 138.135 75 137.051 75 135.664C 75 132.891 75 128.906 75 124.062C 75 114.375 75 101.25 75 87.5C 75 60 75 30 75 20L 65 20Z"/>
<path id="path59_stroke" d="M 649.97 665.966L 649.86 667.462C 649.933 667.467 650.006 667.467 650.079 667.462L 649.97 665.966ZM 28.727 567.759L 28.0279 569.086C 28.1176 569.133 28.212 569.171 28.3095 569.2L 28.727 567.759ZM 22.891 563.568L 24.2843 563.012L 24.2837 563.011L 22.891 563.568ZM 2.77101 331.001L 1.6418 331.988L 1.64214 331.989L 2.77101 331.001ZM -4.5166e-06 327.988L -1.07876 326.946C -1.64042 327.527 -1.64042 328.449 -1.07876 329.03L -4.5166e-06 327.988ZM 2.77101 324.975L 1.64214 323.987L 1.6418 323.988L 2.77101 324.975ZM 22.891 92.409L 21.4985 91.8515L 21.4984 91.8516L 22.891 92.409ZM 28.784 88.188L 28.3669 86.7472C 28.2699 86.7752 28.1759 86.8131 28.0865 86.86L 28.784 88.188ZM 649.965 1.0376e-06L 650.047 -1.49776C 649.992 -1.50074 649.938 -1.50074 649.883 -1.49776L 649.965 1.0376e-06ZM 1271.15 88.188L 1271.84 86.8601C 1271.75 86.8131 1271.66 86.7753 1271.56 86.7472L 1271.15 88.188ZM 1277.04 92.409L 1275.65 92.9652L 1275.65 92.9654L 1277.04 92.409ZM 1287.56 322.148L 1286.29 322.943L 1286.29 322.943L 1287.56 322.148ZM 1291.77 327.988L 1292.93 328.946C 1293.39 328.39 1293.39 327.585 1292.93 327.03L 1291.77 327.988ZM 1287.56 333.828L 1286.29 333.033L 1286.29 333.033L 1287.56 333.828ZM 1277.04 563.567L 1275.64 563.01L 1275.64 563.012L 1277.04 563.567ZM 1271.07 567.829L 1271.5 569.266C 1271.59 569.238 1271.68 569.202 1271.76 569.158L 1271.07 567.829ZM 958.622 620.46L 958.391 618.978L 958.622 620.46ZM 650.08 664.47C 634.655 663.34 489.309 641.665 342.755 618.819C 269.507 607.4 196 595.696 138.335 586.131C 80.6021 576.555 38.9039 569.146 29.1445 566.318L 28.3095 569.2C 38.2886 572.092 80.2388 579.535 137.844 589.091C 195.518 598.657 269.04 610.364 342.293 621.783C 488.738 644.612 634.275 666.321 649.86 667.462L 650.08 664.47ZM 29.4261 566.432C 27.4185 565.376 26.1209 564.528 25.2538 563.854C 24.84 563.534 24.5898 563.307 24.3969 563.102C 24.1981 562.892 24.2274 562.87 24.2843 563.012L 21.4977 564.124C 21.6571 564.523 21.9499 564.881 22.218 565.164C 22.492 565.452 22.9122 565.833 23.4145 566.224C 24.3796 566.971 25.8975 567.962 28.0279 569.086L 29.4261 566.432ZM 24.2837 563.011C 23.9327 562.134 23.6968 560.139 23.5786 557.292C 23.4637 554.533 23.464 551.248 23.464 547.988L 20.464 547.988C 20.464 551.248 20.4643 554.595 20.5812 557.417C 20.6947 560.151 20.9223 562.685 21.4983 564.125L 24.2837 563.011ZM 23.464 547.988L 23.464 377.988L 20.464 377.988L 20.464 547.988L 23.464 547.988ZM 23.464 377.988C 23.464 361.879 16.1157 343.974 3.89988 330.013L 1.64214 331.989C 13.4623 345.498 20.464 362.723 20.464 377.988L 23.464 377.988ZM 3.90021 330.014C 2.98231 328.964 2.03306 327.934 1.07875 326.946L -1.07876 329.03C -0.149066 329.992 0.749706 330.968 1.6418 331.988L 3.90021 330.014ZM 1.07875 329.03C 2.03306 328.042 2.98231 327.012 3.90021 325.962L 1.6418 323.988C 0.749706 325.008 -0.149066 325.984 -1.07876 326.946L 1.07875 329.03ZM 3.89988 325.963C 16.1157 312.002 23.464 294.097 23.464 277.988L 20.464 277.988C 20.464 293.253 13.4623 310.478 1.64214 323.987L 3.89988 325.963ZM 23.464 277.988L 23.464 107.988L 20.464 107.988L 20.464 277.988L 23.464 277.988ZM 23.464 107.988C 23.464 104.728 23.4637 101.443 23.5786 98.6839C 23.6968 95.8375 23.9328 93.8429 24.2836 92.9664L 21.4984 91.8516C 20.9222 93.2911 20.6947 95.8256 20.5812 98.5594C 20.4643 101.381 20.464 104.728 20.464 107.988L 23.464 107.988ZM 24.2835 92.9666C 24.227 93.1078 24.1988 93.0841 24.3996 92.8723C 24.5945 92.6651 24.8476 92.4365 25.2657 92.1141C 26.1413 91.4344 27.4525 90.5798 29.4815 89.516L 28.0865 86.86C 25.9346 87.9922 24.4027 88.9896 23.4288 89.7422C 22.9221 90.1359 22.4988 90.5185 22.2227 90.8081C 21.9525 91.093 21.6585 91.4517 21.4985 91.8515L 24.2835 92.9666ZM 29.2011 89.6288C 38.7531 86.8637 80.2158 80.0814 137.768 71.4181C 195.242 62.7665 268.588 52.2629 341.758 42.0524C 488.157 21.623 633.679 2.39225 650.047 1.49777L 649.883 -1.49776C 633.351 -0.594251 487.634 18.667 341.343 39.0811C 268.168 49.2924 194.806 59.7984 137.322 68.4515C 79.9146 77.0929 38.1664 83.9103 28.3669 86.7472L 29.2011 89.6288ZM 649.883 1.49777C 666.25 2.39225 811.773 21.623 958.172 42.0524C 1031.34 52.2629 1104.69 62.7665 1162.16 71.4181C 1219.71 80.0814 1261.18 86.8637 1270.73 89.6288L 1271.56 86.7472C 1261.76 83.9103 1220.02 77.0929 1162.61 68.4515C 1105.12 59.7984 1031.76 49.2924 958.587 39.0811C 812.296 18.667 666.579 -0.594251 650.047 -1.49776L 649.883 1.49777ZM 1270.45 89.5159C 1272.48 90.5798 1273.79 91.4347 1274.66 92.1145C 1275.08 92.437 1275.34 92.6657 1275.53 92.8729C 1275.73 93.0851 1275.7 93.108 1275.65 92.9652L 1278.43 91.8529C 1278.27 91.452 1277.98 91.0928 1277.71 90.8083C 1277.43 90.5188 1277.01 90.1363 1276.5 89.7425C 1275.53 88.9898 1273.99 87.9922 1271.84 86.8601L 1270.45 89.5159ZM 1275.65 92.9654C 1276 93.8423 1276.23 95.8374 1276.35 98.6837C 1276.46 101.443 1276.46 104.728 1276.46 107.988L 1279.46 107.988C 1279.46 104.727 1279.46 101.381 1279.35 98.5595C 1279.23 95.8256 1279.01 93.2917 1278.43 91.8526L 1275.65 92.9654ZM 1276.46 107.988L 1276.46 277.988L 1279.46 277.988L 1279.46 107.988L 1276.46 107.988ZM 1276.46 277.988C 1276.46 289.427 1276.44 307.182 1286.29 322.943L 1288.83 321.353C 1279.49 306.412 1279.46 289.493 1279.46 277.988L 1276.46 277.988ZM 1286.29 322.943C 1287.6 325.045 1289.07 327.074 1290.62 328.946L 1292.93 327.03C 1291.44 325.236 1290.09 323.371 1288.83 321.353L 1286.29 322.943ZM 1290.62 327.03C 1289.07 328.902 1287.6 330.931 1286.29 333.033L 1288.83 334.623C 1290.09 332.605 1291.44 330.74 1292.93 328.946L 1290.62 327.03ZM 1286.29 333.033C 1276.44 348.793 1276.46 366.55 1276.46 377.988L 1279.46 377.988C 1279.46 366.482 1279.49 349.563 1288.83 334.623L 1286.29 333.033ZM 1276.46 377.988L 1276.46 547.988L 1279.46 547.988L 1279.46 377.988L 1276.46 377.988ZM 1276.46 547.988C 1276.46 551.248 1276.46 554.533 1276.35 557.292C 1276.23 560.138 1276 562.133 1275.64 563.01L 1278.43 564.124C 1279.01 562.685 1279.23 560.15 1279.35 557.417C 1279.46 554.595 1279.46 551.248 1279.46 547.988L 1276.46 547.988ZM 1275.64 563.012C 1275.7 562.869 1275.73 562.892 1275.53 563.107C 1275.33 563.316 1275.07 563.548 1274.65 563.874C 1273.76 564.561 1272.43 565.425 1270.37 566.5L 1271.76 569.158C 1273.94 568.015 1275.49 567.008 1276.48 566.249C 1276.99 565.851 1277.42 565.466 1277.7 565.174C 1277.97 564.887 1278.27 564.525 1278.43 564.122L 1275.64 563.012ZM 1270.64 566.392C 1264.25 568.305 1238.89 573.254 1188.67 581.838C 1138.51 590.412 1063.66 602.595 958.391 618.978L 958.853 621.942C 1064.13 605.558 1139 593.372 1189.18 584.795C 1239.29 576.229 1264.89 571.246 1271.5 569.266L 1270.64 566.392ZM 958.391 618.978C 797.576 644.006 664.332 663.416 649.861 664.47L 650.079 667.462C 664.71 666.396 798.135 646.956 958.853 621.942L 958.391 618.978Z"/>
<path id="path60_stroke" d="M 668.339 689.999L 668.278 692.498L 668.339 692.5L 668.4 692.498L 668.339 689.999ZM 356.571 643.862L 356.185 646.332L 356.185 646.332L 356.571 643.862ZM 42.564 590.932L 41.4395 593.165L 41.5741 593.233L 41.7159 593.284L 42.564 590.932ZM 2.56348e-06 340L -1.41862 337.941L -4.4058 340L -1.41854 342.059L 2.56348e-06 340ZM 42.609 89.045L 41.7417 86.7003L 41.6105 86.7488L 41.4856 86.8116L 42.609 89.045ZM 357.311 40.793L 357.656 43.2691L 357.656 43.2691L 357.311 40.793ZM 668.355 0L 668.387 -2.4998L 668.355 -2.5002L 668.323 -2.4998L 668.355 0ZM 979.365 40.793L 979.02 43.2691L 979.365 40.793ZM 1294.07 89.045L 1295.19 86.8116L 1295.07 86.7488L 1294.93 86.7003L 1294.07 89.045ZM 1327.83 340L 1329.23 342.066L 1332.26 340L 1329.23 337.934L 1327.83 340ZM 1294.04 590.968L 1294.94 593.302L 1295.05 593.257L 1295.16 593.202L 1294.04 590.968ZM 979.773 644.185L 980.158 646.655L 979.773 644.185ZM 668.4 687.5C 665.978 687.44 655.13 686.079 637.481 683.629C 619.943 681.195 595.915 677.719 567.337 673.49C 510.178 665.031 434.852 653.563 356.957 641.392L 356.185 646.332C 434.089 658.504 509.435 669.976 566.605 678.436C 595.191 682.667 619.241 686.145 636.793 688.582C 654.234 691.003 665.488 692.43 668.278 692.498L 668.4 687.5ZM 356.957 641.392C 267.223 627.371 191.61 615.177 136.989 605.97C 109.682 601.367 87.637 597.513 71.6949 594.55C 55.6229 591.562 46.0429 589.529 43.4121 588.58L 41.7159 593.284C 44.8331 594.408 54.9429 596.522 70.7812 599.466C 86.7496 602.434 108.836 606.295 136.158 610.9C 190.796 620.111 266.439 632.309 356.185 646.332L 356.957 641.392ZM 43.6885 588.699C 36.7095 585.184 33.8623 582.59 32.4371 579.027C 30.8817 575.139 30.838 569.794 30.838 560L 25.838 560C 25.838 569.344 25.7938 575.882 27.7947 580.884C 29.9257 586.212 34.1915 589.515 41.4395 593.165L 43.6885 588.699ZM 30.838 560L 30.838 390L 25.838 390L 25.838 560L 30.838 560ZM 30.838 390C 30.838 372.762 19.9331 350.7 1.41855 337.941L -1.41854 342.059C 15.8329 353.946 25.838 374.514 25.838 390L 30.838 390ZM 1.41862 342.059C 19.9331 329.299 30.838 307.238 30.838 290L 25.838 290C 25.838 305.486 15.8329 326.053 -1.41862 337.941L 1.41862 342.059ZM 30.838 290L 30.838 120L 25.838 120L 25.838 290L 30.838 290ZM 30.838 120C 30.838 110.197 30.8824 104.85 32.4425 100.962C 33.8726 97.3969 36.7299 94.8007 43.7324 91.2784L 41.4856 86.8116C 34.2181 90.4673 29.9399 93.7706 27.802 99.0999C 25.7941 104.105 25.838 110.647 25.838 120L 30.838 120ZM 43.4763 91.3897C 45.4364 90.6647 52.3014 89.1765 65.2814 86.8533C 78.1358 84.5525 96.7091 81.4773 121.841 77.5523C 172.115 69.7005 248.549 58.4623 357.656 43.2691L 356.966 38.3169C 247.84 53.5127 171.366 64.757 121.069 72.6122C 95.915 76.5407 77.2869 79.6251 64.4005 81.9315C 51.6397 84.2154 44.2246 85.7818 41.7417 86.7003L 43.4763 91.3897ZM 357.656 43.2691C 439.63 31.8539 515.078 21.6863 571.188 14.3573C 599.242 10.693 622.453 7.73942 639.229 5.69414C 656.114 3.63556 666.261 2.52681 668.387 2.4998L 668.323 -2.4998C 665.845 -2.46831 655.304 -1.30268 638.624 0.73089C 621.835 2.77777 598.603 5.73409 570.541 9.39943C 514.421 16.7297 438.951 26.9001 356.966 38.3169L 357.656 43.2691ZM 668.323 2.4998C 670.44 2.5268 680.581 3.63552 697.461 5.69413C 714.233 7.73941 737.44 10.693 765.492 14.3573C 821.598 21.6863 897.046 31.8539 979.02 43.2691L 979.71 38.3169C 897.725 26.9001 822.255 16.7297 766.139 9.39944C 738.08 5.73409 714.851 2.77778 698.067 0.730901C 681.391 -1.30265 670.857 -2.4683 668.387 -2.4998L 668.323 2.4998ZM 979.02 43.2691C 1088.13 58.4623 1164.56 69.7005 1214.84 77.5523C 1239.97 81.4773 1258.54 84.5525 1271.39 86.8533C 1284.37 89.1765 1291.24 90.6647 1293.2 91.3897L 1294.93 86.7003C 1292.45 85.7818 1285.04 84.2154 1272.28 81.9315C 1259.39 79.6251 1240.76 76.5407 1215.61 72.6122C 1165.31 64.757 1088.84 53.5127 979.71 38.3169L 979.02 43.2691ZM 1292.94 91.2784C 1299.95 94.8007 1302.8 97.3969 1304.23 100.962C 1305.79 104.85 1305.84 110.197 1305.84 120L 1310.84 120C 1310.84 110.647 1310.88 104.105 1308.87 99.0999C 1306.74 93.7706 1302.46 90.4673 1295.19 86.8116L 1292.94 91.2784ZM 1305.84 120L 1305.84 290L 1310.84 290L 1310.84 120L 1305.84 120ZM 1305.84 290C 1305.84 303.185 1305.7 327.946 1326.42 342.066L 1329.23 337.934C 1310.98 325.494 1310.84 303.589 1310.84 290L 1305.84 290ZM 1326.42 337.934C 1305.7 352.054 1305.84 376.815 1305.84 390L 1310.84 390C 1310.84 376.411 1310.98 354.506 1329.23 342.066L 1326.42 337.934ZM 1305.84 390L 1305.84 560L 1310.84 560L 1310.84 390L 1305.84 390ZM 1305.84 560C 1305.84 569.81 1305.79 575.157 1304.23 579.046C 1302.8 582.611 1299.94 585.207 1292.92 588.734L 1295.16 593.202C 1302.44 589.543 1306.73 586.24 1308.87 580.91C 1310.88 575.903 1310.84 569.359 1310.84 560L 1305.84 560ZM 1293.14 588.635C 1291.93 589.101 1288.96 589.87 1284.1 590.924C 1279.31 591.965 1272.89 593.242 1264.92 594.745C 1248.97 597.752 1226.91 601.641 1199.58 606.27C 1144.9 615.528 1069.21 627.733 979.389 641.715L 980.158 646.655C 1069.99 632.671 1145.72 620.461 1200.41 611.2C 1227.76 606.568 1249.87 602.671 1265.85 599.658C 1273.84 598.151 1280.33 596.86 1285.16 595.811C 1289.93 594.775 1293.3 593.932 1294.94 593.302L 1293.14 588.635ZM 979.389 641.715C 895.992 654.696 820.543 666.09 764.74 674.268C 736.84 678.356 713.86 681.64 697.252 683.916C 680.535 686.208 670.496 687.446 668.278 687.5L 668.4 692.498C 670.98 692.435 681.418 691.134 697.931 688.87C 714.553 686.592 737.556 683.305 765.465 679.215C 821.279 671.035 896.75 659.639 980.158 646.655L 979.389 641.715Z"/>
</defs>
</svg>
