<svg width="532" height="336" viewBox="0 0 532 336" fill="none" xmlns="http://www.w3.org/2000/svg">
<g filter="url(#filter0_d)">
<rect x="119" y="109" width="98" height="98" fill="#2E2E2E" stroke="white" stroke-width="2"/>
<path d="M148.665 143.8L156.045 169H162.633L169.977 143.8H165.585L159.573 165.22H159.069L153.057 143.8H148.665ZM170.102 155.5L173.414 157.372C174.386 155.392 175.97 154.096 178.598 154.096C181.262 154.096 182.738 155.464 182.738 157.516V157.984L175.898 158.704C171.974 159.1 169.742 160.972 169.742 163.996C169.742 167.308 172.37 169.504 176.366 169.504C180.11 169.504 181.694 167.704 182.27 166.516H182.774V169H186.662V157.624C186.662 153.412 183.566 150.64 178.742 150.64C174.422 150.64 171.794 152.8 170.102 155.5ZM173.846 163.816C173.846 162.376 175.07 161.728 176.942 161.512L182.738 160.9V161.296C182.738 164.032 180.866 166.228 177.194 166.228C175.034 166.228 173.846 165.256 173.846 163.816Z" fill="#72D7D1"/>
<path d="M137.864 128.896C137.864 126.304 136.01 124.594 133.832 124.594C131.996 124.594 131.114 125.494 130.664 126.25H130.448V124.45C130.448 122.668 131.582 121.498 133.49 121.498C135.362 121.498 136.244 122.506 136.244 124.036H137.72C137.72 121.768 136.136 120.148 133.49 120.148C130.79 120.148 128.972 121.93 128.972 124.522V128.914C128.972 131.524 130.898 133.252 133.4 133.252C135.938 133.252 137.864 131.488 137.864 128.896ZM133.4 125.872C135.182 125.872 136.388 127.096 136.388 128.896C136.388 130.696 135.182 131.902 133.4 131.902C131.654 131.902 130.448 130.696 130.448 128.896C130.448 127.096 131.654 125.872 133.4 125.872Z" fill="white"/>
<rect x="217" y="109" width="98" height="98" fill="#2E2E2E" stroke="white" stroke-width="2"/>
<path d="M256.242 143.296C251.454 143.296 247.638 146.032 247.638 150.424C247.638 155.068 250.734 156.796 255.702 157.876L256.674 158.092C259.95 158.776 261.678 159.604 261.678 161.908C261.678 164.032 259.95 165.76 256.746 165.76C252.786 165.76 250.734 163.6 250.734 160.072V159.352H246.594V160.324C246.594 166.048 250.518 169.504 256.674 169.504C261.93 169.504 265.818 166.624 265.818 161.764C265.818 157.3 262.866 155.392 257.934 154.312L256.962 154.096C253.65 153.34 251.778 152.692 251.778 150.352C251.778 148.408 253.578 147.04 256.242 147.04C259.338 147.04 261.39 148.516 261.39 151.576V152.368H265.494V151.252C265.494 146.14 261.534 143.296 256.242 143.296ZM268.603 160.072C268.603 165.58 272.599 169.504 277.855 169.504C282.967 169.504 285.811 166.372 286.639 162.664L282.751 161.764C282.283 164.032 280.951 165.868 277.891 165.868C274.723 165.868 272.563 163.564 272.563 160.072C272.563 156.58 274.795 154.276 277.855 154.276C280.807 154.276 282.427 156.112 282.715 158.38L286.603 157.48C285.775 153.484 282.679 150.64 277.819 150.64C272.599 150.64 268.603 154.564 268.603 160.072Z" fill="#72D7D1"/>
<path d="M226.342 120.4V121.768H233.722L228.538 133H230.158L235.378 121.696V120.4H226.342Z" fill="white"/>
<rect x="21" y="109" width="98" height="98" fill="#2E2E2E" stroke="white" stroke-width="2"/>
<path d="M67.9025 143.8H63.7265V161.44C63.7265 164.032 62.5385 165.616 59.8025 165.616C56.9945 165.616 55.5905 163.996 55.5905 161.44V159.208H51.4145V161.44C51.4145 166.552 54.6185 169.504 59.9105 169.504C65.0225 169.504 67.9025 166.66 67.9025 161.44V143.8ZM71.8212 155.5L75.1332 157.372C76.1052 155.392 77.6892 154.096 80.3172 154.096C82.9812 154.096 84.4572 155.464 84.4572 157.516V157.984L77.6172 158.704C73.6932 159.1 71.4612 160.972 71.4612 163.996C71.4612 167.308 74.0892 169.504 78.0852 169.504C81.8292 169.504 83.4132 167.704 83.9892 166.516H84.4932V169H88.3812V157.624C88.3812 153.412 85.2852 150.64 80.4612 150.64C76.1412 150.64 73.5132 152.8 71.8212 155.5ZM75.5652 163.816C75.5652 162.376 76.7892 161.728 78.6612 161.512L84.4572 160.9V161.296C84.4572 164.032 82.5852 166.228 78.9132 166.228C76.7532 166.228 75.5652 165.256 75.5652 163.816Z" fill="#72D7D1"/>
<path d="M31.278 120.4V127.132H33.528C33.816 126.592 34.41 125.836 35.742 125.836C37.326 125.836 38.388 126.916 38.388 128.734C38.388 130.678 37.29 131.902 35.382 131.902C33.456 131.902 32.268 130.768 32.268 128.824V128.554H30.81V128.878C30.81 131.542 32.664 133.252 35.382 133.252C38.1 133.252 39.882 131.326 39.882 128.734C39.882 126.178 38.208 124.522 36.03 124.522C34.248 124.522 33.42 125.332 32.952 126.196H32.736V121.75H39.54V120.4H31.278Z" fill="white"/>
<rect x="413" y="109" width="98" height="98" fill="#2E2E2E" stroke="white" stroke-width="2"/>
<path d="M446.701 143.8V169H450.877V159.352H456.781C461.353 159.352 464.701 156.256 464.701 151.576C464.701 146.86 461.461 143.8 456.781 143.8H446.701ZM450.877 147.688H456.349C458.977 147.688 460.525 149.128 460.525 151.576C460.525 154.024 458.941 155.464 456.349 155.464H450.877V147.688ZM465.885 151.144V154.6H470.601V165.76C470.601 167.668 471.969 169 473.841 169H478.593V165.544H475.533C474.885 165.544 474.561 165.22 474.561 164.5V154.6H479.601V151.144H474.561V145.42H470.601V151.144H465.885Z" fill="#72D7D1"/>
<path d="M422.72 124.504C422.72 127.096 424.574 128.806 426.752 128.806C428.588 128.806 429.488 127.906 429.92 127.15H430.136V128.95C430.136 130.732 429.002 131.902 427.112 131.902C425.24 131.902 424.358 130.894 424.358 129.364H422.882C422.882 131.632 424.448 133.252 427.112 133.252C429.794 133.252 431.612 131.47 431.612 128.878V124.486C431.612 121.876 429.686 120.148 427.184 120.148C424.646 120.148 422.72 121.912 422.72 124.504ZM427.184 127.528C425.402 127.528 424.196 126.304 424.196 124.504C424.196 122.704 425.402 121.498 427.184 121.498C428.93 121.498 430.136 122.704 430.136 124.504C430.136 126.304 428.93 127.528 427.184 127.528Z" fill="white"/>
<rect x="315" y="109" width="98" height="98" fill="#2E2E2E" stroke="white" stroke-width="2"/>
<path d="M369.628 151.504C369.628 146.86 366.388 143.8 361.708 143.8H350.908V169H355.084V159.172H359.656L364.66 169H369.268L363.904 158.92C367.324 158.092 369.628 155.356 369.628 151.504ZM355.084 147.688H361.276C363.904 147.688 365.452 149.092 365.452 151.504C365.452 153.88 363.868 155.284 361.276 155.284H355.084V147.688ZM372.187 145.96C372.187 147.616 373.519 148.84 375.175 148.84C376.831 148.84 378.127 147.616 378.127 145.96C378.127 144.268 376.831 143.08 375.175 143.08C373.519 143.08 372.187 144.268 372.187 145.96ZM377.155 151.144H373.195V169H377.155V151.144Z" fill="#72D7D1"/>
<path d="M325.008 123.514C325.008 125.26 326.286 126.052 327.186 126.34V126.556C326.25 126.754 324.774 127.69 324.774 129.634C324.774 131.776 326.628 133.252 329.328 133.252C332.01 133.252 333.882 131.776 333.882 129.634C333.882 127.69 332.406 126.754 331.452 126.556V126.34C332.352 126.052 333.648 125.26 333.648 123.514C333.648 121.534 331.956 120.148 329.328 120.148C326.682 120.148 325.008 121.534 325.008 123.514ZM326.484 123.64C326.484 122.308 327.636 121.498 329.328 121.498C331.02 121.498 332.172 122.308 332.172 123.64C332.172 124.972 331.02 125.782 329.328 125.782C327.636 125.782 326.484 124.972 326.484 123.64ZM326.25 129.526C326.25 127.996 327.492 127.132 329.328 127.132C331.146 127.132 332.406 127.996 332.406 129.526C332.406 131.056 331.146 131.902 329.328 131.902C327.492 131.902 326.25 131.056 326.25 129.526Z" fill="white"/>
<rect x="217" y="207" width="98" height="98" fill="#2E2E2E" stroke="white" stroke-width="2"/>
<path d="M246.46 250.044V250.98H250.636V250.188C250.636 246.804 252.76 245.148 255.856 245.148C258.556 245.148 260.5 246.696 260.5 249.396C260.5 252.636 258.124 253.896 254.236 255.084C249.628 256.452 246.532 258.576 246.532 263.22V267H264.424V263.184H250.744V262.788C250.744 260.16 252.58 259.368 256.108 258.324C261.184 256.848 264.676 254.724 264.676 249.54C264.676 244.5 260.752 241.296 255.82 241.296C250.528 241.296 246.46 244.464 246.46 250.044ZM267.414 251.52V257.28C267.414 263.832 271.158 267.504 276.954 267.504C282.75 267.504 286.494 263.832 286.494 257.28V251.52C286.494 245.076 282.678 241.296 276.954 241.296C271.158 241.296 267.414 245.076 267.414 251.52ZM271.59 251.412C271.59 247.488 273.462 245.112 276.954 245.112C280.41 245.112 282.318 247.416 282.318 251.412V257.388C282.318 261.312 280.59 263.688 276.954 263.688C273.39 263.688 271.59 261.384 271.59 257.388V251.412Z" fill="#FE6A6A"/>
<path d="M229.708 218.4L226.108 223.836H227.782L230.338 219.84H230.554V231H232.03L232.048 218.4H229.708ZM234.39 223.296V226.104C234.39 229.398 236.118 231.252 239.016 231.252C241.896 231.252 243.624 229.398 243.624 226.104V223.296C243.624 220.002 241.86 218.148 239.016 218.148C236.118 218.148 234.39 220.002 234.39 223.296ZM235.866 223.242C235.866 220.866 236.91 219.498 239.016 219.498C241.104 219.498 242.148 220.866 242.148 223.242V226.158C242.148 228.534 241.104 229.902 239.016 229.902C236.91 229.902 235.866 228.534 235.866 226.158V223.242Z" fill="white"/>
<rect x="315" y="207" width="98" height="98" fill="#2E2E2E" stroke="white" stroke-width="2"/>
<path d="M352.954 241.8L346.186 252.996H350.65L354.754 245.976H355.186V267H359.362V241.8H352.954ZM363.414 248.1C363.414 251.412 365.646 252.96 367.554 253.716V254.148C365.574 254.688 363.018 256.632 363.018 260.196C363.018 264.552 366.906 267.504 372.342 267.504C377.778 267.504 381.666 264.552 381.666 260.196C381.666 256.632 379.11 254.688 377.13 254.148V253.716C379.074 252.96 381.27 251.412 381.27 248.1C381.27 244.104 377.706 241.296 372.342 241.296C366.978 241.296 363.414 244.104 363.414 248.1ZM367.59 248.604C367.59 246.48 369.462 245.148 372.342 245.148C375.222 245.148 377.094 246.48 377.094 248.604C377.094 250.728 375.222 252.06 372.342 252.06C369.462 252.06 367.59 250.728 367.59 248.604ZM367.194 259.764C367.194 257.424 369.138 255.912 372.342 255.912C375.582 255.912 377.49 257.424 377.49 259.764C377.49 262.104 375.582 263.652 372.342 263.652C369.138 263.652 367.194 262.104 367.194 259.764Z" fill="#FE6A6A"/>
<path d="M327.708 218.4L324.108 223.836H325.782L328.338 219.84H328.554V231H330.03L330.048 218.4H327.708ZM335.126 218.4L331.526 223.836H333.2L335.756 219.84H335.972V231H337.448L337.466 218.4H335.126Z" fill="white"/>
<rect x="119" y="11" width="98" height="98" fill="#2E2E2E" stroke="white" stroke-width="2"/>
<path d="M157.057 45.8L149.605 71H153.961L155.617 65.204H165.121L166.777 71H171.133L163.717 45.8H157.057ZM156.697 61.352L160.153 49.364H160.585L164.077 61.352H156.697ZM171.965 53.144V56.6H176.681V67.76C176.681 69.668 178.049 71 179.921 71H184.673V67.544H181.613C180.965 67.544 180.641 67.22 180.641 66.5V56.6H185.681V53.144H180.641V47.42H176.681V53.144H171.965Z" fill="#D0D0D0"/>
<path d="M128.882 26.432V26.9H130.358V26.522C130.358 24.578 131.528 23.498 133.436 23.498C135.056 23.498 136.244 24.47 136.244 26.144C136.244 27.962 134.948 28.754 132.806 29.384C130.412 30.086 128.864 31.04 128.864 33.542V35H137.648V33.65H130.358V33.362C130.358 31.634 131.438 31.184 133.454 30.572C135.92 29.816 137.72 28.736 137.72 26.198C137.72 23.768 135.938 22.148 133.436 22.148C130.772 22.148 128.882 23.786 128.882 26.432Z" fill="white"/>
<rect x="217" y="11" width="98" height="98" fill="#2E2E2E" stroke="white" stroke-width="2"/>
<path d="M258.805 45.8V71H275.329V67.148H262.981V60.236H274.141V56.42H262.981V49.652H275.149V45.8H258.805Z" fill="#D0D0D0"/>
<path d="M227.026 22.4V23.768H233.56L229.636 27.224V28.61H231.436C232.966 28.61 234.226 29.51 234.226 31.166C234.226 32.732 233.074 33.902 231.292 33.902C229.366 33.902 228.142 32.84 228.142 30.95V30.23H226.666V31.004C226.666 33.614 228.574 35.252 231.31 35.252C233.758 35.252 235.702 33.596 235.702 31.202C235.702 28.88 234.064 27.44 231.976 27.44H231.526V27.242L235.576 23.714V22.4H227.026Z" fill="white"/>
<rect x="413" y="11" width="98" height="98" fill="#2E2E2E" stroke="white" stroke-width="2"/>
<path d="M444.492 55.664V61.136C444.492 67.688 448.308 71.504 454.572 71.504C460.872 71.504 464.652 67.688 464.652 61.136V55.664C464.652 49.184 460.8 45.296 454.572 45.296C448.308 45.296 444.492 49.184 444.492 55.664ZM448.668 55.556C448.668 51.596 450.684 49.112 454.572 49.112C458.424 49.112 460.476 51.524 460.476 55.556V61.244C460.476 65.204 458.64 67.688 454.572 67.688C450.576 67.688 448.668 65.276 448.668 61.244V55.556ZM466.761 53.144V56.6H471.477V71H475.437V56.6H480.297V53.144H475.437V50.3C475.437 49.58 475.761 49.256 476.409 49.256H479.361V45.8H474.789C472.845 45.8 471.477 47.204 471.477 49.184V53.144H466.761Z" fill="#D0D0D0"/>
<path d="M427.868 22.4L422.396 31.202V32.498H428.912V35H430.388V32.498H432.548V31.148H430.388V22.4H427.868ZM428.696 23.624H428.912V31.148H424.034L428.696 23.624Z" fill="white"/>
<rect x="21" y="11" width="98" height="98" fill="#2E2E2E" stroke="white" stroke-width="2"/>
<path d="M62.2208 45.296C57.4328 45.296 53.6168 48.032 53.6168 52.424C53.6168 57.068 56.7128 58.796 61.6808 59.876L62.6528 60.092C65.9288 60.776 67.6568 61.604 67.6568 63.908C67.6568 66.032 65.9288 67.76 62.7248 67.76C58.7648 67.76 56.7128 65.6 56.7128 62.072V61.352H52.5728V62.324C52.5728 68.048 56.4968 71.504 62.6528 71.504C67.9088 71.504 71.7968 68.624 71.7968 63.764C71.7968 59.3 68.8448 57.392 63.9128 56.312L62.9408 56.096C59.6288 55.34 57.7568 54.692 57.7568 52.352C57.7568 50.408 59.5568 49.04 62.2208 49.04C65.3168 49.04 67.3688 50.516 67.3688 53.576V54.368H71.4728V53.252C71.4728 48.14 67.5128 45.296 62.2208 45.296ZM73.7894 53.144V56.6H78.5054V67.76C78.5054 69.668 79.8734 71 81.7454 71H86.4974V67.544H83.4374C82.7894 67.544 82.4654 67.22 82.4654 66.5V56.6H87.5054V53.144H82.4654V47.42H78.5054V53.144H73.7894Z" fill="#D0D0D0"/>
<path d="M33.708 22.4L30.108 27.836H31.782L34.338 23.84H34.554V35H36.03L36.048 22.4H33.708Z" fill="white"/>
</g>
<defs>
<filter id="filter0_d" x="0" y="0" width="532" height="336" filterUnits="userSpaceOnUse" color-interpolation-filters="sRGB">
<feFlood flood-opacity="0" result="BackgroundImageFix"/>
<feColorMatrix in="SourceAlpha" type="matrix" values="0 0 0 0 0 0 0 0 0 0 0 0 0 0 0 0 0 0 127 0"/>
<feOffset dy="10"/>
<feGaussianBlur stdDeviation="10"/>
<feColorMatrix type="matrix" values="0 0 0 0 0 0 0 0 0 0 0 0 0 0 0 0 0 0 0.6 0"/>
<feBlend mode="normal" in2="BackgroundImageFix" result="effect1_dropShadow"/>
<feBlend mode="normal" in="SourceGraphic" in2="effect1_dropShadow" result="shape"/>
</filter>
</defs>
</svg>
