<?xml version="1.0" encoding="utf-8"?>
<!-- Generator: Adobe Illustrator 19.1.0, SVG Export Plug-In . SVG Version: 6.00 Build 0)  -->
<svg version="1.1" id="Слой_1" xmlns="http://www.w3.org/2000/svg" xmlns:xlink="http://www.w3.org/1999/xlink" x="0px" y="0px"
	 width="32px" height="33px" viewBox="-179.6 184.3 32 33" style="enable-background:new -179.6 184.3 32 33;" xml:space="preserve"
	>
<style type="text/css">
	.st0{fill:#FFFFFF;}
	.st1{fill:#FCFBFA;}
	.st2{fill:#252526;}
	.st3{fill:#E0E0E0;}
	.st4{fill:#56555C;}
</style>
<g id="Layer_2">
</g>
<path class="st0" d="M-163.6,217.3c-1.8,0-3.5-0.4-5.1-1c-1.6-0.7-3-1.6-4.1-2.9c-1.2-1.2-2.1-2.6-2.7-4.2c-0.2-0.6-0.4-1.2-0.6-1.9
	h-0.1l-0.1-1c-1.2-0.5-2.1-1.7-2.4-2.8c-0.4-1.4-0.8-3.5-0.9-5.4c0-1.5,0.8-2.9,2.2-3.5c0.9-0.4,2.2-0.8,3.7-1c1-2.1,2.1-4,3.3-5.4
	c2.1-2.5,4.4-3.8,6.8-3.8c2.4,0,4.7,1.3,6.8,3.8c1.2,1.4,2.3,3.2,3.2,5.4c1.5,0.3,2.8,0.6,3.8,1c1.4,0.6,2.2,2,2.2,3.5
	c-0.1,2.2-0.6,4.6-0.9,5.5c-0.3,1.2-1.2,2.4-2.4,2.8l-0.1,1h-0.1c-0.1,0.6-0.3,1.3-0.6,1.9c-0.6,1.6-1.5,3-2.7,4.2
	c-1.2,1.2-2.6,2.2-4.1,2.9C-160.1,217-161.8,217.3-163.6,217.3z"/>
<g>
	<path class="st1" d="M-163.7,186.8c5.7,0,10.3,12.2,10.3,17.9c0,5.7-4.6,10.3-10.3,10.3c-5.7,0-10.3-4.6-10.3-10.3
		C-174,199-169.4,186.8-163.7,186.8z"/>
	<g>
		<path class="st2" d="M-150.6,196.6l-4.2,1.5c0,0,0.6,2,0.7,2c0,0,4.2-0.5,4.2-0.5L-150.6,196.6z"/>
		<path class="st2" d="M-176.7,196.6l4.2,1.5c0,0-0.6,2-0.7,2c0,0-4.2-0.5-4.2-0.5L-176.7,196.6z"/>
	</g>
	<path class="st3" d="M-168,196.3c1.1,0,1.3,0.9,1.3,1.1c0.1,0.6,0.2,1.4,0.3,2.2c0,0.2,0,0.4-0.1,0.6c-0.1-0.5-0.1-1-0.2-1.5
		c0-0.2-0.3-1.1-1.3-1.1c-0.6,0-2.7,0.1-4.7,0.4c0.1-0.5,0.3-0.9,0.5-1.4C-170.4,196.3-168.6,196.2-168,196.3z"/>
	<path class="st3" d="M-153.4,204.2c-3.7-0.2-6.9-1.4-7.6-1.8c-0.6-0.3-1.3-0.8-1.5-2.2c-0.1,1.6,0.2,3,1.6,3.7
		c0.1,0.1,2.9,1.4,7.4,1.7c0-0.3,0-0.6,0-0.9C-153.4,204.5-153.4,204.3-153.4,204.2z"/>
	<path class="st3" d="M-173.9,204.2c3.7-0.2,6.9-1.4,7.6-1.8c0.6-0.3,1.3-0.8,1.5-2.2c0.1,1.6-0.2,3-1.6,3.7
		c-0.1,0.1-2.9,1.4-7.4,1.7c0-0.3,0-0.6,0-0.9C-173.9,204.5-173.9,204.3-173.9,204.2z"/>
	<path class="st3" d="M-159.4,196.3c-1.1,0-1.3,0.9-1.3,1.1c-0.1,0.6-0.2,1.4-0.3,2.2c0,0.2,0,0.4,0.1,0.6c0.1-0.5,0.1-1,0.2-1.5
		c0-0.2,0.3-1.1,1.3-1.1c0.6,0,2.7,0.1,4.7,0.4c-0.1-0.5-0.3-0.9-0.5-1.4C-157,196.3-158.8,196.2-159.4,196.3z"/>
	<path class="st4" d="M-172.7,195.1c1-2.4,2.2-4.6,3.5-6.1c1.7-2.1,3.6-3.2,5.5-3.2c1.9,0,3.7,1.1,5.5,3.2c1.3,1.6,2.5,3.7,3.5,6.1
		l0,0.1l-0.1,0c-0.4,0-0.6-0.1-1-0.1l0,0l0,0c-1.1-2.7-3.1-6.1-5.6-7.6c-0.8-0.4-1.5-0.7-2.3-0.7s-1.5,0.2-2.3,0.7
		c-2.5,1.4-4.4,4.9-5.6,7.6l0,0l0,0c-0.4,0-0.6,0.1-1,0.1l-0.1,0L-172.7,195.1z"/>
	<path class="st4" d="M-153.3,202.9c-0.3,0-0.6,0-0.8,0l-0.1,0l0-0.1c-0.2-2-0.8-4.2-1.6-6.4l-0.1-0.2l0.2,0c0.3,0,0.6,0.1,0.9,0.1
		l0.1,0l0,0.1c0.7,2.2,1.3,4.5,1.5,6.4l0,0.1L-153.3,202.9z"/>
	<path class="st2" d="M-154.2,198c-0.2-0.5-0.3-1-0.5-1.5l0-0.1l-0.1,0c-0.3-0.1-0.6-0.1-0.9-0.1l-0.2,0l0.1,0.2
		c0.2,0.5,0.3,1,0.5,1.5C-154.8,197.9-154.5,197.9-154.2,198z"/>
	<path class="st4" d="M-174.1,202.7c0.2-1.9,0.8-4.2,1.5-6.4l0-0.1l0.1,0c0.3,0,0.6-0.1,0.9-0.1l0.2,0l-0.1,0.2
		c-0.8,2.2-1.3,4.5-1.6,6.4l0,0.1l-0.1,0c-0.3,0-0.6,0-0.8,0l-0.1,0L-174.1,202.7z"/>
	<path class="st2" d="M-172.5,196.3L-172.5,196.3L-172.5,196.3c-0.3,0.6-0.4,1.1-0.6,1.6c0.5-0.1,0.7-0.1,1.1-0.1
		c0.2-0.5,0.3-1,0.5-1.5l0.1-0.2l-0.2,0C-171.9,196.2-172.2,196.3-172.5,196.3z"/>
	<path class="st4" d="M-163.7,215.9c-1.5,0-3-0.3-4.4-0.9c-1.4-0.6-2.6-1.4-3.6-2.5c-1-1.1-1.8-2.3-2.4-3.7c-0.6-1.4-0.8-3-0.8-4.6
		l0-0.1l0.1,0c0.4,0,0.6,0,0.9,0l0.1,0l0,0.1c-0.1,1.5,0.2,2.8,0.7,4.2c0.5,1.3,1.2,2.4,2.1,3.4c0.9,1,2.1,1.8,3.3,2.3
		c1.3,0.6,2.6,0.8,4,0.8c1.4,0,2.8-0.3,4-0.8c1.2-0.5,2.4-1.3,3.3-2.3c0.9-1,1.7-2.1,2.1-3.4c0.5-1.3,0.7-2.7,0.7-4.2l0-0.1l0.1,0
		c0.4,0,0.6,0,0.9,0l0.1,0l0,0.1c0.1,1.6-0.2,3.1-0.8,4.6c-0.5,1.4-1.3,2.6-2.4,3.7c-1,1.1-2.3,1.9-3.6,2.5
		C-160.6,215.5-162.1,215.9-163.7,215.9z"/>
	<path class="st2" d="M-173.8,205.5c0-0.4,0-0.9,0-1.3l0-0.1l-0.1,0c-0.3,0-0.5,0-0.9,0l-0.1,0l0,0.1c0,0.5,0,0.9,0,1.3l0,0
		C-174.5,205.5-174.1,205.5-173.8,205.5L-173.8,205.5z"/>
	<path class="st2" d="M-152.5,204.1L-152.5,204.1c-0.3,0-0.6,0-0.9,0l-0.1,0l0,0.1c0,0.5,0,0.9,0,1.3l1,0
		C-152.5,205.1-152.5,204.6-152.5,204.1L-152.5,204.1z"/>
	<path class="st2" d="M-151.9,205c-2.3,0-4.4-0.6-6.4-1.1c-1-0.3-1.9-0.8-2.6-1.1l0-0.1c-1.7-0.8-1.8-2.6-1.7-4.1
		c0-0.4-0.1-0.9-0.5-1.2c-0.2-0.1-0.4-0.2-0.6-0.2c-0.2,0-0.5,0.1-0.6,0.2c-0.4,0.3-0.5,0.8-0.5,1.2c0.2,1.5,0.1,3.2-1.7,4l0,0
		c-0.7,0.3-1.6,1-2.6,1.3c-2,0.5-4.1,1.1-6.4,1.1h0c-0.9,0-1.7-0.9-1.9-1.8c-0.3-1.3-0.8-3.4-0.8-5.2c0-0.7,0.4-1.5,1.1-1.8
		c2.4-1.1,7.3-1.5,9.4-1.5c0.8,0,1.4,0.3,1.9,0.8c0.7-0.3,1.4-0.5,2.1-0.5c0.7,0,1.4,0.2,2.1,0.5c0.4-0.4,1-0.8,1.9-0.8
		c1.2,0,6.6,0.2,9.4,1.4c0.7,0.3,1.1,1,1.1,1.7c-0.1,1.8-0.5,4.1-0.8,5.4C-150.2,204.1-151,205-151.9,205L-151.9,205z M-159.4,196.3
		c-1,0-1.2,0.9-1.3,1c-0.1,0.5-0.2,1.3-0.3,2.2c0,0.8,0.3,1.4,0.9,1.7c2.2,1,4.8,1.5,7.8,1.5c0.2,0,0.4-0.2,0.5-0.4
		c0.3-1.1,0.7-2.8,0.7-4.4c0-0.1-0.1-0.3-0.2-0.3C-153.2,196.6-157.7,196.3-159.4,196.3z M-176.2,197.6c-0.1,0.1-0.2,0.2-0.2,0.3
		c0,1.6,0.4,3.3,0.7,4.4c0.1,0.2,0.3,0.4,0.5,0.4c3.1,0,5.6-0.5,7.8-1.5c0.6-0.3,0.9-0.9,0.9-1.7c0-0.7-0.1-1.4-0.3-2.2
		c0-0.2-0.2-1-1.3-1C-168.9,196.3-173.8,196.5-176.2,197.6z"/>
</g>
</svg>
