<svg width="492" height="326" viewBox="0 0 492 326" fill="none" xmlns="http://www.w3.org/2000/svg">
<rect x="99" y="99" width="98" height="98" stroke="white" stroke-width="2"/>
<path d="M128.665 133.8L136.045 159H142.633L149.977 133.8H145.585L139.573 155.22H139.069L133.057 133.8H128.665ZM150.102 145.5L153.414 147.372C154.386 145.392 155.97 144.096 158.598 144.096C161.262 144.096 162.738 145.464 162.738 147.516V147.984L155.898 148.704C151.974 149.1 149.742 150.972 149.742 153.996C149.742 157.308 152.37 159.504 156.366 159.504C160.11 159.504 161.694 157.704 162.27 156.516H162.774V159H166.662V147.624C166.662 143.412 163.566 140.64 158.742 140.64C154.422 140.64 151.794 142.8 150.102 145.5ZM153.846 153.816C153.846 152.376 155.07 151.728 156.942 151.512L162.738 150.9V151.296C162.738 154.032 160.866 156.228 157.194 156.228C155.034 156.228 153.846 155.256 153.846 153.816Z" fill="#72D7D1"/>
<path d="M117.864 118.896C117.864 116.304 116.01 114.594 113.832 114.594C111.996 114.594 111.114 115.494 110.664 116.25H110.448V114.45C110.448 112.668 111.582 111.498 113.49 111.498C115.362 111.498 116.244 112.506 116.244 114.036H117.72C117.72 111.768 116.136 110.148 113.49 110.148C110.79 110.148 108.972 111.93 108.972 114.522V118.914C108.972 121.524 110.898 123.252 113.4 123.252C115.938 123.252 117.864 121.488 117.864 118.896ZM113.4 115.872C115.182 115.872 116.388 117.096 116.388 118.896C116.388 120.696 115.182 121.902 113.4 121.902C111.654 121.902 110.448 120.696 110.448 118.896C110.448 117.096 111.654 115.872 113.4 115.872Z" fill="white"/>
<rect x="197" y="99" width="98" height="98" stroke="white" stroke-width="2"/>
<path d="M236.242 133.296C231.454 133.296 227.638 136.032 227.638 140.424C227.638 145.068 230.734 146.796 235.702 147.876L236.674 148.092C239.95 148.776 241.678 149.604 241.678 151.908C241.678 154.032 239.95 155.76 236.746 155.76C232.786 155.76 230.734 153.6 230.734 150.072V149.352H226.594V150.324C226.594 156.048 230.518 159.504 236.674 159.504C241.93 159.504 245.818 156.624 245.818 151.764C245.818 147.3 242.866 145.392 237.934 144.312L236.962 144.096C233.65 143.34 231.778 142.692 231.778 140.352C231.778 138.408 233.578 137.04 236.242 137.04C239.338 137.04 241.39 138.516 241.39 141.576V142.368H245.494V141.252C245.494 136.14 241.534 133.296 236.242 133.296ZM248.603 150.072C248.603 155.58 252.599 159.504 257.855 159.504C262.967 159.504 265.811 156.372 266.639 152.664L262.751 151.764C262.283 154.032 260.951 155.868 257.891 155.868C254.723 155.868 252.563 153.564 252.563 150.072C252.563 146.58 254.795 144.276 257.855 144.276C260.807 144.276 262.427 146.112 262.715 148.38L266.603 147.48C265.775 143.484 262.679 140.64 257.819 140.64C252.599 140.64 248.603 144.564 248.603 150.072Z" fill="#72D7D1"/>
<path d="M206.342 110.4V111.768H213.722L208.538 123H210.158L215.378 111.696V110.4H206.342Z" fill="white"/>
<rect x="1" y="99" width="98" height="98" stroke="white" stroke-width="2"/>
<path d="M47.9025 133.8H43.7265V151.44C43.7265 154.032 42.5385 155.616 39.8025 155.616C36.9945 155.616 35.5905 153.996 35.5905 151.44V149.208H31.4145V151.44C31.4145 156.552 34.6185 159.504 39.9105 159.504C45.0225 159.504 47.9025 156.66 47.9025 151.44V133.8ZM51.8212 145.5L55.1332 147.372C56.1052 145.392 57.6892 144.096 60.3172 144.096C62.9812 144.096 64.4572 145.464 64.4572 147.516V147.984L57.6172 148.704C53.6932 149.1 51.4612 150.972 51.4612 153.996C51.4612 157.308 54.0892 159.504 58.0852 159.504C61.8292 159.504 63.4132 157.704 63.9892 156.516H64.4932V159H68.3812V147.624C68.3812 143.412 65.2852 140.64 60.4612 140.64C56.1412 140.64 53.5132 142.8 51.8212 145.5ZM55.5652 153.816C55.5652 152.376 56.7892 151.728 58.6612 151.512L64.4572 150.9V151.296C64.4572 154.032 62.5852 156.228 58.9132 156.228C56.7532 156.228 55.5652 155.256 55.5652 153.816Z" fill="#72D7D1"/>
<path d="M11.278 110.4V117.132H13.528C13.816 116.592 14.41 115.836 15.742 115.836C17.326 115.836 18.388 116.916 18.388 118.734C18.388 120.678 17.29 121.902 15.382 121.902C13.456 121.902 12.268 120.768 12.268 118.824V118.554H10.81V118.878C10.81 121.542 12.664 123.252 15.382 123.252C18.1 123.252 19.882 121.326 19.882 118.734C19.882 116.178 18.208 114.522 16.03 114.522C14.248 114.522 13.42 115.332 12.952 116.196H12.736V111.75H19.54V110.4H11.278Z" fill="white"/>
<rect x="393" y="99" width="98" height="98" stroke="white" stroke-width="2"/>
<path d="M426.701 133.8V159H430.877V149.352H436.781C441.353 149.352 444.701 146.256 444.701 141.576C444.701 136.86 441.461 133.8 436.781 133.8H426.701ZM430.877 137.688H436.349C438.977 137.688 440.525 139.128 440.525 141.576C440.525 144.024 438.941 145.464 436.349 145.464H430.877V137.688ZM445.885 141.144V144.6H450.601V155.76C450.601 157.668 451.969 159 453.841 159H458.593V155.544H455.533C454.885 155.544 454.561 155.22 454.561 154.5V144.6H459.601V141.144H454.561V135.42H450.601V141.144H445.885Z" fill="#72D7D1"/>
<path d="M402.72 114.504C402.72 117.096 404.574 118.806 406.752 118.806C408.588 118.806 409.488 117.906 409.92 117.15H410.136V118.95C410.136 120.732 409.002 121.902 407.112 121.902C405.24 121.902 404.358 120.894 404.358 119.364H402.882C402.882 121.632 404.448 123.252 407.112 123.252C409.794 123.252 411.612 121.47 411.612 118.878V114.486C411.612 111.876 409.686 110.148 407.184 110.148C404.646 110.148 402.72 111.912 402.72 114.504ZM407.184 117.528C405.402 117.528 404.196 116.304 404.196 114.504C404.196 112.704 405.402 111.498 407.184 111.498C408.93 111.498 410.136 112.704 410.136 114.504C410.136 116.304 408.93 117.528 407.184 117.528Z" fill="white"/>
<rect x="295" y="99" width="98" height="98" stroke="white" stroke-width="2"/>
<path d="M349.628 141.504C349.628 136.86 346.388 133.8 341.708 133.8H330.908V159H335.084V149.172H339.656L344.66 159H349.268L343.904 148.92C347.324 148.092 349.628 145.356 349.628 141.504ZM335.084 137.688H341.276C343.904 137.688 345.452 139.092 345.452 141.504C345.452 143.88 343.868 145.284 341.276 145.284H335.084V137.688ZM352.187 135.96C352.187 137.616 353.519 138.84 355.175 138.84C356.831 138.84 358.127 137.616 358.127 135.96C358.127 134.268 356.831 133.08 355.175 133.08C353.519 133.08 352.187 134.268 352.187 135.96ZM357.155 141.144H353.195V159H357.155V141.144Z" fill="#72D7D1"/>
<path d="M305.008 113.514C305.008 115.26 306.286 116.052 307.186 116.34V116.556C306.25 116.754 304.774 117.69 304.774 119.634C304.774 121.776 306.628 123.252 309.328 123.252C312.01 123.252 313.882 121.776 313.882 119.634C313.882 117.69 312.406 116.754 311.452 116.556V116.34C312.352 116.052 313.648 115.26 313.648 113.514C313.648 111.534 311.956 110.148 309.328 110.148C306.682 110.148 305.008 111.534 305.008 113.514ZM306.484 113.64C306.484 112.308 307.636 111.498 309.328 111.498C311.02 111.498 312.172 112.308 312.172 113.64C312.172 114.972 311.02 115.782 309.328 115.782C307.636 115.782 306.484 114.972 306.484 113.64ZM306.25 119.526C306.25 117.996 307.492 117.132 309.328 117.132C311.146 117.132 312.406 117.996 312.406 119.526C312.406 121.056 311.146 121.902 309.328 121.902C307.492 121.902 306.25 121.056 306.25 119.526Z" fill="white"/>
<rect x="197" y="227" width="98" height="98" stroke="white" stroke-width="2"/>
<path d="M226.46 270.044V270.98H230.636V270.188C230.636 266.804 232.76 265.148 235.856 265.148C238.556 265.148 240.5 266.696 240.5 269.396C240.5 272.636 238.124 273.896 234.236 275.084C229.628 276.452 226.532 278.576 226.532 283.22V287H244.424V283.184H230.744V282.788C230.744 280.16 232.58 279.368 236.108 278.324C241.184 276.848 244.676 274.724 244.676 269.54C244.676 264.5 240.752 261.296 235.82 261.296C230.528 261.296 226.46 264.464 226.46 270.044ZM247.414 271.52V277.28C247.414 283.832 251.158 287.504 256.954 287.504C262.75 287.504 266.494 283.832 266.494 277.28V271.52C266.494 265.076 262.678 261.296 256.954 261.296C251.158 261.296 247.414 265.076 247.414 271.52ZM251.59 271.412C251.59 267.488 253.462 265.112 256.954 265.112C260.41 265.112 262.318 267.416 262.318 271.412V277.388C262.318 281.312 260.59 283.688 256.954 283.688C253.39 283.688 251.59 281.384 251.59 277.388V271.412Z" fill="#FE6A6A"/>
<path d="M209.708 238.4L206.108 243.836H207.782L210.338 239.84H210.554V251H212.03L212.048 238.4H209.708ZM214.3 242.432V242.9H215.776V242.522C215.776 240.578 216.946 239.498 218.854 239.498C220.474 239.498 221.662 240.47 221.662 242.144C221.662 243.962 220.366 244.754 218.224 245.384C215.83 246.086 214.282 247.04 214.282 249.542V251H223.066V249.65H215.776V249.362C215.776 247.634 216.856 247.184 218.872 246.572C221.338 245.816 223.138 244.736 223.138 242.198C223.138 239.768 221.356 238.148 218.854 238.148C216.19 238.148 214.3 239.786 214.3 242.432Z" fill="white"/>
<rect x="295" y="227" width="98" height="98" stroke="white" stroke-width="2"/>
<path d="M332.954 261.8L326.186 272.996H330.65L334.754 265.976H335.186V287H339.362V261.8H332.954ZM343.414 268.1C343.414 271.412 345.646 272.96 347.554 273.716V274.148C345.574 274.688 343.018 276.632 343.018 280.196C343.018 284.552 346.906 287.504 352.342 287.504C357.778 287.504 361.666 284.552 361.666 280.196C361.666 276.632 359.11 274.688 357.13 274.148V273.716C359.074 272.96 361.27 271.412 361.27 268.1C361.27 264.104 357.706 261.296 352.342 261.296C346.978 261.296 343.414 264.104 343.414 268.1ZM347.59 268.604C347.59 266.48 349.462 265.148 352.342 265.148C355.222 265.148 357.094 266.48 357.094 268.604C357.094 270.728 355.222 272.06 352.342 272.06C349.462 272.06 347.59 270.728 347.59 268.604ZM347.194 279.764C347.194 277.424 349.138 275.912 352.342 275.912C355.582 275.912 357.49 277.424 357.49 279.764C357.49 282.104 355.582 283.652 352.342 283.652C349.138 283.652 347.194 282.104 347.194 279.764Z" fill="#FE6A6A"/>
<path d="M307.708 238.4L304.108 243.836H305.782L308.338 239.84H308.554V251H310.03L310.048 238.4H307.708ZM312.444 238.4V239.768H318.978L315.054 243.224V244.61H316.854C318.384 244.61 319.644 245.51 319.644 247.166C319.644 248.732 318.492 249.902 316.71 249.902C314.784 249.902 313.56 248.84 313.56 246.95V246.23H312.084V247.004C312.084 249.614 313.992 251.252 316.728 251.252C319.176 251.252 321.12 249.596 321.12 247.202C321.12 244.88 319.482 243.44 317.394 243.44H316.944V243.242L320.994 239.714V238.4H312.444Z" fill="white"/>
<rect x="99" y="1" width="98" height="98" stroke="white" stroke-width="2"/>
<path d="M137.057 35.8L129.605 61H133.961L135.617 55.204H145.121L146.777 61H151.133L143.717 35.8H137.057ZM136.697 51.352L140.153 39.364H140.585L144.077 51.352H136.697ZM151.965 43.144V46.6H156.681V57.76C156.681 59.668 158.049 61 159.921 61H164.673V57.544H161.613C160.965 57.544 160.641 57.22 160.641 56.5V46.6H165.681V43.144H160.641V37.42H156.681V43.144H151.965Z" fill="#D0D0D0"/>
<path d="M108.882 16.432V16.9H110.358V16.522C110.358 14.578 111.528 13.498 113.436 13.498C115.056 13.498 116.244 14.47 116.244 16.144C116.244 17.962 114.948 18.754 112.806 19.384C110.412 20.086 108.864 21.04 108.864 23.542V25H117.648V23.65H110.358V23.362C110.358 21.634 111.438 21.184 113.454 20.572C115.92 19.816 117.72 18.736 117.72 16.198C117.72 13.768 115.938 12.148 113.436 12.148C110.772 12.148 108.882 13.786 108.882 16.432Z" fill="white"/>
<rect x="197" y="1" width="98" height="98" stroke="white" stroke-width="2"/>
<path d="M238.805 35.8V61H255.329V57.148H242.981V50.236H254.141V46.42H242.981V39.652H255.149V35.8H238.805Z" fill="#D0D0D0"/>
<path d="M207.026 12.4V13.768H213.56L209.636 17.224V18.61H211.436C212.966 18.61 214.226 19.51 214.226 21.166C214.226 22.732 213.074 23.902 211.292 23.902C209.366 23.902 208.142 22.84 208.142 20.95V20.23H206.666V21.004C206.666 23.614 208.574 25.252 211.31 25.252C213.758 25.252 215.702 23.596 215.702 21.202C215.702 18.88 214.064 17.44 211.976 17.44H211.526V17.242L215.576 13.714V12.4H207.026Z" fill="white"/>
<rect x="393" y="1" width="98" height="98" stroke="white" stroke-width="2"/>
<path d="M424.492 45.664V51.136C424.492 57.688 428.308 61.504 434.572 61.504C440.872 61.504 444.652 57.688 444.652 51.136V45.664C444.652 39.184 440.8 35.296 434.572 35.296C428.308 35.296 424.492 39.184 424.492 45.664ZM428.668 45.556C428.668 41.596 430.684 39.112 434.572 39.112C438.424 39.112 440.476 41.524 440.476 45.556V51.244C440.476 55.204 438.64 57.688 434.572 57.688C430.576 57.688 428.668 55.276 428.668 51.244V45.556ZM446.761 43.144V46.6H451.477V61H455.437V46.6H460.297V43.144H455.437V40.3C455.437 39.58 455.761 39.256 456.409 39.256H459.361V35.8H454.789C452.845 35.8 451.477 37.204 451.477 39.184V43.144H446.761Z" fill="#D0D0D0"/>
<path d="M407.868 12.4L402.396 21.202V22.498H408.912V25H410.388V22.498H412.548V21.148H410.388V12.4H407.868ZM408.696 13.624H408.912V21.148H404.034L408.696 13.624Z" fill="white"/>
<rect x="1" y="1" width="98" height="98" stroke="white" stroke-width="2"/>
<path d="M42.2208 35.296C37.4328 35.296 33.6168 38.032 33.6168 42.424C33.6168 47.068 36.7128 48.796 41.6808 49.876L42.6528 50.092C45.9288 50.776 47.6568 51.604 47.6568 53.908C47.6568 56.032 45.9288 57.76 42.7248 57.76C38.7648 57.76 36.7128 55.6 36.7128 52.072V51.352H32.5728V52.324C32.5728 58.048 36.4968 61.504 42.6528 61.504C47.9088 61.504 51.7968 58.624 51.7968 53.764C51.7968 49.3 48.8448 47.392 43.9128 46.312L42.9408 46.096C39.6288 45.34 37.7568 44.692 37.7568 42.352C37.7568 40.408 39.5568 39.04 42.2208 39.04C45.3168 39.04 47.3688 40.516 47.3688 43.576V44.368H51.4728V43.252C51.4728 38.14 47.5128 35.296 42.2208 35.296ZM53.7894 43.144V46.6H58.5054V57.76C58.5054 59.668 59.8734 61 61.7454 61H66.4974V57.544H63.4374C62.7894 57.544 62.4654 57.22 62.4654 56.5V46.6H67.5054V43.144H62.4654V37.42H58.5054V43.144H53.7894Z" fill="#D0D0D0"/>
<path d="M13.708 12.4L10.108 17.836H11.782L14.338 13.84H14.554V25H16.03L16.048 12.4H13.708Z" fill="white"/>
</svg>
