<svg width="3516" height="2406" viewBox="0 0 3516 2406" fill="none" xmlns="http://www.w3.org/2000/svg">
<rect x="874" y="898" width="298" height="298" stroke="white" stroke-width="2"/>
<path d="M964.996 1004.4L987.136 1080H1006.9L1028.93 1004.4H1015.76L997.72 1068.66H996.208L978.172 1004.4H964.996ZM1029.31 1039.5L1039.24 1045.12C1042.16 1039.18 1046.91 1035.29 1054.8 1035.29C1062.79 1035.29 1067.22 1039.39 1067.22 1045.55V1046.95L1046.7 1049.11C1034.92 1050.3 1028.23 1055.92 1028.23 1064.99C1028.23 1074.92 1036.11 1081.51 1048.1 1081.51C1059.33 1081.51 1064.08 1076.11 1065.81 1072.55H1067.32V1080H1078.99V1045.87C1078.99 1033.24 1069.7 1024.92 1055.23 1024.92C1042.27 1024.92 1034.38 1031.4 1029.31 1039.5ZM1040.54 1064.45C1040.54 1060.13 1044.21 1058.18 1049.83 1057.54L1067.22 1055.7V1056.89C1067.22 1065.1 1061.6 1071.68 1050.58 1071.68C1044.1 1071.68 1040.54 1068.77 1040.54 1064.45Z" fill="#72D7D1"/>
<path d="M904.026 934.2V938.304H926.166L910.614 972H915.474L931.134 938.088V934.2H904.026Z" fill="white"/>
<rect x="1168" y="898" width="298" height="298" stroke="white" stroke-width="2"/>
<path d="M1287.73 1002.89C1273.36 1002.89 1261.91 1011.1 1261.91 1024.27C1261.91 1038.2 1271.2 1043.39 1286.11 1046.63L1289.02 1047.28C1298.85 1049.33 1304.03 1051.81 1304.03 1058.72C1304.03 1065.1 1298.85 1070.28 1289.24 1070.28C1277.36 1070.28 1271.2 1063.8 1271.2 1053.22V1051.06H1258.78V1053.97C1258.78 1071.14 1270.55 1081.51 1289.02 1081.51C1304.79 1081.51 1316.45 1072.87 1316.45 1058.29C1316.45 1044.9 1307.6 1039.18 1292.8 1035.94L1289.89 1035.29C1279.95 1033.02 1274.33 1031.08 1274.33 1024.06C1274.33 1018.22 1279.73 1014.12 1287.73 1014.12C1297.01 1014.12 1303.17 1018.55 1303.17 1027.73V1030.1H1315.48V1026.76C1315.48 1011.42 1303.6 1002.89 1287.73 1002.89ZM1324.81 1053.22C1324.81 1069.74 1336.8 1081.51 1352.56 1081.51C1367.9 1081.51 1376.43 1072.12 1378.92 1060.99L1367.25 1058.29C1365.85 1065.1 1361.85 1070.6 1352.67 1070.6C1343.17 1070.6 1336.69 1063.69 1336.69 1053.22C1336.69 1042.74 1343.38 1035.83 1352.56 1035.83C1361.42 1035.83 1366.28 1041.34 1367.14 1048.14L1378.81 1045.44C1376.32 1033.45 1367.04 1024.92 1352.46 1024.92C1336.8 1024.92 1324.81 1036.69 1324.81 1053.22Z" fill="#72D7D1"/>
<path d="M1200.02 943.542C1200.02 948.78 1203.86 951.156 1206.56 952.02V952.668C1203.75 953.262 1199.32 956.07 1199.32 961.902C1199.32 968.328 1204.88 972.756 1212.98 972.756C1221.03 972.756 1226.65 968.328 1226.65 961.902C1226.65 956.07 1222.22 953.262 1219.36 952.668V952.02C1222.06 951.156 1225.94 948.78 1225.94 943.542C1225.94 937.602 1220.87 933.444 1212.98 933.444C1205.05 933.444 1200.02 937.602 1200.02 943.542ZM1204.45 943.92C1204.45 939.924 1207.91 937.494 1212.98 937.494C1218.06 937.494 1221.52 939.924 1221.52 943.92C1221.52 947.916 1218.06 950.346 1212.98 950.346C1207.91 950.346 1204.45 947.916 1204.45 943.92ZM1203.75 961.578C1203.75 956.988 1207.48 954.396 1212.98 954.396C1218.44 954.396 1222.22 956.988 1222.22 961.578C1222.22 966.168 1218.44 968.706 1212.98 968.706C1207.48 968.706 1203.75 966.168 1203.75 961.578Z" fill="white"/>
<rect x="580" y="898" width="298" height="298" stroke="white" stroke-width="2"/>
<path d="M722.708 1004.4H710.18V1057.32C710.18 1065.1 706.616 1069.85 698.408 1069.85C689.984 1069.85 685.772 1064.99 685.772 1057.32V1050.62H673.244V1057.32C673.244 1072.66 682.856 1081.51 698.732 1081.51C714.068 1081.51 722.708 1072.98 722.708 1057.32V1004.4ZM734.464 1039.5L744.4 1045.12C747.316 1039.18 752.068 1035.29 759.952 1035.29C767.944 1035.29 772.372 1039.39 772.372 1045.55V1046.95L751.852 1049.11C740.08 1050.3 733.384 1055.92 733.384 1064.99C733.384 1074.92 741.268 1081.51 753.256 1081.51C764.488 1081.51 769.24 1076.11 770.968 1072.55H772.48V1080H784.144V1045.87C784.144 1033.24 774.856 1024.92 760.384 1024.92C747.424 1024.92 739.54 1031.4 734.464 1039.5ZM745.696 1064.45C745.696 1060.13 749.368 1058.18 754.984 1057.54L772.372 1055.7V1056.89C772.372 1065.1 766.756 1071.68 755.74 1071.68C749.26 1071.68 745.696 1068.77 745.696 1064.45Z" fill="#72D7D1"/>
<path d="M638.592 959.688C638.592 951.912 633.03 946.782 626.496 946.782C620.988 946.782 618.342 949.482 616.992 951.75H616.344V946.35C616.344 941.004 619.746 937.494 625.47 937.494C631.086 937.494 633.732 940.518 633.732 945.108H638.16C638.16 938.304 633.408 933.444 625.47 933.444C617.37 933.444 611.916 938.79 611.916 946.566V959.742C611.916 967.572 617.694 972.756 625.2 972.756C632.814 972.756 638.592 967.464 638.592 959.688ZM625.2 950.616C630.546 950.616 634.164 954.288 634.164 959.688C634.164 965.088 630.546 968.706 625.2 968.706C619.962 968.706 616.344 965.088 616.344 959.688C616.344 954.288 619.962 950.616 625.2 950.616Z" fill="white"/>
<rect x="1756" y="898" width="298" height="298" stroke="white" stroke-width="2"/>
<path d="M1859.1 1004.4V1080H1871.63V1051.06H1889.34C1903.06 1051.06 1913.1 1041.77 1913.1 1027.73C1913.1 1013.58 1903.38 1004.4 1889.34 1004.4H1859.1ZM1871.63 1016.06H1888.05C1895.93 1016.06 1900.58 1020.38 1900.58 1027.73C1900.58 1035.07 1895.82 1039.39 1888.05 1039.39H1871.63V1016.06ZM1916.66 1026.43V1036.8H1930.8V1070.28C1930.8 1076 1934.91 1080 1940.52 1080H1954.78V1069.63H1945.6C1943.66 1069.63 1942.68 1068.66 1942.68 1066.5V1036.8H1957.8V1026.43H1942.68V1009.26H1930.8V1026.43H1916.66Z" fill="#72D7D1"/>
<path d="M1796.12 934.2L1785.32 950.508H1790.35L1798.01 938.52H1798.66V972H1803.09L1803.14 934.2H1796.12ZM1810.17 948.888V957.312C1810.17 967.194 1815.35 972.756 1824.05 972.756C1832.69 972.756 1837.87 967.194 1837.87 957.312V948.888C1837.87 939.006 1832.58 933.444 1824.05 933.444C1815.35 933.444 1810.17 939.006 1810.17 948.888ZM1814.6 948.726C1814.6 941.598 1817.73 937.494 1824.05 937.494C1830.31 937.494 1833.44 941.598 1833.44 948.726V957.474C1833.44 964.602 1830.31 968.706 1824.05 968.706C1817.73 968.706 1814.6 964.602 1814.6 957.474V948.726Z" fill="white"/>
<rect x="1462" y="898" width="298" height="298" stroke="white" stroke-width="2"/>
<path d="M1627.88 1027.51C1627.88 1013.58 1618.16 1004.4 1604.12 1004.4H1571.72V1080H1584.25V1050.52H1597.97L1612.98 1080H1626.8L1610.71 1049.76C1620.97 1047.28 1627.88 1039.07 1627.88 1027.51ZM1584.25 1016.06H1602.83C1610.71 1016.06 1615.36 1020.28 1615.36 1027.51C1615.36 1034.64 1610.6 1038.85 1602.83 1038.85H1584.25V1016.06ZM1635.56 1010.88C1635.56 1015.85 1639.56 1019.52 1644.53 1019.52C1649.49 1019.52 1653.38 1015.85 1653.38 1010.88C1653.38 1005.8 1649.49 1002.24 1644.53 1002.24C1639.56 1002.24 1635.56 1005.8 1635.56 1010.88ZM1650.47 1026.43H1638.59V1080H1650.47V1026.43Z" fill="#72D7D1"/>
<path d="M1493.16 946.512C1493.16 954.288 1498.72 959.418 1505.26 959.418C1510.76 959.418 1513.46 956.718 1514.76 954.45H1515.41V959.85C1515.41 965.196 1512.01 968.706 1506.34 968.706C1500.72 968.706 1498.07 965.682 1498.07 961.092H1493.65C1493.65 967.896 1498.34 972.756 1506.34 972.756C1514.38 972.756 1519.84 967.41 1519.84 959.634V946.458C1519.84 938.628 1514.06 933.444 1506.55 933.444C1498.94 933.444 1493.16 938.736 1493.16 946.512ZM1506.55 955.584C1501.21 955.584 1497.59 951.912 1497.59 946.512C1497.59 941.112 1501.21 937.494 1506.55 937.494C1511.79 937.494 1515.41 941.112 1515.41 946.512C1515.41 951.912 1511.79 955.584 1506.55 955.584Z" fill="white"/>
<rect x="2050" y="604" width="298" height="298" stroke="white" stroke-width="2"/>
<path d="M2140.38 735.132V737.94H2152.91V735.564C2152.91 725.412 2159.28 720.444 2168.57 720.444C2176.67 720.444 2182.5 725.088 2182.5 733.188C2182.5 742.908 2175.37 746.688 2163.71 750.252C2149.88 754.356 2140.59 760.728 2140.59 774.66V786H2194.27V774.552H2153.23V773.364C2153.23 765.48 2158.74 763.104 2169.32 759.972C2184.55 755.544 2195.03 749.172 2195.03 733.62C2195.03 718.5 2183.25 708.888 2168.46 708.888C2152.58 708.888 2140.38 718.392 2140.38 735.132ZM2203.24 739.56V756.84C2203.24 776.496 2214.47 787.512 2231.86 787.512C2249.25 787.512 2260.48 776.496 2260.48 756.84V739.56C2260.48 720.228 2249.03 708.888 2231.86 708.888C2214.47 708.888 2203.24 720.228 2203.24 739.56ZM2215.77 739.236C2215.77 727.464 2221.38 720.336 2231.86 720.336C2242.23 720.336 2247.95 727.248 2247.95 739.236V757.164C2247.95 768.936 2242.77 776.064 2231.86 776.064C2221.17 776.064 2215.77 769.152 2215.77 757.164V739.236Z" fill="#FE6A6A"/>
<path d="M2082.83 640.2V660.396H2089.58C2090.45 658.776 2092.23 656.508 2096.23 656.508C2100.98 656.508 2104.16 659.748 2104.16 665.202C2104.16 671.034 2100.87 674.706 2095.15 674.706C2089.37 674.706 2085.8 671.304 2085.8 665.472V664.662H2081.43V665.634C2081.43 673.626 2086.99 678.756 2095.15 678.756C2103.3 678.756 2108.65 672.978 2108.65 665.202C2108.65 657.534 2103.62 652.566 2097.09 652.566C2091.74 652.566 2089.26 654.996 2087.86 657.588H2087.21V644.25H2107.62V640.2H2082.83Z" fill="white"/>
<rect x="2050" y="898" width="298" height="298" stroke="white" stroke-width="2"/>
<path d="M2165.86 1004.4L2145.56 1037.99H2158.95L2171.26 1016.93H2172.56V1080H2185.09V1004.4H2165.86ZM2197.24 1023.3C2197.24 1033.24 2203.94 1037.88 2209.66 1040.15V1041.44C2203.72 1043.06 2196.05 1048.9 2196.05 1059.59C2196.05 1072.66 2207.72 1081.51 2224.03 1081.51C2240.33 1081.51 2252 1072.66 2252 1059.59C2252 1048.9 2244.33 1043.06 2238.39 1041.44V1040.15C2244.22 1037.88 2250.81 1033.24 2250.81 1023.3C2250.81 1011.31 2240.12 1002.89 2224.03 1002.89C2207.93 1002.89 2197.24 1011.31 2197.24 1023.3ZM2209.77 1024.81C2209.77 1018.44 2215.39 1014.44 2224.03 1014.44C2232.67 1014.44 2238.28 1018.44 2238.28 1024.81C2238.28 1031.18 2232.67 1035.18 2224.03 1035.18C2215.39 1035.18 2209.77 1031.18 2209.77 1024.81ZM2208.58 1058.29C2208.58 1051.27 2214.41 1046.74 2224.03 1046.74C2233.75 1046.74 2239.47 1051.27 2239.47 1058.29C2239.47 1065.31 2233.75 1069.96 2224.03 1069.96C2214.41 1069.96 2208.58 1065.31 2208.58 1058.29Z" fill="#FE6A6A"/>
<path d="M2090.12 934.2L2079.32 950.508H2084.35L2092.01 938.52H2092.66V972H2097.09L2097.14 934.2H2090.12ZM2112.38 934.2L2101.58 950.508H2106.6L2114.27 938.52H2114.92V972H2119.34L2119.4 934.2H2112.38Z" fill="white"/>
<rect x="874" y="604" width="298" height="298" stroke="white" stroke-width="2"/>
<path d="M990.171 710.4L967.815 786H980.883L985.851 768.612H1014.36L1019.33 786H1032.4L1010.15 710.4H990.171ZM989.091 757.056L999.459 721.092H1000.75L1011.23 757.056H989.091ZM1034.9 732.432V742.8H1049.04V776.28C1049.04 782.004 1053.15 786 1058.76 786H1073.02V775.632H1063.84C1061.9 775.632 1060.92 774.66 1060.92 772.5V742.8H1076.04V732.432H1060.92V715.26H1049.04V732.432H1034.9Z" fill="#D0D0D0"/>
<path d="M905.646 652.296V653.7H910.074V652.566C910.074 646.734 913.584 643.494 919.308 643.494C924.168 643.494 927.732 646.41 927.732 651.432C927.732 656.886 923.844 659.262 917.418 661.152C910.236 663.258 905.592 666.12 905.592 673.626V678H931.944V673.95H910.074V673.086C910.074 667.902 913.314 666.552 919.362 664.716C926.76 662.448 932.16 659.208 932.16 651.594C932.16 644.304 926.814 639.444 919.308 639.444C911.316 639.444 905.646 644.358 905.646 652.296Z" fill="white"/>
<rect x="1168" y="604" width="298" height="298" stroke="white" stroke-width="2"/>
<path d="M1295.41 710.4V786H1344.99V774.444H1307.94V753.708H1341.42V742.26H1307.94V721.956H1344.45V710.4H1295.41Z" fill="#D0D0D0"/>
<path d="M1200.08 640.2V644.304H1219.68L1207.91 654.672V658.83H1213.31C1217.9 658.83 1221.68 661.53 1221.68 666.498C1221.68 671.196 1218.22 674.706 1212.88 674.706C1207.1 674.706 1203.43 671.52 1203.43 665.85V663.69H1199V666.012C1199 673.842 1204.72 678.756 1212.93 678.756C1220.27 678.756 1226.11 673.788 1226.11 666.606C1226.11 659.64 1221.19 655.32 1214.93 655.32H1213.58V654.726L1225.73 644.142V640.2H1200.08Z" fill="white"/>
<rect x="1756" y="604" width="298" height="298" stroke="white" stroke-width="2"/>
<path d="M1852.47 739.992V756.408C1852.47 776.064 1863.92 787.512 1882.71 787.512C1901.61 787.512 1912.95 776.064 1912.95 756.408V739.992C1912.95 720.552 1901.4 708.888 1882.71 708.888C1863.92 708.888 1852.47 720.552 1852.47 739.992ZM1865 739.668C1865 727.788 1871.05 720.336 1882.71 720.336C1894.27 720.336 1900.43 727.572 1900.43 739.668V756.732C1900.43 768.612 1894.92 776.064 1882.71 776.064C1870.73 776.064 1865 768.828 1865 756.732V739.668ZM1919.28 732.432V742.8H1933.43V786H1945.31V742.8H1959.89V732.432H1945.31V723.9C1945.31 721.74 1946.28 720.768 1948.23 720.768H1957.08V710.4H1943.37C1937.54 710.4 1933.43 714.612 1933.43 720.552V732.432H1919.28Z" fill="#D0D0D0"/>
<path d="M1802.6 640.2L1786.19 666.606V670.494H1805.74V678H1810.16V670.494H1816.64V666.444H1810.16V640.2H1802.6ZM1805.09 643.872H1805.74V666.444H1791.1L1805.09 643.872Z" fill="white"/>
<rect x="580" y="604" width="298" height="298" stroke="white" stroke-width="2"/>
<path d="M705.662 708.888C691.298 708.888 679.85 717.096 679.85 730.272C679.85 744.204 689.138 749.388 704.042 752.628L706.958 753.276C716.786 755.328 721.97 757.812 721.97 764.724C721.97 771.096 716.786 776.28 707.174 776.28C695.294 776.28 689.138 769.8 689.138 759.216V757.056H676.718V759.972C676.718 777.144 688.49 787.512 706.958 787.512C722.726 787.512 734.39 778.872 734.39 764.292C734.39 750.9 725.534 745.176 710.738 741.936L707.822 741.288C697.886 739.02 692.27 737.076 692.27 730.056C692.27 724.224 697.67 720.12 705.662 720.12C714.95 720.12 721.106 724.548 721.106 733.728V736.104H733.418V732.756C733.418 717.42 721.538 708.888 705.662 708.888ZM740.368 732.432V742.8H754.516V776.28C754.516 782.004 758.62 786 764.236 786H778.492V775.632H769.312C767.368 775.632 766.396 774.66 766.396 772.5V742.8H781.516V732.432H766.396V715.26H754.516V732.432H740.368Z" fill="#D0D0D0"/>
<path d="M620.124 640.2L609.324 656.508H614.346L622.014 644.52H622.662V678H627.09L627.144 640.2H620.124Z" fill="white"/>
</svg>
