<?xml version="1.0" encoding="utf-8"?>
<!-- Generator: Adobe Illustrator 16.0.0, SVG Export Plug-In . SVG Version: 6.00 Build 0)  -->
<!DOCTYPE svg PUBLIC "-//W3C//DTD SVG 1.1//EN" "http://www.w3.org/Graphics/SVG/1.1/DTD/svg11.dtd">
<svg version="1.1" id="Layer_1" xmlns="http://www.w3.org/2000/svg" xmlns:xlink="http://www.w3.org/1999/xlink" x="0px" y="0px"
	 width="524.378px" height="72.087px" viewBox="0 0 524.378 72.087" enable-background="new 0 0 524.378 72.087"
	 xml:space="preserve">
<g>
	<g>
		<path fill="#344C4C" d="M-0.001,34.223v-3.359C-0.001,13.845,13.845,0,30.863,0h439.848c17.018,0,30.863,13.845,30.863,30.864
			v3.359c0,2.503-0.303,4.997-0.9,7.419c1.148,5.789,5.002,13.378,16.668,17.562l7.035,2.523l-7.355,1.327
			c-0.145,0.026-3.594,0.639-8.33,0.639c-5.619,0-13.344-0.883-19.284-4.921c-5.357,4.083-11.937,6.314-18.696,6.314H30.863
			C13.845,65.087-0.001,51.241-0.001,34.223z M490.604,54.688c5.284,4.229,13,5.056,18.449,5.004
			c-8.37-5.12-11.4-12.209-12.396-17.762l-0.077-0.435l0.111-0.427c0.586-2.229,0.883-4.533,0.883-6.846v-3.359
			C497.574,16.051,485.523,4,470.711,4H30.863C16.05,4,3.999,16.051,3.999,30.864v3.359c0,14.813,12.051,26.864,26.864,26.864
			h439.848c6.346,0,12.508-2.26,17.35-6.363l1.258-1.064L490.604,54.688z"/>
	</g>
</g>
<g>
	<g>
		<path fill="#ED387B" d="M30.863,72.087h439.848c6.761,0,13.339-2.231,18.695-6.313c10.631,7.235,26.9,4.411,27.615,4.282
			l7.35-1.326c0,0-7.385-2.652-7.568-2.701l-1.312,0.213c-3.451,0.469-16.944,1.805-24.887-4.553l-1.285-1.029l-1.258,1.065
			c-4.842,4.103-11.004,6.362-17.35,6.362H30.863c-9.822,0-13.822-1.375-26.086-10.361C11.166,67.295,20.229,72.087,30.863,72.087z"
			/>
	</g>
</g>
</svg>
