<?xml version="1.0" encoding="UTF-8"?>
<svg width="320px" height="79px" viewBox="0 0 320 79" version="1.1" xmlns="http://www.w3.org/2000/svg" xmlns:xlink="http://www.w3.org/1999/xlink">
    <!-- Generator: Sketch 52.3 (67297) - http://www.bohemiancoding.com/sketch -->
    <title>chroma logo inverse </title>
    <desc>Created with Sketch.</desc>
    <defs>
        <path d="M48.7826023,57.6657702 L42.5059606,54.044477 L61.3889278,43.1524256 C62.1124021,42.7341433 62.794303,42.2556971 63.4293739,41.720907 C65.8836436,45.215665 66.124961,49.81868 63.9368573,53.6070951 C61.959966,57.026887 58.2718715,59.1512453 54.3166554,59.1512453 C52.3813377,59.1512453 50.468957,58.6374648 48.7826023,57.6657702 Z M47.2706174,60.2826129 C47.9950474,60.7013727 48.7500603,61.0528062 49.5318331,61.335481 C47.7298372,65.2060245 43.8620688,67.7142857 39.4810828,67.7142857 C33.3659565,67.7142857 28.388128,62.7416925 28.388128,56.6307603 L28.388128,34.8452249 L37.9691456,40.3736179 L37.9691456,54.044668 C37.9691456,54.5842331 38.2577708,55.0832114 38.7246364,55.3529939 L47.2706174,60.2826129 Z M24.6750895,59.1495263 C20.7189176,59.1495263 17.0370353,57.027078 15.0591883,53.6087186 C13.5797454,51.0450684 13.1840804,48.0588385 13.9524733,45.1977113 C14.7203882,42.3365841 16.5534448,39.9462633 19.1209664,38.4665181 L25.3956967,34.8461799 L25.3966524,56.6269404 C25.3966524,57.4625499 25.4683308,58.2914746 25.614077,59.111327 C25.301559,59.137589 24.9876074,59.1495263 24.6750895,59.1495263 Z M49.0924443,32.2281435 L39.5152495,37.7536715 L27.6653705,30.9188626 C27.4321766,30.7846876 27.1712671,30.7164064 26.9084462,30.7164064 C26.6489702,30.7164064 26.3880607,30.7846876 26.1534333,30.9188626 L17.6088859,35.8484817 C16.8849337,36.2643765 16.2011214,36.7418677 15.5660504,37.2790452 C13.1127365,33.7847647 12.8733305,29.1822272 15.059045,25.3923797 C17.0368919,21.9730653 20.7211636,19.846797 24.6787689,19.846797 C26.6116974,19.846797 28.5250338,20.3624875 30.2128221,21.3346595 L49.0924443,32.2281435 Z M39.4811784,11.2857143 C45.5991718,11.2857143 50.5736553,16.2583075 50.5736553,22.3716272 L50.5736553,29.6132585 L31.6964223,18.723117 C30.9719923,18.3034023 30.2165016,17.9510138 29.4323395,17.667384 C31.2343354,13.795408 35.1030595,11.2857143 39.4811784,11.2857143 Z M63.9367617,25.3959131 C66.9931302,30.6893804 65.1724979,37.4816925 59.8745058,40.5366811 L40.9948836,51.4292101 L40.9948836,40.3762441 L52.8433291,33.5404803 C53.3116282,33.2706977 53.6002534,32.7717194 53.6002534,32.2316769 L53.6002534,22.3724389 C53.6012091,21.5396943 53.5257078,20.7098146 53.3828288,19.8928272 C53.6929575,19.8656102 54.0054754,19.8527179 54.3189491,19.8527179 C58.2755988,19.8527179 61.9608261,21.9770762 63.9367617,25.3959131 Z" id="path-1"></path>
    </defs>
    <g id="chroma-logo-inverse-" stroke="none" stroke-width="1" fill="none" fill-rule="evenodd">
        <g id="logo/chromatic/icon-only">
            <circle id="Oval" fill="#FC521F" fill-rule="evenodd" cx="39.5" cy="39.5" r="39.5"></circle>
            <mask id="mask-2" fill="white">
                <use xlink:href="#path-1"></use>
            </mask>
            <use id="Logo" fill="#FFFFFF" fill-rule="evenodd" xlink:href="#path-1"></use>
        </g>
        <path d="M306.42739,26.5209994 C314.172477,26.5209994 320,30.7717722 320,40.0248816 L320,58.5273086 L312.256472,58.5273086 L312.484865,54.0528109 C310.18145,57.4102009 307.117246,59.2 302.363091,59.2 C295.998494,59.2 290.781318,56.2908181 290.781318,49.2772327 C290.781318,42.783144 296.151275,39.9528346 303.435679,39.8754789 L312.256472,39.8754789 C312.256472,34.8761758 309.955396,32.7875713 305.815485,32.7875713 C302.481574,32.7875713 300.263125,33.9092293 298.604354,35.334243 L293.01068,32.1922356 L292.931172,32.1156383 C292.98028,32.0595174 293.027829,32.0011214 293.077717,31.949551 C295.900277,28.7574899 299.715138,26.5209994 306.42739,26.5209994 Z M312.256472,47.5587222 L312.256472,45.0969901 L303.974312,45.0969901 C300.599088,45.0969901 298.374402,46.2922119 298.374402,49.0550246 C298.374402,51.7389648 300.521918,53.1548778 304.509827,53.1548778 C309.034809,53.1548778 312.256472,50.9904344 312.256472,47.5587222 Z M121.994396,48.8874205 L128.194519,52.3714616 C125.145125,56.4993752 120.178167,59.2 114.554093,59.2 C105.278853,59.2 97.7629382,51.8823004 97.7629382,42.8589829 C97.7629382,33.8364239 105.278853,26.5209994 114.554093,26.5209994 C120.169592,26.5209994 125.122519,29.20949 128.174252,33.3229942 L121.974129,36.8093104 C120.192198,34.7487664 117.528655,33.4352359 114.554093,33.4352359 C109.213756,33.4352359 104.869616,37.6624986 104.869616,42.8589829 C104.869616,48.0547089 109.213756,52.2850052 114.554093,52.2850052 C117.540348,52.2850052 120.214803,50.962374 121.994396,48.8874205 Z M235.37308,27.1929325 L243.117387,27.1929325 L242.964605,32.5646048 C245.11368,28.6111207 248.410175,26.5209994 252.551645,26.5209994 C257.22785,26.5209994 260.29907,28.6816509 261.984343,32.4887659 C264.514592,28.7590066 268.34816,26.5209994 273.025145,26.5209994 C280.616671,26.5209994 285.139315,31.4459804 285.139315,39.4265124 L285.139315,58.5273086 L277.397346,58.5273086 L277.397346,40.1750427 C277.397346,35.8453975 275.785346,33.4587459 271.337533,33.4587459 C266.817227,33.4587459 264.12952,36.1457197 264.12952,41.3687477 L264.12952,58.5273086 L256.387552,58.5273086 L256.387552,40.1750427 C256.387552,35.8453975 254.850383,33.4587459 250.404129,33.4587459 C245.800417,33.4587459 243.117387,36.1457197 243.117387,41.3687477 L243.117387,58.5273086 L235.37308,58.5273086 L235.37308,27.1929325 Z M133.793649,9.06666667 L141.537177,9.06666667 L141.537177,32.7124907 C143.609081,28.8348456 147.444988,26.5209994 152.278651,26.5209994 C159.405597,26.5209994 164.316431,31.4459804 164.316431,39.9528346 L164.316431,58.5273086 L156.568226,58.5273086 L156.568226,40.5481703 C156.568226,36.0706391 154.423049,33.4587459 149.894948,33.4587459 C144.83601,33.4587459 141.537177,36.4437667 141.537177,41.5181504 L141.537177,58.5273086 L133.793649,58.5273086 L133.793649,9.06666667 Z M195.642095,42.8589829 C195.642095,33.8364239 203.161907,26.5209994 212.433249,26.5209994 C221.712387,26.5209994 229.226742,33.8364239 229.226742,42.8589829 C229.226742,51.8823004 221.712387,59.2 212.433249,59.2 C203.161907,59.2 195.642095,51.8823004 195.642095,42.8589829 Z M212.433249,33.4352359 C207.09603,33.4352359 202.749552,37.6624986 202.749552,42.8589829 C202.749552,48.0547089 207.09603,52.2850052 212.433249,52.2850052 C217.779043,52.2850052 222.124741,48.0547089 222.124741,42.8589829 C222.124741,37.6624986 217.779043,33.4352359 212.433249,33.4352359 Z M172.013968,27.1929325 L179.762952,27.1929325 L179.683443,33.0856183 C181.835636,28.1621541 185.514084,26.5945632 189.04209,26.5945632 C190.692286,26.5945632 191.990929,26.8645498 193.097815,27.3195835 C193.534334,27.4970466 194.445566,27.9232615 195.331855,28.5694093 C195.331855,28.5694093 194.259266,29.8685304 193.314515,31.4490139 C192.365867,33.0310143 191.725899,34.7267731 191.725899,34.7267731 C190.49897,34.1314374 189.270482,33.680954 187.508818,33.680954 C182.907445,33.680954 179.762952,36.2928472 179.762952,43.3079495 L179.762952,58.5273086 L172.013968,58.5273086 L172.013968,27.1929325 Z" id="Text" fill="#FFFFFF"></path>
    </g>
</svg>