<svg width="1057" height="315" viewBox="0 0 1057 315" fill="none" xmlns="http://www.w3.org/2000/svg">
<path d="M10.7998 201.5V198.6C10.7998 136.1 58.5998 97.6001 117.3 97.6001C171.3 97.6001 217.2 128.5 218.6 197.5V215.1H83.8998C85.6998 238.2 99.2998 250.7 119.9 250.7C140.1 250.7 147.8 241.1 150 230.1H217.6C211.7 274.2 178.3 299.9 117.3 299.9C55.8998 299.9 10.7998 265 10.7998 201.5ZM147.4 177.2C146.7 156.6 136.7 144.1 117.3 144.1C99.6998 144.1 87.1998 155.5 84.1998 177.2H147.4Z" fill="white"/>
<path d="M232.9 19.7002H305.3V175.8L352 103.1H426.2L367.1 189.1L431 295.2H350.9L305.3 215.1V295.2H232.9V19.7002Z" fill="white"/>
<path d="M439.8 103.1H511.8V295.2H439.8V103.1V103.1Z" fill="white"/>
<path d="M540.5 103.1H612.9V134C623.6 113.8 644.1 98 676.4 98C712.8 98 738.1 121.1 738.1 168.9V295.2H665.7V185C665.7 165.5 658.7 155.6 641.5 155.6C623.5 155.6 612.9 166.3 612.9 189V295.2H540.5V103.1Z" fill="white"/>
<path d="M752.5 201.5V198.6C752.5 136.1 799.2 97.9004 859.8 97.9004C919.7 97.9004 966.3 135 966.3 196.7V199.6C966.3 262.8 919.3 299.9 859.4 299.9C799.5 300 752.5 264.7 752.5 201.5ZM892.8 200.1V197.5C892.8 167.4 882.1 151.2 859.7 151.2C837.7 151.2 825.5 166.3 825.5 196.4V199.3C825.5 230.5 836.5 246.7 859.7 246.7C881.8 246.7 892.8 230.5 892.8 200.1Z" fill="white"/>
<path d="M514.2 50.4C514.2 29.2 497 12 475.8 12C454.6 12 437.4 29.2 437.4 50.4C437.4 71.6 454.6 88.8 475.8 88.8C497 88.8 514.2 71.6 514.2 50.4Z" fill="white"/>
<path d="M1047.8 261.6C1047.8 240.4 1030.6 223.2 1009.4 223.2C988.2 223.2 971 240.4 971 261.6C971 282.8 988.2 300 1009.4 300C1030.6 300 1047.8 282.8 1047.8 261.6Z" fill="white"/>
</svg>
