<svg width="1168" height="260" viewBox="0 0 1168 260" fill="none" xmlns="http://www.w3.org/2000/svg">
<rect width="1168" height="260" fill="white"/>
<rect width="1059.89" height="163.75" transform="translate(54 48)" fill="white"/>
<path d="M176.82 129.87C176.82 137.967 174.419 145.883 169.92 152.615C165.422 159.348 159.028 164.595 151.547 167.694C144.066 170.792 135.835 171.603 127.893 170.024C119.951 168.444 112.657 164.545 106.931 158.819C101.205 153.094 97.3063 145.799 95.7266 137.857C94.1469 129.916 94.9577 121.684 98.0563 114.203C101.155 106.722 106.402 100.328 113.135 95.8298C119.867 91.3313 127.783 88.9302 135.88 88.9302C141.256 88.9289 146.579 89.9866 151.546 92.0429C156.513 94.0993 161.027 97.1139 164.828 100.915C168.63 104.716 171.646 109.228 173.703 114.195C175.761 119.161 176.82 124.484 176.82 129.86" fill="#DC062B"/>
<path d="M703.45 69.4899C703.45 66.0899 705.14 64.3999 708.54 64.3999H713.32C716.56 64.3999 718.25 66.0899 718.25 69.4899V100.26C718.256 102.428 718.103 104.594 717.79 106.74H718.1C721.49 99.1799 731.67 88.8499 747.25 88.8499C765.6 88.8499 774.09 98.8499 774.09 118.77V163.65C774.09 167.05 772.24 168.74 769 168.74H764.21C760.82 168.74 759.13 167.05 759.13 163.65V122.16C759.13 111.21 756.81 102.58 744.32 102.58C729.32 102.58 718.25 114.91 718.25 131.73V163.65C718.25 167.05 716.56 168.74 713.32 168.74H708.45C705.05 168.74 703.36 167.05 703.36 163.65L703.45 69.4899Z" fill="#231815"/>
<path d="M837.39 88.8501C860.68 88.8501 879.5 105.97 879.5 129.57C879.5 153.32 860.68 170.57 837.39 170.57C814.1 170.57 795.39 153.3 795.39 129.57C795.45 105.93 814.1 88.8501 837.39 88.8501ZM837.39 157.64C852.2 157.64 864.23 145.92 864.23 129.57C864.23 113.37 852.23 101.8 837.39 101.8C822.74 101.8 810.55 113.37 810.55 129.57C810.55 145.93 822.74 157.64 837.39 157.64Z" fill="#231815"/>
<path d="M900.64 95.7901C900.64 92.4001 902.49 90.7001 905.73 90.7001H910.04C913.44 90.7001 915.13 92.4001 915.13 95.7901V102.73C915.115 104.231 914.961 105.727 914.67 107.2H914.98C918.83 98.1001 929.79 88.8501 942.12 88.8501C955.24 88.8501 962.79 94.8501 965.57 106.58H965.88C970.04 97.4901 980.88 88.8501 993.49 88.8501C1011.22 88.8501 1019.24 98.8501 1019.24 118.77V163.65C1019.24 167.05 1017.55 168.74 1014.15 168.74H1009.37C1006.13 168.74 1004.28 167.05 1004.28 163.65V122.01C1004.28 111.01 1002.12 102.42 990.55 102.42C976.06 102.42 967.42 117.42 967.42 132.34V163.65C967.42 167.05 965.72 168.74 962.48 168.74H957.55C954.31 168.74 952.61 167.05 952.61 163.65V122.01C952.61 111.83 951.07 102.42 939.04 102.42C924.23 102.42 915.6 117.84 915.6 132.34V163.65C915.6 167.05 913.9 168.74 910.51 168.74H905.73C902.49 168.74 900.64 167.05 900.64 163.65V95.7901Z" fill="#231815"/>
<path d="M1080.27 88.8501C1101.86 88.8501 1113.89 104.27 1113.89 126.02C1113.9 126.71 1113.76 127.393 1113.5 128.032C1113.24 128.67 1112.85 129.25 1112.37 129.737C1111.88 130.225 1111.3 130.611 1110.66 130.872C1110.02 131.134 1109.34 131.265 1108.65 131.26H1056.52C1057.44 148.26 1069.63 157.64 1083.52 157.64C1090.23 157.592 1096.76 155.433 1102.18 151.47C1105.11 149.93 1107.43 150.23 1109.12 153.16L1110.51 155.48C1112.05 158.1 1111.59 160.72 1108.97 162.26C1101.23 167.657 1092.03 170.563 1082.59 170.59C1058.07 170.59 1041.26 152.86 1041.26 129.72C1041.25 104.93 1058.06 88.8501 1080.27 88.8501ZM1098.93 121.39C1098.47 107.67 1090.3 100.57 1079.93 100.57C1068.52 100.57 1059.26 108.28 1057.1 121.39H1098.93Z" fill="#231815"/>
<path d="M54 211.75H217.75V48H54V211.75ZM135.88 201.52C121.709 201.522 107.855 197.321 96.0707 189.45C84.2866 181.578 75.1015 170.388 69.6769 157.296C64.2524 144.204 62.832 129.797 65.5955 115.898C68.359 101.999 75.1822 89.2308 85.2023 79.2093C95.2223 69.1879 107.989 62.3629 121.888 59.5975C135.787 56.832 150.194 58.2503 163.287 63.6731C176.38 69.0958 187.571 78.2794 195.444 90.0624C203.318 101.845 207.52 115.699 207.52 129.87C207.52 148.871 199.973 167.094 186.538 180.531C173.103 193.967 154.881 201.517 135.88 201.52" fill="#231815"/>
<path d="M421.04 128.85C420.832 120.801 418.254 112.991 413.63 106.399C409.005 99.8071 402.54 94.7251 395.042 91.7889C387.544 88.8528 379.347 88.1929 371.476 89.8919C363.605 91.5909 356.41 95.5732 350.79 101.341C345.171 107.108 341.378 114.405 339.884 122.317C338.391 130.23 339.264 138.407 342.394 145.826C345.525 153.245 350.773 159.576 357.484 164.027C364.194 168.478 372.068 170.851 380.12 170.85H381.24C393.716 170.822 405.763 166.295 415.17 158.1C415.643 157.658 415.93 157.052 415.973 156.406C416.016 155.759 415.811 155.121 415.4 154.62L405.78 143.62C405.536 143.328 405.23 143.094 404.884 142.935C404.538 142.776 404.161 142.696 403.78 142.7C403.214 142.7 402.665 142.89 402.22 143.24C396.764 147.38 390.067 149.548 383.22 149.39C373.07 149.39 366.75 144.13 364.14 137.11H418.45C419.129 137.11 419.78 136.841 420.26 136.36C420.74 135.88 421.01 135.229 421.01 134.55L421.04 128.85ZM364.51 119.64C365.818 116.591 367.995 113.995 370.77 112.176C373.544 110.357 376.793 109.395 380.11 109.41C388.99 109.41 393.98 113.6 396.11 119.64H364.51Z" fill="#231815"/>
<path d="M494.62 166.21C494.623 166.887 494.893 167.536 495.373 168.014C495.853 168.492 496.503 168.76 497.18 168.76H514.58C514.916 168.761 515.248 168.696 515.559 168.569C515.869 168.441 516.152 168.254 516.39 168.017C516.627 167.78 516.816 167.498 516.945 167.188C517.074 166.878 517.14 166.546 517.14 166.21V114.52C517.14 107.733 514.444 101.224 509.645 96.4253C504.846 91.6263 498.337 88.9302 491.55 88.9302H489.55C484.551 89.0437 479.644 90.3026 475.208 92.6101C470.771 94.9176 466.923 98.2121 463.96 102.24V93.5302C463.96 92.8512 463.69 92.2001 463.21 91.72C462.73 91.2399 462.079 90.9702 461.4 90.9702H444C443.321 90.9702 442.67 91.2399 442.19 91.72C441.71 92.2001 441.44 92.8512 441.44 93.5302V166.2C441.443 166.877 441.713 167.526 442.193 168.004C442.673 168.482 443.323 168.75 444 168.75H461.4C462.077 168.75 462.727 168.482 463.207 168.004C463.686 167.526 463.957 166.877 463.96 166.2V129.87C463.96 121.87 470.69 110.43 482.26 110.43C490.26 110.43 494.66 114.85 494.66 122.83L494.62 166.21Z" fill="#231815"/>
<path d="M320.95 106.06C322.476 104.222 323.311 101.909 323.31 99.52V93.52C323.31 92.841 323.04 92.1899 322.56 91.7098C322.08 91.2297 321.429 90.96 320.75 90.96H256.27C255.591 90.96 254.94 91.2297 254.46 91.7098C253.98 92.1899 253.71 92.841 253.71 93.52V108.93C253.71 109.609 253.98 110.26 254.46 110.74C254.94 111.22 255.591 111.49 256.27 111.49H289.15L254.2 151.53C252.568 153.396 251.669 155.791 251.67 158.27V166.21C251.67 166.889 251.94 167.54 252.42 168.02C252.9 168.5 253.551 168.77 254.23 168.77H324.85C325.527 168.767 326.176 168.496 326.654 168.017C327.132 167.537 327.4 166.887 327.4 166.21V150.86C327.401 150.524 327.336 150.192 327.209 149.881C327.081 149.571 326.894 149.288 326.657 149.05C326.42 148.813 326.138 148.624 325.828 148.495C325.518 148.366 325.186 148.3 324.85 148.3H285.31L320.95 106.06Z" fill="#231815"/>
<path d="M596.3 112.69C596.661 112.692 597.019 112.616 597.348 112.468C597.678 112.32 597.972 112.102 598.21 111.83L608.84 99.6502C609.089 99.3687 609.272 99.036 609.378 98.6755C609.484 98.3151 609.509 97.9358 609.452 97.5645C609.395 97.1933 609.256 96.8392 609.047 96.5273C608.837 96.2155 608.562 95.9536 608.24 95.7602C603.01 92.7602 593.38 88.9302 578.52 88.9302C556.86 88.9302 539.45 98.4902 539.45 113.46C539.45 122.53 546.22 128.09 555.83 131.76C563.23 134.59 572.93 138.23 578.34 140.11C583.34 141.86 584.9 143.91 584.41 145.68C583.73 148.18 579.29 149.32 574.56 149.32C565.39 149.32 556.38 145.42 552.19 143.18C551.681 142.922 551.102 142.839 550.541 142.944C549.981 143.049 549.471 143.336 549.09 143.76L538.04 156.44C537.626 156.906 537.398 157.507 537.4 158.13C537.4 158.747 537.628 159.341 538.04 159.8C548.92 167.007 561.689 170.834 574.74 170.8C600.52 170.8 611.54 159.69 612.95 147.93C613.068 146.958 613.132 145.98 613.14 145C613.14 138 608.04 130.65 596.77 126.06C588.23 122.59 579.93 119.37 574.56 117.5C570.11 115.94 567.86 114.56 568.11 112.7C568.39 110.63 571.73 109.39 578.34 109.39C584.189 109.36 589.992 110.425 595.45 112.53C595.732 112.635 596.029 112.689 596.33 112.69" fill="#231815"/>
<path d="M655.05 48H653V211.75H655.05V48Z" fill="#231815"/>
</svg>
