<svg width="1060" height="164" viewBox="0 0 1060 164" fill="none" xmlns="http://www.w3.org/2000/svg">
<path d="M122.82 81.8702C122.82 89.9673 120.419 97.8827 115.92 104.615C111.422 111.348 105.028 116.595 97.547 119.694C90.0662 122.792 81.8345 123.603 73.893 122.024C65.9514 120.444 58.6566 116.545 52.931 110.819C47.2054 105.094 43.3063 97.7988 41.7266 89.8572C40.1469 81.9156 40.9577 73.6839 44.0563 66.2031C47.155 58.7223 52.4024 52.3284 59.1349 47.8298C65.8675 43.3313 73.7828 40.9302 81.88 40.9302C87.2558 40.9289 92.5792 41.9866 97.5463 44.0429C102.513 46.0993 107.027 49.1139 110.828 52.9148C114.63 56.7156 117.646 61.2281 119.703 66.1946C121.761 71.1611 122.82 76.4843 122.82 81.8602" fill="#DC062B"/>
<path d="M649.45 21.4899C649.45 18.0899 651.14 16.3999 654.54 16.3999H659.32C662.56 16.3999 664.25 18.0899 664.25 21.4899V52.2599C664.256 54.4283 664.103 56.5942 663.79 58.7399H664.1C667.49 51.1799 677.67 40.8499 693.25 40.8499C711.6 40.8499 720.09 50.8499 720.09 70.7699V115.65C720.09 119.05 718.24 120.74 715 120.74H710.21C706.82 120.74 705.13 119.05 705.13 115.65V74.1599C705.13 63.2099 702.81 54.5799 690.32 54.5799C675.32 54.5799 664.25 66.9099 664.25 83.7299V115.65C664.25 119.05 662.56 120.74 659.32 120.74H654.45C651.05 120.74 649.36 119.05 649.36 115.65L649.45 21.4899Z" fill="white"/>
<path d="M783.39 40.8501C806.68 40.8501 825.5 57.9701 825.5 81.5701C825.5 105.32 806.68 122.57 783.39 122.57C760.1 122.57 741.39 105.3 741.39 81.5701C741.45 57.9301 760.1 40.8501 783.39 40.8501ZM783.39 109.64C798.2 109.64 810.23 97.9201 810.23 81.5701C810.23 65.3701 798.23 53.8001 783.39 53.8001C768.74 53.8001 756.55 65.3701 756.55 81.5701C756.55 97.9301 768.74 109.64 783.39 109.64Z" fill="white"/>
<path d="M846.64 47.7901C846.64 44.4001 848.49 42.7001 851.73 42.7001H856.04C859.44 42.7001 861.13 44.4001 861.13 47.7901V54.7301C861.115 56.2311 860.961 57.7275 860.67 59.2001H860.98C864.83 50.1001 875.79 40.8501 888.12 40.8501C901.24 40.8501 908.79 46.8501 911.57 58.5801H911.88C916.04 49.4901 926.88 40.8501 939.49 40.8501C957.22 40.8501 965.24 50.8501 965.24 70.7701V115.65C965.24 119.05 963.55 120.74 960.15 120.74H955.37C952.13 120.74 950.28 119.05 950.28 115.65V74.0101C950.28 63.0101 948.12 54.4201 936.55 54.4201C922.06 54.4201 913.42 69.4201 913.42 84.3401V115.65C913.42 119.05 911.72 120.74 908.48 120.74H903.55C900.31 120.74 898.61 119.05 898.61 115.65V74.0101C898.61 63.8301 897.07 54.4201 885.04 54.4201C870.23 54.4201 861.6 69.8401 861.6 84.3401V115.65C861.6 119.05 859.9 120.74 856.51 120.74H851.73C848.49 120.74 846.64 119.05 846.64 115.65V47.7901Z" fill="white"/>
<path d="M1026.27 40.8501C1047.86 40.8501 1059.89 56.2701 1059.89 78.0201C1059.9 78.7097 1059.76 79.3935 1059.5 80.0316C1059.24 80.6698 1058.85 81.2496 1058.37 81.7372C1057.88 82.2249 1057.3 82.6106 1056.66 82.8721C1056.02 83.1335 1055.34 83.2654 1054.65 83.2601H1002.52C1003.44 100.26 1015.63 109.64 1029.52 109.64C1036.23 109.592 1042.76 107.433 1048.18 103.47C1051.11 101.93 1053.43 102.23 1055.12 105.16L1056.51 107.48C1058.05 110.1 1057.59 112.72 1054.97 114.26C1047.23 119.657 1038.03 122.563 1028.59 122.59C1004.07 122.59 987.26 104.86 987.26 81.7201C987.25 56.9301 1004.06 40.8501 1026.27 40.8501ZM1044.93 73.3901C1044.47 59.6701 1036.3 52.5701 1025.93 52.5701C1014.52 52.5701 1005.26 60.2801 1003.1 73.3901H1044.93Z" fill="white"/>
<path d="M-7.62939e-07 163.75H163.75V-3.05176e-07H-7.62939e-07V163.75ZM81.88 153.52C67.7085 153.522 53.8548 149.321 42.0707 141.45C30.2866 133.578 21.1015 122.388 15.6769 109.296C10.2524 96.204 8.83201 81.7973 11.5955 67.8979C14.359 53.9985 21.1822 41.2308 31.2023 31.2093C41.2223 21.1879 53.9891 14.3629 67.8881 11.5975C81.7871 8.83202 96.194 10.2503 109.287 15.6731C122.38 21.0958 133.571 30.2794 141.444 42.0624C149.318 53.8454 153.52 67.6985 153.52 81.87C153.52 100.871 145.973 119.094 132.538 132.531C119.103 145.967 100.881 153.517 81.88 153.52" fill="white"/>
<path d="M367.04 80.8502C366.832 72.8006 364.254 64.9912 359.63 58.3992C355.005 51.8071 348.54 46.7251 341.042 43.7889C333.544 40.8528 325.347 40.1929 317.476 41.8919C309.605 43.5909 302.41 47.5732 296.79 53.3407C291.171 59.1083 287.378 66.4048 285.884 74.3174C284.391 82.23 285.264 90.4073 288.394 97.8261C291.525 105.245 296.773 111.576 303.484 116.027C310.194 120.478 318.068 122.851 326.12 122.85H327.24C339.716 122.822 351.763 118.295 361.17 110.1C361.643 109.658 361.93 109.052 361.973 108.406C362.016 107.759 361.811 107.121 361.4 106.62L351.78 95.6202C351.536 95.3283 351.23 95.0943 350.884 94.9352C350.538 94.7761 350.161 94.6959 349.78 94.7002C349.214 94.7 348.665 94.8902 348.22 95.2402C342.764 99.3798 336.067 101.548 329.22 101.39C319.07 101.39 312.75 96.1302 310.14 89.1102H364.45C365.129 89.1102 365.78 88.8405 366.26 88.3604C366.74 87.8803 367.01 87.2292 367.01 86.5502L367.04 80.8502ZM310.51 71.6402C311.818 68.5914 313.995 65.9954 316.77 64.1761C319.544 62.3568 322.793 61.3948 326.11 61.4102C334.99 61.4102 339.98 65.6002 342.11 71.6402H310.51Z" fill="white"/>
<path d="M440.62 118.21C440.623 118.887 440.893 119.536 441.373 120.014C441.853 120.492 442.503 120.76 443.18 120.76H460.58C460.916 120.761 461.248 120.696 461.559 120.569C461.869 120.441 462.152 120.254 462.39 120.017C462.627 119.78 462.816 119.498 462.945 119.188C463.074 118.878 463.14 118.546 463.14 118.21V66.5202C463.14 59.7333 460.444 53.2244 455.645 48.4253C450.846 43.6263 444.337 40.9302 437.55 40.9302H435.55C430.551 41.0437 425.644 42.3026 421.208 44.6101C416.771 46.9176 412.923 50.2121 409.96 54.2402V45.5302C409.96 44.8512 409.69 44.2001 409.21 43.72C408.73 43.2399 408.079 42.9702 407.4 42.9702H390C389.321 42.9702 388.67 43.2399 388.19 43.72C387.71 44.2001 387.44 44.8512 387.44 45.5302V118.2C387.443 118.877 387.713 119.526 388.193 120.004C388.673 120.482 389.323 120.75 390 120.75H407.4C408.077 120.75 408.727 120.482 409.207 120.004C409.686 119.526 409.957 118.877 409.96 118.2V81.8702C409.96 73.8702 416.69 62.4302 428.26 62.4302C436.26 62.4302 440.66 66.8502 440.66 74.8302L440.62 118.21Z" fill="white"/>
<path d="M266.95 58.06C268.476 56.2223 269.311 53.9086 269.31 51.52V45.52C269.31 44.841 269.04 44.1899 268.56 43.7098C268.08 43.2297 267.429 42.96 266.75 42.96H202.27C201.591 42.96 200.94 43.2297 200.46 43.7098C199.98 44.1899 199.71 44.841 199.71 45.52V60.93C199.71 61.6089 199.98 62.2601 200.46 62.7402C200.94 63.2202 201.591 63.49 202.27 63.49H235.15L200.2 103.53C198.568 105.396 197.669 107.791 197.67 110.27V118.21C197.67 118.889 197.94 119.54 198.42 120.02C198.9 120.5 199.551 120.77 200.23 120.77H270.85C271.527 120.767 272.176 120.496 272.654 120.017C273.132 119.537 273.4 118.887 273.4 118.21V102.86C273.401 102.524 273.336 102.192 273.209 101.881C273.081 101.571 272.894 101.288 272.657 101.05C272.42 100.813 272.138 100.624 271.828 100.495C271.518 100.366 271.186 100.3 270.85 100.3H231.31L266.95 58.06Z" fill="white"/>
<path d="M542.3 64.6902C542.661 64.6922 543.019 64.6164 543.348 64.468C543.678 64.3196 543.972 64.1021 544.21 63.8302L554.84 51.6502C555.089 51.3687 555.272 51.036 555.378 50.6755C555.484 50.3151 555.509 49.9358 555.452 49.5645C555.395 49.1933 555.256 48.8392 555.047 48.5273C554.837 48.2155 554.562 47.9536 554.24 47.7602C549.01 44.7602 539.38 40.9302 524.52 40.9302C502.86 40.9302 485.45 50.4902 485.45 65.4602C485.45 74.5302 492.22 80.0902 501.83 83.7602C509.23 86.5902 518.93 90.2302 524.34 92.1102C529.34 93.8602 530.9 95.9102 530.41 97.6802C529.73 100.18 525.29 101.32 520.56 101.32C511.39 101.32 502.38 97.4202 498.19 95.1802C497.681 94.9221 497.102 94.8391 496.541 94.9439C495.981 95.0488 495.471 95.3357 495.09 95.7602L484.04 108.44C483.626 108.906 483.398 109.507 483.4 110.13C483.4 110.747 483.628 111.341 484.04 111.8C494.92 119.007 507.689 122.834 520.74 122.8C546.52 122.8 557.54 111.69 558.95 99.9302C559.068 98.9579 559.132 97.9796 559.14 97.0002C559.14 90.0002 554.04 82.6502 542.77 78.0602C534.23 74.5902 525.93 71.3702 520.56 69.5002C516.11 67.9402 513.86 66.5602 514.11 64.7002C514.39 62.6302 517.73 61.3902 524.34 61.3902C530.189 61.3605 535.992 62.4255 541.45 64.5302C541.732 64.6349 542.029 64.6891 542.33 64.6902" fill="white"/>
<path d="M601.05 0H599V163.75H601.05V0Z" fill="white"/>
</svg>
