<?xml version="1.0" encoding="utf-8"?>
<!-- Generator: Adobe Illustrator 22.1.0, SVG Export Plug-In . SVG Version: 6.00 Build 0)  -->
<svg version="1.1" id="logo" xmlns="http://www.w3.org/2000/svg" xmlns:xlink="http://www.w3.org/1999/xlink" x="0px" y="0px"
	 viewBox="0 0 1190.5 841.9" style="enable-background:new 0 0 1190.5 841.9;" xml:space="preserve">
<style type="text/css">
	.st0{fill:#222222;}
</style>
<path class="st0" d="M76.8,423.3v-2.9c0-62.5,47.8-101,106.5-101c54,0,99.9,30.9,101.3,99.9v17.6H149.9c1.8,23.1,15.4,35.6,36,35.6
	c20.2,0,27.9-9.6,30.1-20.6h67.6c-5.9,44.1-39.3,69.8-100.3,69.8C121.9,521.7,76.8,486.8,76.8,423.3z M213.4,399
	c-0.7-20.6-10.7-33.1-30.1-33.1c-17.6,0-30.1,11.4-33.1,33.1H213.4z"/>
<path class="st0" d="M298.9,241.5h72.4v156.1l46.7-72.7h74.2l-59.1,86L497,517h-80.1l-45.6-80.1V517h-72.4V241.5z"/>
<path class="st0" d="M505.8,324.9h72V517h-72V324.9z"/>
<path class="st0" d="M606.5,324.9h72.4v30.9c10.7-20.2,31.2-36,63.5-36c36.4,0,61.7,23.1,61.7,70.9V517h-72.4V406.8
	c0-19.5-7-29.4-24.2-29.4c-18,0-28.6,10.7-28.6,33.4V517h-72.4V324.9z"/>
<path class="st0" d="M818.5,423.3v-2.9c0-62.5,46.7-100.7,107.3-100.7c59.9,0,106.5,37.1,106.5,98.8v2.9
	c0,63.2-47,100.3-106.9,100.3C865.5,521.8,818.5,486.5,818.5,423.3z M958.8,421.9v-2.6c0-30.1-10.7-46.3-33.1-46.3
	c-22,0-34.2,15.1-34.2,45.2v2.9c0,31.2,11,47.4,34.2,47.4C947.8,468.5,958.8,452.3,958.8,421.9z"/>
<path class="st0" d="M580.2,272.2c0-21.2-17.2-38.4-38.4-38.4c-21.2,0-38.4,17.2-38.4,38.4c0,21.2,17.2,38.4,38.4,38.4
	C563,310.6,580.2,293.4,580.2,272.2z"/>
<path class="st0" d="M1113.8,483.4c0-21.2-17.2-38.4-38.4-38.4c-21.2,0-38.4,17.2-38.4,38.4c0,21.2,17.2,38.4,38.4,38.4
	C1096.6,521.8,1113.8,504.6,1113.8,483.4z"/>
</svg>
