<svg width="769" height="457" viewBox="0 0 769 457" fill="none" xmlns="http://www.w3.org/2000/svg">
<path d="M108.881 81.72C106.801 81.72 105.761 80.68 105.761 78.6C105.761 78.04 105.821 77.28 105.941 76.32L109.961 52.92H99.8206L100.301 50.04H108.161C109.001 50.04 109.641 49.86 110.081 49.5C110.521 49.14 110.821 48.52 110.981 47.64L112.421 39.12H115.601L113.801 50.04H127.781L127.301 52.92H113.321L109.061 78.18L109.901 78.66L124.721 69.24L126.401 71.4L116.261 78.06C114.341 79.38 112.841 80.32 111.761 80.88C110.721 81.44 109.761 81.72 108.881 81.72ZM142.757 36.6H146.117L142.637 57.18H142.877C144.037 54.74 145.437 52.82 147.077 51.42C148.757 50.02 150.877 49.32 153.437 49.32C156.077 49.32 158.117 50.1 159.557 51.66C161.037 53.18 161.777 55.32 161.777 58.08C161.777 58.64 161.737 59.26 161.657 59.94C161.617 60.58 161.537 61.22 161.417 61.86L158.237 81H154.877L157.997 62.22C158.117 61.54 158.197 60.9 158.237 60.3C158.277 59.7 158.297 59.18 158.297 58.74C158.297 56.66 157.797 55.08 156.797 54C155.837 52.88 154.377 52.32 152.417 52.32C149.657 52.32 147.277 53.5 145.277 55.86C144.677 56.58 143.997 57.56 143.237 58.8C142.477 60 141.937 61.48 141.617 63.24L138.677 81H135.317L142.757 36.6ZM183.594 81.72C179.754 81.72 176.814 80.62 174.774 78.42C172.734 76.18 171.714 72.84 171.714 68.4C171.714 65.68 172.114 63.16 172.914 60.84C173.714 58.52 174.834 56.5 176.274 54.78C177.754 53.06 179.494 51.72 181.494 50.76C183.534 49.8 185.774 49.32 188.214 49.32C191.254 49.32 193.694 50.02 195.534 51.42C197.414 52.78 198.354 54.74 198.354 57.3C198.354 58.34 198.094 59.44 197.574 60.6C197.094 61.76 196.054 62.84 194.454 63.84C192.854 64.84 190.514 65.7 187.434 66.42C184.394 67.14 180.334 67.56 175.254 67.68C175.214 68 175.194 68.3 175.194 68.58C175.194 68.86 175.194 69.04 175.194 69.12C175.194 70.44 175.314 71.68 175.554 72.84C175.834 74 176.294 75.04 176.934 75.96C177.614 76.84 178.514 77.54 179.634 78.06C180.754 78.58 182.174 78.84 183.894 78.84C186.294 78.84 188.334 78.22 190.014 76.98C191.694 75.74 193.314 73.84 194.874 71.28L197.334 72.78C195.614 75.78 193.674 78.02 191.514 79.5C189.354 80.98 186.714 81.72 183.594 81.72ZM187.854 52.14C184.694 52.14 182.014 53.18 179.814 55.26C177.614 57.3 176.234 60.26 175.674 64.14L175.494 65.22C179.654 65.1 182.994 64.8 185.514 64.32C188.074 63.84 190.054 63.24 191.454 62.52C192.854 61.76 193.774 60.94 194.214 60.06C194.694 59.18 194.934 58.3 194.934 57.42C194.934 55.94 194.394 54.7 193.314 53.7C192.234 52.66 190.414 52.14 187.854 52.14ZM255.547 81.72C249.467 81.72 245.047 79.74 242.287 75.78L244.807 73.8C246.047 75.52 247.547 76.8 249.307 77.64C251.067 78.44 253.227 78.84 255.787 78.84C258.827 78.84 261.227 78.24 262.987 77.04C264.787 75.84 265.687 74.1 265.687 71.82C265.687 70.14 265.167 68.96 264.127 68.28C263.087 67.6 261.707 67.16 259.987 66.96L255.427 66.42C254.267 66.26 253.147 66.04 252.067 65.76C250.987 65.44 250.027 65 249.187 64.44C248.387 63.84 247.747 63.1 247.267 62.22C246.787 61.3 246.547 60.16 246.547 58.8C246.547 57.2 246.867 55.8 247.507 54.6C248.187 53.4 249.107 52.42 250.267 51.66C251.427 50.86 252.767 50.28 254.287 49.92C255.807 49.52 257.447 49.32 259.207 49.32C262.127 49.32 264.527 49.78 266.407 50.7C268.287 51.58 269.767 52.72 270.847 54.12L268.447 56.22C268.127 55.74 267.707 55.26 267.187 54.78C266.667 54.3 266.007 53.88 265.207 53.52C264.447 53.12 263.547 52.8 262.507 52.56C261.467 52.32 260.247 52.2 258.847 52.2C255.967 52.2 253.747 52.76 252.187 53.88C250.627 54.96 249.847 56.52 249.847 58.56C249.847 59.4 249.987 60.12 250.267 60.72C250.547 61.28 250.947 61.74 251.467 62.1C251.987 62.46 252.607 62.74 253.327 62.94C254.047 63.14 254.827 63.3 255.667 63.42L260.167 64.02C261.247 64.14 262.307 64.34 263.347 64.62C264.427 64.9 265.367 65.32 266.167 65.88C267.007 66.4 267.687 67.12 268.207 68.04C268.727 68.96 268.987 70.12 268.987 71.52C268.987 73.16 268.647 74.62 267.967 75.9C267.327 77.14 266.407 78.2 265.207 79.08C264.007 79.96 262.587 80.62 260.947 81.06C259.307 81.5 257.507 81.72 255.547 81.72ZM288.763 81.72C286.683 81.72 285.643 80.68 285.643 78.6C285.643 78.04 285.703 77.28 285.823 76.32L289.843 52.92H279.703L280.183 50.04H288.043C288.883 50.04 289.523 49.86 289.963 49.5C290.403 49.14 290.703 48.52 290.863 47.64L292.303 39.12H295.483L293.683 50.04H307.663L307.183 52.92H293.203L288.943 78.18L289.783 78.66L304.603 69.24L306.283 71.4L296.143 78.06C294.223 79.38 292.723 80.32 291.643 80.88C290.603 81.44 289.643 81.72 288.763 81.72ZM334.64 81L335.84 73.86H335.66C334.46 76.22 333 78.12 331.28 79.56C329.6 81 327.4 81.72 324.68 81.72C321.44 81.72 318.96 80.68 317.24 78.6C315.56 76.48 314.72 73.54 314.72 69.78C314.72 67.34 315 64.92 315.56 62.52C316.16 60.08 317.06 57.88 318.26 55.92C319.46 53.96 320.96 52.38 322.76 51.18C324.6 49.94 326.78 49.32 329.3 49.32C331.78 49.32 333.8 49.86 335.36 50.94C336.96 52.02 338.08 53.52 338.72 55.44H338.9L339.8 50.04H343.16L338 81H334.64ZM325.64 78.72C326.92 78.72 328.16 78.48 329.36 78C330.56 77.52 331.68 76.76 332.72 75.72C333.64 74.76 334.48 73.62 335.24 72.3C336.04 70.94 336.58 69.42 336.86 67.74L338.18 60C338.34 58.96 338.28 57.98 338 57.06C337.76 56.1 337.3 55.28 336.62 54.6C335.94 53.88 335.04 53.32 333.92 52.92C332.84 52.52 331.58 52.32 330.14 52.32C328.58 52.32 327.16 52.6 325.88 53.16C324.64 53.72 323.54 54.5 322.58 55.5C321.66 56.46 320.9 57.62 320.3 58.98C319.7 60.34 319.26 61.82 318.98 63.42L318.32 67.2C318.24 67.76 318.18 68.28 318.14 68.76C318.1 69.2 318.08 69.64 318.08 70.08C318.08 72.6 318.68 74.68 319.88 76.32C321.12 77.92 323.04 78.72 325.64 78.72ZM360.717 81.72C358.637 81.72 357.597 80.68 357.597 78.6C357.597 78.04 357.657 77.28 357.777 76.32L361.797 52.92H351.657L352.137 50.04H359.997C360.837 50.04 361.477 49.86 361.917 49.5C362.357 49.14 362.657 48.52 362.817 47.64L364.257 39.12H367.437L365.637 50.04H379.617L379.137 52.92H365.157L360.897 78.18L361.737 78.66L376.557 69.24L378.237 71.4L368.097 78.06C366.177 79.38 364.677 80.32 363.597 80.88C362.557 81.44 361.597 81.72 360.717 81.72ZM399.453 81.72C395.613 81.72 392.673 80.62 390.633 78.42C388.593 76.18 387.573 72.84 387.573 68.4C387.573 65.68 387.973 63.16 388.773 60.84C389.573 58.52 390.693 56.5 392.133 54.78C393.613 53.06 395.353 51.72 397.353 50.76C399.393 49.8 401.633 49.32 404.073 49.32C407.113 49.32 409.553 50.02 411.393 51.42C413.273 52.78 414.213 54.74 414.213 57.3C414.213 58.34 413.953 59.44 413.433 60.6C412.953 61.76 411.913 62.84 410.313 63.84C408.713 64.84 406.373 65.7 403.293 66.42C400.253 67.14 396.193 67.56 391.113 67.68C391.073 68 391.053 68.3 391.053 68.58C391.053 68.86 391.053 69.04 391.053 69.12C391.053 70.44 391.173 71.68 391.413 72.84C391.693 74 392.153 75.04 392.793 75.96C393.473 76.84 394.373 77.54 395.493 78.06C396.613 78.58 398.033 78.84 399.753 78.84C402.153 78.84 404.193 78.22 405.873 76.98C407.553 75.74 409.173 73.84 410.733 71.28L413.193 72.78C411.473 75.78 409.533 78.02 407.373 79.5C405.213 80.98 402.573 81.72 399.453 81.72ZM403.713 52.14C400.553 52.14 397.873 53.18 395.673 55.26C393.473 57.3 392.093 60.26 391.533 64.14L391.353 65.22C395.513 65.1 398.853 64.8 401.373 64.32C403.933 63.84 405.913 63.24 407.313 62.52C408.713 61.76 409.633 60.94 410.073 60.06C410.553 59.18 410.793 58.3 410.793 57.42C410.793 55.94 410.253 54.7 409.173 53.7C408.093 52.66 406.273 52.14 403.713 52.14ZM470.806 81.72C468.886 81.72 467.186 81.42 465.706 80.82C464.266 80.18 463.066 79.32 462.106 78.24C461.146 77.12 460.406 75.8 459.886 74.28C459.406 72.72 459.166 71.04 459.166 69.24C459.166 66.16 459.566 63.4 460.366 60.96C461.166 58.48 462.266 56.38 463.666 54.66C465.066 52.94 466.726 51.62 468.646 50.7C470.606 49.78 472.726 49.32 475.006 49.32C476.926 49.32 478.606 49.64 480.046 50.28C481.526 50.88 482.746 51.74 483.706 52.86C484.666 53.94 485.386 55.26 485.866 56.82C486.386 58.34 486.646 60 486.646 61.8C486.646 64.88 486.246 67.66 485.446 70.14C484.646 72.58 483.546 74.66 482.146 76.38C480.746 78.1 479.066 79.42 477.106 80.34C475.186 81.26 473.086 81.72 470.806 81.72ZM471.046 78.78C474.206 78.78 476.746 77.78 478.666 75.78C480.626 73.78 481.886 71.02 482.446 67.5L482.986 64.14C483.106 63.46 483.186 62.9 483.226 62.46C483.266 62.02 483.286 61.54 483.286 61.02C483.286 58.26 482.566 56.12 481.126 54.6C479.686 53.04 477.566 52.26 474.766 52.26C471.606 52.26 469.046 53.26 467.086 55.26C465.166 57.26 463.926 60.02 463.366 63.54L462.826 66.9C462.706 67.58 462.626 68.14 462.586 68.58C462.546 69.02 462.526 69.5 462.526 70.02C462.526 72.78 463.246 74.94 464.686 76.5C466.126 78.02 468.246 78.78 471.046 78.78ZM503.063 93.72C502.623 93.72 502.203 93.64 501.803 93.48C501.403 93.32 500.963 93.06 500.483 92.7C500.043 92.34 499.523 91.88 498.923 91.32C498.363 90.76 497.663 90.06 496.823 89.22L489.923 82.44L492.203 80.34L502.703 90.72L503.483 90.54L509.783 52.92H498.503L498.983 50.04H510.263L511.643 41.58C511.883 40.06 512.443 38.86 513.323 37.98C514.243 37.06 515.543 36.6 517.223 36.6H528.683L528.203 39.48H515.363L513.563 50.04H526.523L526.043 52.92H513.143L507.083 89.1C506.883 90.38 506.483 91.46 505.883 92.34C505.283 93.26 504.343 93.72 503.063 93.72Z" fill="#2FCDEC"/>
<path d="M555.267 421H528.147L528.747 417.34L546.087 403.12C547.527 401.96 548.747 400.9 549.747 399.94C550.787 398.94 551.627 397.98 552.267 397.06C552.947 396.14 553.467 395.22 553.827 394.3C554.227 393.38 554.527 392.38 554.727 391.3C554.847 390.58 554.927 390.04 554.967 389.68C555.007 389.28 555.027 388.92 555.027 388.6C555.027 386.52 554.327 384.82 552.927 383.5C551.567 382.14 549.567 381.46 546.927 381.46C544.207 381.46 542.007 382.14 540.327 383.5C538.687 384.86 537.347 386.74 536.307 389.14L533.247 387.94C534.407 385.06 536.107 382.76 538.347 381.04C540.627 379.28 543.607 378.4 547.287 378.4C549.087 378.4 550.687 378.66 552.087 379.18C553.527 379.7 554.727 380.42 555.687 381.34C556.687 382.22 557.427 383.28 557.907 384.52C558.427 385.76 558.687 387.12 558.687 388.6C558.687 390.24 558.467 391.76 558.027 393.16C557.587 394.56 556.927 395.94 556.047 397.3C555.167 398.62 554.067 399.94 552.747 401.26C551.427 402.54 549.907 403.88 548.187 405.28L532.587 417.88H555.807L555.267 421ZM577.743 421.72C569.943 421.72 566.043 417.02 566.043 407.62C566.043 405.62 566.163 403.52 566.403 401.32C566.643 399.08 567.043 396.88 567.603 394.72C568.203 392.52 568.943 390.44 569.823 388.48C570.743 386.52 571.863 384.8 573.183 383.32C574.543 381.8 576.123 380.6 577.923 379.72C579.723 378.84 581.783 378.4 584.103 378.4C591.903 378.4 595.803 383.1 595.803 392.5C595.803 394.5 595.683 396.62 595.443 398.86C595.203 401.06 594.783 403.26 594.183 405.46C593.623 407.62 592.883 409.68 591.963 411.64C591.083 413.6 589.963 415.34 588.603 416.86C587.283 418.34 585.723 419.52 583.923 420.4C582.123 421.28 580.063 421.72 577.743 421.72ZM577.923 418.6C581.403 418.6 584.243 417.24 586.443 414.52C588.643 411.8 590.143 408 590.943 403.12L591.903 397.54C592.063 396.5 592.163 395.52 592.203 394.6C592.283 393.64 592.323 392.76 592.323 391.96C592.323 388.56 591.663 385.98 590.343 384.22C589.023 382.42 586.883 381.52 583.923 381.52C580.443 381.52 577.603 382.88 575.403 385.6C573.203 388.32 571.703 392.12 570.903 397L569.943 402.58C569.783 403.62 569.663 404.62 569.583 405.58C569.543 406.5 569.523 407.36 569.523 408.16C569.523 411.56 570.183 414.16 571.503 415.96C572.823 417.72 574.963 418.6 577.923 418.6ZM580.503 402.76C579.583 402.76 578.923 402.6 578.523 402.28C578.123 401.92 577.923 401.5 577.923 401.02C577.923 400.74 577.983 400.3 578.103 399.7C578.223 398.98 578.523 398.42 579.003 398.02C579.483 397.58 580.263 397.36 581.343 397.36C582.263 397.36 582.923 397.54 583.323 397.9C583.723 398.22 583.923 398.62 583.923 399.1C583.923 399.38 583.863 399.82 583.743 400.42C583.623 401.14 583.323 401.72 582.843 402.16C582.363 402.56 581.583 402.76 580.503 402.76ZM600.7 421L601.24 417.88H613.66L619.72 381.76H619.36L606.16 392.02L604.42 389.68L617.92 379.12H623.68L617.2 417.88H628.9L628.36 421H600.7ZM667.157 390.46C667.157 393.74 666.557 396.9 665.357 399.94C664.197 402.98 662.657 405.82 660.737 408.46C658.817 411.1 656.617 413.48 654.137 415.6C651.697 417.72 649.197 419.52 646.637 421H641.777C644.497 419.32 646.917 417.66 649.037 416.02C651.197 414.38 653.117 412.66 654.797 410.86C656.477 409.06 657.937 407.16 659.177 405.16C660.457 403.12 661.577 400.86 662.537 398.38L662.237 398.26C660.957 400.34 659.337 401.94 657.377 403.06C655.457 404.18 653.217 404.74 650.657 404.74C647.337 404.74 644.677 403.78 642.677 401.86C640.677 399.94 639.677 397.32 639.677 394C639.677 391.92 640.037 389.94 640.757 388.06C641.517 386.14 642.577 384.48 643.937 383.08C645.297 381.64 646.937 380.5 648.857 379.66C650.817 378.82 653.017 378.4 655.457 378.4C659.297 378.4 662.197 379.5 664.157 381.7C666.157 383.86 667.157 386.78 667.157 390.46ZM651.857 401.8C654.977 401.8 657.537 400.94 659.537 399.22C661.577 397.46 662.857 395.12 663.377 392.2C663.457 391.52 663.517 390.98 663.557 390.58C663.637 390.14 663.677 389.72 663.677 389.32C663.677 386.88 662.957 384.96 661.517 383.56C660.077 382.12 657.937 381.4 655.097 381.4C651.977 381.4 649.397 382.28 647.357 384.04C645.357 385.76 644.097 388.08 643.577 391C643.497 391.68 643.417 392.24 643.337 392.68C643.297 393.08 643.277 393.48 643.277 393.88C643.277 396.32 643.997 398.26 645.437 399.7C646.877 401.1 649.017 401.8 651.857 401.8Z" fill="#2FCDEC"/>
<line y1="-0.5" x2="331.002" y2="-0.5" transform="matrix(-0.00302113 0.999995 -1 0 689 66)" stroke="#A2C7CE" stroke-dasharray="8 3"/>
<line y1="-0.5" x2="331.002" y2="-0.5" transform="matrix(-0.00302113 0.999995 -1 0 563 66)" stroke="#A2C7CE" stroke-dasharray="8 3"/>
<line y1="-0.5" x2="331.002" y2="-0.5" transform="matrix(-0.00302113 0.999995 -1 0 436 66)" stroke="#A2C7CE" stroke-dasharray="8 3"/>
<line y1="-0.5" x2="331.002" y2="-0.5" transform="matrix(-0.00302113 0.999995 -1 0 511 66)" stroke="#A2C7CE" stroke-dasharray="8 3"/>
<line y1="-0.5" x2="331.002" y2="-0.5" transform="matrix(-0.00302113 0.999995 -1 0 385 66)" stroke="#A2C7CE" stroke-dasharray="8 3"/>
<line x1="257.5" y1="66" x2="257.5" y2="397" stroke="#A2C7CE" stroke-dasharray="8 3"/>
<line y1="-0.5" x2="331.002" y2="-0.5" transform="matrix(-0.00302113 0.999995 -1 0 334 66)" stroke="#A2C7CE" stroke-dasharray="8 3"/>
<line x1="79.5" y1="66" x2="79.5" y2="397" stroke="#A2C7CE" stroke-dasharray="8 3"/>
<line x1="206.5" y1="66" x2="206.5" y2="397" stroke="#A2C7CE" stroke-dasharray="8 3"/>
<circle cx="562.5" cy="230.5" r="126.5" stroke="#A2C7CE" stroke-width="2"/>
<circle cx="562" cy="230" r="96" stroke="#A2C7CE" stroke-width="2"/>
<circle cx="384.5" cy="230.5" r="126.5" stroke="#A2C7CE" stroke-width="2"/>
<circle cx="384" cy="231" r="96" stroke="#A2C7CE" stroke-width="2"/>
<circle cx="206.5" cy="230.5" r="126.5" stroke="#A2C7CE" stroke-width="2"/>
<circle cx="206" cy="232" r="96" stroke="#A2C7CE" stroke-width="2"/>
<line y1="-0.5" x2="686.999" y2="-0.5" transform="matrix(1 -0.000572954 0.000434387 1 41 231.394)" stroke="#A2C7CE" stroke-dasharray="8 3"/>
<line y1="-0.5" x2="686.999" y2="-0.5" transform="matrix(1 -0.000572954 0.000434387 1 41 103.394)" stroke="#A2C7CE" stroke-dasharray="8 3"/>
<line y1="-0.5" x2="686.999" y2="-0.5" transform="matrix(1 -0.000572954 0.000434387 1 41 358.394)" stroke="#A2C7CE" stroke-dasharray="8 3"/>
<line x1="435.354" y1="103.647" x2="689.354" y2="358.647" stroke="#A2C7CE" stroke-dasharray="8 3"/>
<line x1="434.646" y1="358.641" x2="688.657" y2="103.653" stroke="#A2C7CE" stroke-dasharray="8 3"/>
<mask id="mask0" mask-type="alpha" maskUnits="userSpaceOnUse" x="493" y="135" width="137" height="194">
<path d="M602.5 189.5C599.111 184.647 590.053 178.853 584.507 176.08C579.116 173.133 573.879 171.66 568.796 171.66C566.177 171.66 563.482 171.92 560.709 172.44C558.09 172.96 555.703 174 553.546 175.56C551.39 176.947 549.541 178.853 548.001 181.28C546.615 183.533 545.921 186.48 545.921 190.12C545.921 193.24 546.461 195.84 547.539 197.92C548.771 200 550.466 201.82 552.622 203.38C554.933 204.94 557.628 206.413 560.709 207.8C563.79 209.013 567.255 210.313 571.106 211.7C576.652 213.78 582.428 216.12 588.435 218.72C594.443 221.147 599.911 224.44 604.84 228.6C609.769 232.76 613.851 237.96 617.086 244.2C620.321 250.267 621.938 257.893 621.938 267.08C621.938 277.653 620.167 286.84 616.624 294.64C613.235 302.267 608.614 308.593 602.761 313.62C596.907 318.647 590.207 322.373 582.659 324.8C575.111 327.227 567.332 328.44 559.323 328.44C547.616 328.44 536.294 326.187 525.358 321.68C514.421 317 500.74 306.993 493.5 298.5L521.5 270.5C525.505 276.047 533.214 282.507 539.683 286.32C546.307 289.96 552.853 291.78 559.323 291.78C562.249 291.78 565.099 291.433 567.872 290.74C570.644 290.047 573.032 288.92 575.034 287.36C577.191 285.8 578.885 283.72 580.117 281.12C581.35 278.52 581.966 275.4 581.966 271.76C581.966 268.293 581.196 265.347 579.655 262.92C578.115 260.493 575.881 258.327 572.955 256.42C570.182 254.34 566.639 252.52 562.326 250.96C558.167 249.227 553.392 247.407 548.001 245.5C542.764 243.593 537.604 241.34 532.52 238.74C527.591 236.14 523.124 232.847 519.119 228.86C515.268 224.7 512.111 219.76 509.646 214.04C507.336 208.147 506.18 201.04 506.18 192.72C506.18 182.493 508.029 173.74 511.726 166.46C515.422 159.18 520.275 153.2 526.282 148.52C532.289 143.84 539.067 140.46 546.615 138.38C554.162 136.127 561.787 135 569.489 135C578.731 135 588.127 136.907 597.677 140.72C607.382 144.533 622.76 154.547 630 162L602.5 189.5Z" fill="#C4C4C4"/>
</mask>
<g mask="url(#mask0)">
<mask id="mask1" mask-type="alpha" maskUnits="userSpaceOnUse" x="393" y="53" width="339" height="339">
<rect x="393" y="53" width="339" height="339" fill="#AE7676"/>
</mask>
<g mask="url(#mask1)">
<line x1="-14.7071" y1="461.293" x2="634.293" y2="-187.707" stroke="#A2C7CE" stroke-width="2"/>
<line x1="-3.70711" y1="461.293" x2="645.293" y2="-187.707" stroke="#A2C7CE" stroke-width="2"/>
<line x1="7.29289" y1="461.293" x2="656.293" y2="-187.707" stroke="#A2C7CE" stroke-width="2"/>
<line x1="18.2929" y1="461.293" x2="667.293" y2="-187.707" stroke="#A2C7CE" stroke-width="2"/>
<line x1="29.2929" y1="461.293" x2="678.293" y2="-187.707" stroke="#A2C7CE" stroke-width="2"/>
<line x1="40.2929" y1="461.293" x2="689.293" y2="-187.707" stroke="#A2C7CE" stroke-width="2"/>
<line x1="51.2929" y1="461.293" x2="700.293" y2="-187.707" stroke="#A2C7CE" stroke-width="2"/>
<line x1="62.2929" y1="461.293" x2="711.293" y2="-187.707" stroke="#A2C7CE" stroke-width="2"/>
<line x1="73.2929" y1="461.293" x2="722.293" y2="-187.707" stroke="#A2C7CE" stroke-width="2"/>
<line x1="84.2929" y1="461.293" x2="733.293" y2="-187.707" stroke="#A2C7CE" stroke-width="2"/>
<line x1="95.2929" y1="461.293" x2="744.293" y2="-187.707" stroke="#A2C7CE" stroke-width="2"/>
<line x1="106.293" y1="461.293" x2="755.293" y2="-187.707" stroke="#A2C7CE" stroke-width="2"/>
<line x1="117.293" y1="461.293" x2="766.293" y2="-187.707" stroke="#A2C7CE" stroke-width="2"/>
<line x1="128.293" y1="461.293" x2="777.293" y2="-187.707" stroke="#A2C7CE" stroke-width="2"/>
<line x1="139.293" y1="461.293" x2="788.293" y2="-187.707" stroke="#A2C7CE" stroke-width="2"/>
<line x1="150.293" y1="461.293" x2="799.293" y2="-187.707" stroke="#A2C7CE" stroke-width="2"/>
<line x1="161.293" y1="461.293" x2="810.293" y2="-187.707" stroke="#A2C7CE" stroke-width="2"/>
<line x1="172.293" y1="461.293" x2="821.293" y2="-187.707" stroke="#A2C7CE" stroke-width="2"/>
<line x1="183.293" y1="461.293" x2="832.293" y2="-187.707" stroke="#A2C7CE" stroke-width="2"/>
<line x1="194.293" y1="461.293" x2="843.293" y2="-187.707" stroke="#A2C7CE" stroke-width="2"/>
<line x1="205.293" y1="461.293" x2="854.293" y2="-187.707" stroke="#A2C7CE" stroke-width="2"/>
<line x1="216.293" y1="461.293" x2="865.293" y2="-187.707" stroke="#A2C7CE" stroke-width="2"/>
<line x1="227.293" y1="461.293" x2="876.293" y2="-187.707" stroke="#A2C7CE" stroke-width="2"/>
<line x1="238.293" y1="461.293" x2="887.293" y2="-187.707" stroke="#A2C7CE" stroke-width="2"/>
<line x1="249.293" y1="461.293" x2="898.293" y2="-187.707" stroke="#A2C7CE" stroke-width="2"/>
<line x1="260.293" y1="461.293" x2="909.293" y2="-187.707" stroke="#A2C7CE" stroke-width="2"/>
<line x1="271.293" y1="461.293" x2="920.293" y2="-187.707" stroke="#A2C7CE" stroke-width="2"/>
<line x1="282.293" y1="461.293" x2="931.293" y2="-187.707" stroke="#A2C7CE" stroke-width="2"/>
<line x1="293.293" y1="461.293" x2="942.293" y2="-187.707" stroke="#A2C7CE" stroke-width="2"/>
<line x1="304.293" y1="461.293" x2="953.293" y2="-187.707" stroke="#A2C7CE" stroke-width="2"/>
<line x1="315.293" y1="461.293" x2="964.293" y2="-187.707" stroke="#A2C7CE" stroke-width="2"/>
<line x1="326.293" y1="461.293" x2="975.293" y2="-187.707" stroke="#A2C7CE" stroke-width="2"/>
<line x1="337.293" y1="461.293" x2="986.293" y2="-187.707" stroke="#A2C7CE" stroke-width="2"/>
<line x1="348.293" y1="461.293" x2="997.293" y2="-187.707" stroke="#A2C7CE" stroke-width="2"/>
<line x1="359.293" y1="461.293" x2="1008.29" y2="-187.707" stroke="#A2C7CE" stroke-width="2"/>
<line x1="370.293" y1="461.293" x2="1019.29" y2="-187.707" stroke="#A2C7CE" stroke-width="2"/>
<line x1="381.293" y1="461.293" x2="1030.29" y2="-187.707" stroke="#A2C7CE" stroke-width="2"/>
<line x1="392.293" y1="461.293" x2="1041.29" y2="-187.707" stroke="#A2C7CE" stroke-width="2"/>
<line x1="403.293" y1="461.293" x2="1052.29" y2="-187.707" stroke="#A2C7CE" stroke-width="2"/>
<line x1="414.293" y1="461.293" x2="1063.29" y2="-187.707" stroke="#A2C7CE" stroke-width="2"/>
<line x1="425.293" y1="461.293" x2="1074.29" y2="-187.707" stroke="#A2C7CE" stroke-width="2"/>
<line x1="436.293" y1="461.293" x2="1085.29" y2="-187.707" stroke="#A2C7CE" stroke-width="2"/>
<line x1="447.293" y1="461.293" x2="1096.29" y2="-187.707" stroke="#A2C7CE" stroke-width="2"/>
<line x1="458.293" y1="461.293" x2="1107.29" y2="-187.707" stroke="#A2C7CE" stroke-width="2"/>
<line x1="469.293" y1="461.293" x2="1118.29" y2="-187.707" stroke="#A2C7CE" stroke-width="2"/>
<line x1="480.293" y1="461.293" x2="1129.29" y2="-187.707" stroke="#A2C7CE" stroke-width="2"/>
<line x1="491.293" y1="461.293" x2="1140.29" y2="-187.707" stroke="#A2C7CE" stroke-width="2"/>
<line x1="502.293" y1="461.293" x2="1151.29" y2="-187.707" stroke="#A2C7CE" stroke-width="2"/>
<line x1="513.293" y1="461.293" x2="1162.29" y2="-187.707" stroke="#A2C7CE" stroke-width="2"/>
<line x1="524.293" y1="461.293" x2="1173.29" y2="-187.707" stroke="#A2C7CE" stroke-width="2"/>
<line x1="535.293" y1="461.293" x2="1184.29" y2="-187.707" stroke="#A2C7CE" stroke-width="2"/>
<line x1="546.293" y1="461.293" x2="1195.29" y2="-187.707" stroke="#A2C7CE" stroke-width="2"/>
<line x1="557.293" y1="461.293" x2="1206.29" y2="-187.707" stroke="#A2C7CE" stroke-width="2"/>
<line x1="568.293" y1="461.293" x2="1217.29" y2="-187.707" stroke="#A2C7CE" stroke-width="2"/>
<line x1="579.293" y1="461.293" x2="1228.29" y2="-187.707" stroke="#A2C7CE" stroke-width="2"/>
<line x1="590.293" y1="461.293" x2="1239.29" y2="-187.707" stroke="#A2C7CE" stroke-width="2"/>
<line x1="601.293" y1="461.293" x2="1250.29" y2="-187.707" stroke="#A2C7CE" stroke-width="2"/>
<line x1="612.293" y1="461.293" x2="1261.29" y2="-187.707" stroke="#A2C7CE" stroke-width="2"/>
<line x1="623.293" y1="461.293" x2="1272.29" y2="-187.707" stroke="#A2C7CE" stroke-width="2"/>
</g>
</g>
<path d="M495.554 298.567L521.349 272.772C525.693 278.172 532.854 284.036 538.921 287.612L538.941 287.624L538.961 287.635C545.768 291.376 552.561 293.28 559.323 293.28C562.369 293.28 565.341 292.919 568.235 292.195C571.176 291.46 573.752 290.255 575.935 288.56C578.302 286.842 580.146 284.563 581.473 281.762C582.822 278.916 583.466 275.565 583.466 271.76C583.466 268.068 582.644 264.829 580.922 262.116C579.252 259.485 576.864 257.183 573.815 255.19C570.906 253.016 567.246 251.147 562.87 249.562C558.69 247.82 553.901 245.996 548.508 244.088C543.335 242.205 538.236 239.978 533.212 237.409C528.429 234.885 524.092 231.69 520.199 227.819C516.489 223.806 513.431 219.028 511.034 213.469C508.815 207.8 507.68 200.897 507.68 192.72C507.68 182.671 509.497 174.162 513.063 167.139C516.667 160.041 521.383 154.238 527.204 149.703C533.051 145.148 539.65 141.855 547.013 139.826L547.028 139.822L547.044 139.817C554.455 137.605 561.936 136.5 569.489 136.5C578.52 136.5 587.728 138.362 597.121 142.113L597.129 142.116C606.394 145.757 619.672 152.751 629.392 162.487L604.382 187.497C599.169 183.438 590.514 177.412 585.203 174.751C579.645 171.717 574.17 170.16 568.796 170.16C566.078 170.16 563.289 170.43 560.432 170.966L560.425 170.967L560.417 170.969C557.6 171.528 555.024 172.647 552.7 174.321C550.355 175.837 548.369 177.901 546.735 180.476L546.729 180.485L546.723 180.494C545.147 183.057 544.421 186.303 544.421 190.12C544.421 193.404 544.988 196.258 546.207 198.61L546.227 198.648L546.248 198.685C547.596 200.959 549.437 202.927 551.743 204.595L551.763 204.61L551.783 204.623C554.177 206.24 556.95 207.753 560.093 209.168L560.126 209.183L560.159 209.196C563.254 210.415 566.731 211.719 570.589 213.108C576.106 215.178 581.856 217.507 587.84 220.097L587.856 220.104L587.874 220.111C593.734 222.478 599.066 225.689 603.873 229.746C608.639 233.769 612.602 238.809 615.754 244.89L615.758 244.898L615.762 244.906C618.849 250.695 620.438 258.06 620.438 267.08C620.438 277.488 618.694 286.455 615.258 294.02L615.253 294.031C611.947 301.471 607.455 307.612 601.783 312.482C596.086 317.375 589.563 321.005 582.2 323.372C574.802 325.75 567.178 326.94 559.323 326.94C547.817 326.94 536.693 324.727 525.938 320.297C515.651 315.893 502.835 306.643 495.554 298.567Z" stroke="#217889" stroke-width="3"/>
<line x1="257.354" y1="102.647" x2="511.354" y2="357.647" stroke="#A2C7CE" stroke-dasharray="8 3"/>
<line x1="256.646" y1="357.641" x2="510.657" y2="102.653" stroke="#A2C7CE" stroke-dasharray="8 3"/>
<mask id="mask2" mask-type="alpha" maskUnits="userSpaceOnUse" x="315" y="135" width="137" height="194">
<path d="M424.5 189.5C421.111 184.647 412.053 178.853 406.507 176.08C401.116 173.133 395.879 171.66 390.796 171.66C388.177 171.66 385.482 171.92 382.709 172.44C380.09 172.96 377.703 174 375.546 175.56C373.39 176.947 371.541 178.853 370.001 181.28C368.615 183.533 367.921 186.48 367.921 190.12C367.921 193.24 368.461 195.84 369.539 197.92C370.771 200 372.466 201.82 374.622 203.38C376.933 204.94 379.628 206.413 382.709 207.8C385.79 209.013 389.255 210.313 393.106 211.7C398.652 213.78 404.428 216.12 410.435 218.72C416.443 221.147 421.911 224.44 426.84 228.6C431.769 232.76 435.851 237.96 439.086 244.2C442.321 250.267 443.938 257.893 443.938 267.08C443.938 277.653 442.167 286.84 438.624 294.64C435.235 302.267 430.614 308.593 424.761 313.62C418.907 318.647 412.207 322.373 404.659 324.8C397.111 327.227 389.332 328.44 381.323 328.44C369.616 328.44 358.294 326.187 347.358 321.68C336.421 317 322.74 306.993 315.5 298.5L343.5 270.5C347.505 276.047 355.214 282.507 361.683 286.32C368.307 289.96 374.853 291.78 381.323 291.78C384.249 291.78 387.099 291.433 389.872 290.74C392.644 290.047 395.032 288.92 397.034 287.36C399.191 285.8 400.885 283.72 402.117 281.12C403.35 278.52 403.966 275.4 403.966 271.76C403.966 268.293 403.196 265.347 401.655 262.92C400.115 260.493 397.881 258.327 394.955 256.42C392.182 254.34 388.639 252.52 384.326 250.96C380.167 249.227 375.392 247.407 370.001 245.5C364.764 243.593 359.604 241.34 354.52 238.74C349.591 236.14 345.124 232.847 341.119 228.86C337.268 224.7 334.111 219.76 331.646 214.04C329.336 208.147 328.18 201.04 328.18 192.72C328.18 182.493 330.029 173.74 333.726 166.46C337.422 159.18 342.275 153.2 348.282 148.52C354.289 143.84 361.067 140.46 368.615 138.38C376.162 136.127 383.787 135 391.489 135C400.731 135 410.127 136.907 419.677 140.72C429.382 144.533 444.76 154.547 452 162L424.5 189.5Z" fill="#C4C4C4"/>
</mask>
<g mask="url(#mask2)">
<mask id="mask3" mask-type="alpha" maskUnits="userSpaceOnUse" x="197" y="52" width="339" height="339">
<rect x="197" y="52" width="339" height="339" fill="#AE7676"/>
</mask>
<g mask="url(#mask3)">
<line x1="-210.707" y1="460.293" x2="438.293" y2="-188.707" stroke="#A2C7CE" stroke-width="2"/>
<line x1="-199.707" y1="460.293" x2="449.293" y2="-188.707" stroke="#A2C7CE" stroke-width="2"/>
<line x1="-188.707" y1="460.293" x2="460.293" y2="-188.707" stroke="#A2C7CE" stroke-width="2"/>
<line x1="-177.707" y1="460.293" x2="471.293" y2="-188.707" stroke="#A2C7CE" stroke-width="2"/>
<line x1="-166.707" y1="460.293" x2="482.293" y2="-188.707" stroke="#A2C7CE" stroke-width="2"/>
<line x1="-155.707" y1="460.293" x2="493.293" y2="-188.707" stroke="#A2C7CE" stroke-width="2"/>
<line x1="-144.707" y1="460.293" x2="504.293" y2="-188.707" stroke="#A2C7CE" stroke-width="2"/>
<line x1="-133.707" y1="460.293" x2="515.293" y2="-188.707" stroke="#A2C7CE" stroke-width="2"/>
<line x1="-122.707" y1="460.293" x2="526.293" y2="-188.707" stroke="#A2C7CE" stroke-width="2"/>
<line x1="-111.707" y1="460.293" x2="537.293" y2="-188.707" stroke="#A2C7CE" stroke-width="2"/>
<line x1="-100.707" y1="460.293" x2="548.293" y2="-188.707" stroke="#A2C7CE" stroke-width="2"/>
<line x1="-89.7071" y1="460.293" x2="559.293" y2="-188.707" stroke="#A2C7CE" stroke-width="2"/>
<line x1="-78.7071" y1="460.293" x2="570.293" y2="-188.707" stroke="#A2C7CE" stroke-width="2"/>
<line x1="-67.7071" y1="460.293" x2="581.293" y2="-188.707" stroke="#A2C7CE" stroke-width="2"/>
<line x1="-56.7071" y1="460.293" x2="592.293" y2="-188.707" stroke="#A2C7CE" stroke-width="2"/>
<line x1="-45.7071" y1="460.293" x2="603.293" y2="-188.707" stroke="#A2C7CE" stroke-width="2"/>
<line x1="-34.7071" y1="460.293" x2="614.293" y2="-188.707" stroke="#A2C7CE" stroke-width="2"/>
<line x1="-23.7071" y1="460.293" x2="625.293" y2="-188.707" stroke="#A2C7CE" stroke-width="2"/>
<line x1="-12.7071" y1="460.293" x2="636.293" y2="-188.707" stroke="#A2C7CE" stroke-width="2"/>
<line x1="-1.70711" y1="460.293" x2="647.293" y2="-188.707" stroke="#A2C7CE" stroke-width="2"/>
<line x1="9.29289" y1="460.293" x2="658.293" y2="-188.707" stroke="#A2C7CE" stroke-width="2"/>
<line x1="20.2929" y1="460.293" x2="669.293" y2="-188.707" stroke="#A2C7CE" stroke-width="2"/>
<line x1="31.2929" y1="460.293" x2="680.293" y2="-188.707" stroke="#A2C7CE" stroke-width="2"/>
<line x1="42.2929" y1="460.293" x2="691.293" y2="-188.707" stroke="#A2C7CE" stroke-width="2"/>
<line x1="53.2929" y1="460.293" x2="702.293" y2="-188.707" stroke="#A2C7CE" stroke-width="2"/>
<line x1="64.2929" y1="460.293" x2="713.293" y2="-188.707" stroke="#A2C7CE" stroke-width="2"/>
<line x1="75.2929" y1="460.293" x2="724.293" y2="-188.707" stroke="#A2C7CE" stroke-width="2"/>
<line x1="86.2929" y1="460.293" x2="735.293" y2="-188.707" stroke="#A2C7CE" stroke-width="2"/>
<line x1="97.2929" y1="460.293" x2="746.293" y2="-188.707" stroke="#A2C7CE" stroke-width="2"/>
<line x1="108.293" y1="460.293" x2="757.293" y2="-188.707" stroke="#A2C7CE" stroke-width="2"/>
<line x1="119.293" y1="460.293" x2="768.293" y2="-188.707" stroke="#A2C7CE" stroke-width="2"/>
<line x1="130.293" y1="460.293" x2="779.293" y2="-188.707" stroke="#A2C7CE" stroke-width="2"/>
<line x1="141.293" y1="460.293" x2="790.293" y2="-188.707" stroke="#A2C7CE" stroke-width="2"/>
<line x1="152.293" y1="460.293" x2="801.293" y2="-188.707" stroke="#A2C7CE" stroke-width="2"/>
<line x1="163.293" y1="460.293" x2="812.293" y2="-188.707" stroke="#A2C7CE" stroke-width="2"/>
<line x1="174.293" y1="460.293" x2="823.293" y2="-188.707" stroke="#A2C7CE" stroke-width="2"/>
<line x1="185.293" y1="460.293" x2="834.293" y2="-188.707" stroke="#A2C7CE" stroke-width="2"/>
<line x1="196.293" y1="460.293" x2="845.293" y2="-188.707" stroke="#A2C7CE" stroke-width="2"/>
<line x1="207.293" y1="460.293" x2="856.293" y2="-188.707" stroke="#A2C7CE" stroke-width="2"/>
<line x1="218.293" y1="460.293" x2="867.293" y2="-188.707" stroke="#A2C7CE" stroke-width="2"/>
<line x1="229.293" y1="460.293" x2="878.293" y2="-188.707" stroke="#A2C7CE" stroke-width="2"/>
<line x1="240.293" y1="460.293" x2="889.293" y2="-188.707" stroke="#A2C7CE" stroke-width="2"/>
<line x1="251.293" y1="460.293" x2="900.293" y2="-188.707" stroke="#A2C7CE" stroke-width="2"/>
<line x1="262.293" y1="460.293" x2="911.293" y2="-188.707" stroke="#A2C7CE" stroke-width="2"/>
<line x1="273.293" y1="460.293" x2="922.293" y2="-188.707" stroke="#A2C7CE" stroke-width="2"/>
<line x1="284.293" y1="460.293" x2="933.293" y2="-188.707" stroke="#A2C7CE" stroke-width="2"/>
<line x1="295.293" y1="460.293" x2="944.293" y2="-188.707" stroke="#A2C7CE" stroke-width="2"/>
<line x1="306.293" y1="460.293" x2="955.293" y2="-188.707" stroke="#A2C7CE" stroke-width="2"/>
<line x1="317.293" y1="460.293" x2="966.293" y2="-188.707" stroke="#A2C7CE" stroke-width="2"/>
<line x1="328.293" y1="460.293" x2="977.293" y2="-188.707" stroke="#A2C7CE" stroke-width="2"/>
<line x1="339.293" y1="460.293" x2="988.293" y2="-188.707" stroke="#A2C7CE" stroke-width="2"/>
<line x1="350.293" y1="460.293" x2="999.293" y2="-188.707" stroke="#A2C7CE" stroke-width="2"/>
<line x1="361.293" y1="460.293" x2="1010.29" y2="-188.707" stroke="#A2C7CE" stroke-width="2"/>
<line x1="372.293" y1="460.293" x2="1021.29" y2="-188.707" stroke="#A2C7CE" stroke-width="2"/>
<line x1="383.293" y1="460.293" x2="1032.29" y2="-188.707" stroke="#A2C7CE" stroke-width="2"/>
<line x1="394.293" y1="460.293" x2="1043.29" y2="-188.707" stroke="#A2C7CE" stroke-width="2"/>
<line x1="405.293" y1="460.293" x2="1054.29" y2="-188.707" stroke="#A2C7CE" stroke-width="2"/>
<line x1="416.293" y1="460.293" x2="1065.29" y2="-188.707" stroke="#A2C7CE" stroke-width="2"/>
<line x1="427.293" y1="460.293" x2="1076.29" y2="-188.707" stroke="#A2C7CE" stroke-width="2"/>
<line x1="438.293" y1="460.293" x2="1087.29" y2="-188.707" stroke="#A2C7CE" stroke-width="2"/>
<line x1="449.293" y1="460.293" x2="1098.29" y2="-188.707" stroke="#A2C7CE" stroke-width="2"/>
</g>
</g>
<path d="M317.047 298.557L342.86 272.283C347.269 277.747 354.849 284.033 360.921 287.612L360.941 287.624L360.961 287.635C367.768 291.376 374.561 293.28 381.323 293.28C384.369 293.28 387.341 292.919 390.235 292.195C393.176 291.46 395.752 290.255 397.935 288.56C400.302 286.842 402.146 284.563 403.473 281.762C404.822 278.916 405.466 275.565 405.466 271.76C405.466 268.068 404.644 264.829 402.922 262.116C401.252 259.485 398.864 257.183 395.815 255.19C392.906 253.016 389.246 251.147 384.87 249.562C380.69 247.82 375.901 245.996 370.508 244.088C365.335 242.205 360.236 239.978 355.212 237.409C350.429 234.885 346.092 231.69 342.199 227.819C338.489 223.806 335.431 219.028 333.034 213.469C330.815 207.8 329.68 200.897 329.68 192.72C329.68 182.671 331.497 174.162 335.063 167.139C338.667 160.041 343.383 154.238 349.204 149.703C355.051 145.148 361.65 141.855 369.013 139.826L369.028 139.822L369.044 139.817C376.455 137.605 383.936 136.5 391.489 136.5C400.52 136.5 409.728 138.362 419.121 142.113L419.129 142.116C423.849 143.971 430.024 147.368 435.94 151.249C441.3 154.765 446.36 158.622 449.876 162.003L424.636 187.243C422.728 185.032 419.996 182.786 417.181 180.787C413.746 178.347 410.04 176.172 407.203 174.751C401.645 171.717 396.17 170.16 390.796 170.16C388.078 170.16 385.289 170.43 382.432 170.966L382.425 170.967L382.417 170.969C379.6 171.528 377.024 172.647 374.7 174.321C372.355 175.837 370.369 177.901 368.735 180.476L368.729 180.485L368.723 180.494C367.147 183.057 366.421 186.303 366.421 190.12C366.421 193.404 366.988 196.258 368.207 198.61L368.227 198.648L368.248 198.685C369.596 200.959 371.437 202.927 373.743 204.595L373.763 204.61L373.783 204.623C376.177 206.24 378.95 207.753 382.093 209.168L382.126 209.183L382.159 209.196C385.254 210.415 388.731 211.719 392.589 213.108C398.106 215.178 403.856 217.507 409.84 220.097L409.856 220.104L409.874 220.111C415.734 222.478 421.066 225.689 425.873 229.746C430.639 233.769 434.602 238.809 437.754 244.89L437.758 244.898L437.762 244.906C440.849 250.695 442.438 258.06 442.438 267.08C442.438 277.488 440.694 286.455 437.258 294.02L437.253 294.031C433.947 301.471 429.455 307.612 423.783 312.482C418.086 317.375 411.563 321.005 404.2 323.372C396.802 325.75 389.178 326.94 381.323 326.94C369.817 326.94 358.693 324.727 347.938 320.297C337.628 315.883 324.353 306.621 317.047 298.557Z" stroke="#217889" stroke-width="3"/>
<line x1="79.3542" y1="102.647" x2="333.354" y2="357.647" stroke="#A2C7CE" stroke-dasharray="8 3"/>
<line x1="78.6458" y1="357.641" x2="332.657" y2="102.653" stroke="#A2C7CE" stroke-dasharray="8 3"/>
<mask id="mask4" mask-type="alpha" maskUnits="userSpaceOnUse" x="110" y="135" width="164" height="194">
<path d="M274 298.574C266.167 307.936 256.5 315.391 245 320.938C233.5 326.313 220.25 329 205.25 329C191.583 329 178.917 326.66 167.25 321.979C155.75 317.298 145.75 310.71 137.25 302.214C128.75 293.546 122.083 283.231 117.25 271.268C112.417 259.306 110 246.13 110 231.74C110 217.004 112.417 203.654 117.25 191.692C122.25 179.729 129.083 169.587 137.75 161.265C146.417 152.77 156.583 146.269 168.25 141.761C179.917 137.254 192.5 135 206 135C218.5 135 230.75 137.34 242.75 142.021C254.917 146.529 264.75 153.204 272.25 162.046L243.25 192.212C239.25 186.491 234 182.243 227.5 179.469C221 176.695 214.333 175.308 207.5 175.308C200 175.308 193.083 176.782 186.75 179.729C180.583 182.503 175.25 186.404 170.75 191.432C166.25 196.459 162.75 202.441 160.25 209.375C157.75 216.137 156.5 223.592 156.5 231.74C156.5 240.062 157.75 247.69 160.25 254.625C162.75 261.559 166.167 267.541 170.5 272.568C175 277.423 180.333 281.237 186.5 284.011C192.667 286.785 199.417 288.172 206.75 288.172C215.25 288.172 222.667 286.438 229 282.971C235.333 279.503 240.417 274.996 244.25 269.448L274 298.574Z" fill="#C4C4C4"/>
</mask>
<g mask="url(#mask4)">
<mask id="mask5" mask-type="alpha" maskUnits="userSpaceOnUse" x="35" y="52" width="339" height="339">
<rect x="35" y="52" width="339" height="339" fill="#AE7676"/>
</mask>
<g mask="url(#mask5)">
<line x1="-372.707" y1="460.293" x2="276.293" y2="-188.707" stroke="#A2C7CE" stroke-width="2"/>
<line x1="-361.707" y1="460.293" x2="287.293" y2="-188.707" stroke="#A2C7CE" stroke-width="2"/>
<line x1="-350.707" y1="460.293" x2="298.293" y2="-188.707" stroke="#A2C7CE" stroke-width="2"/>
<line x1="-339.707" y1="460.293" x2="309.293" y2="-188.707" stroke="#A2C7CE" stroke-width="2"/>
<line x1="-328.707" y1="460.293" x2="320.293" y2="-188.707" stroke="#A2C7CE" stroke-width="2"/>
<line x1="-317.707" y1="460.293" x2="331.293" y2="-188.707" stroke="#A2C7CE" stroke-width="2"/>
<line x1="-306.707" y1="460.293" x2="342.293" y2="-188.707" stroke="#A2C7CE" stroke-width="2"/>
<line x1="-295.707" y1="460.293" x2="353.293" y2="-188.707" stroke="#A2C7CE" stroke-width="2"/>
<line x1="-284.707" y1="460.293" x2="364.293" y2="-188.707" stroke="#A2C7CE" stroke-width="2"/>
<line x1="-273.707" y1="460.293" x2="375.293" y2="-188.707" stroke="#A2C7CE" stroke-width="2"/>
<line x1="-262.707" y1="460.293" x2="386.293" y2="-188.707" stroke="#A2C7CE" stroke-width="2"/>
<line x1="-251.707" y1="460.293" x2="397.293" y2="-188.707" stroke="#A2C7CE" stroke-width="2"/>
<line x1="-240.707" y1="460.293" x2="408.293" y2="-188.707" stroke="#A2C7CE" stroke-width="2"/>
<line x1="-229.707" y1="460.293" x2="419.293" y2="-188.707" stroke="#A2C7CE" stroke-width="2"/>
<line x1="-218.707" y1="460.293" x2="430.293" y2="-188.707" stroke="#A2C7CE" stroke-width="2"/>
<line x1="-207.707" y1="460.293" x2="441.293" y2="-188.707" stroke="#A2C7CE" stroke-width="2"/>
<line x1="-196.707" y1="460.293" x2="452.293" y2="-188.707" stroke="#A2C7CE" stroke-width="2"/>
<line x1="-185.707" y1="460.293" x2="463.293" y2="-188.707" stroke="#A2C7CE" stroke-width="2"/>
<line x1="-174.707" y1="460.293" x2="474.293" y2="-188.707" stroke="#A2C7CE" stroke-width="2"/>
<line x1="-163.707" y1="460.293" x2="485.293" y2="-188.707" stroke="#A2C7CE" stroke-width="2"/>
<line x1="-152.707" y1="460.293" x2="496.293" y2="-188.707" stroke="#A2C7CE" stroke-width="2"/>
<line x1="-141.707" y1="460.293" x2="507.293" y2="-188.707" stroke="#A2C7CE" stroke-width="2"/>
<line x1="-130.707" y1="460.293" x2="518.293" y2="-188.707" stroke="#A2C7CE" stroke-width="2"/>
<line x1="-119.707" y1="460.293" x2="529.293" y2="-188.707" stroke="#A2C7CE" stroke-width="2"/>
<line x1="-108.707" y1="460.293" x2="540.293" y2="-188.707" stroke="#A2C7CE" stroke-width="2"/>
<line x1="-97.7071" y1="460.293" x2="551.293" y2="-188.707" stroke="#A2C7CE" stroke-width="2"/>
<line x1="-86.7071" y1="460.293" x2="562.293" y2="-188.707" stroke="#A2C7CE" stroke-width="2"/>
<line x1="-75.7071" y1="460.293" x2="573.293" y2="-188.707" stroke="#A2C7CE" stroke-width="2"/>
<line x1="-64.7071" y1="460.293" x2="584.293" y2="-188.707" stroke="#A2C7CE" stroke-width="2"/>
<line x1="-53.7071" y1="460.293" x2="595.293" y2="-188.707" stroke="#A2C7CE" stroke-width="2"/>
<line x1="-42.7071" y1="460.293" x2="606.293" y2="-188.707" stroke="#A2C7CE" stroke-width="2"/>
<line x1="-31.7071" y1="460.293" x2="617.293" y2="-188.707" stroke="#A2C7CE" stroke-width="2"/>
<line x1="-20.7071" y1="460.293" x2="628.293" y2="-188.707" stroke="#A2C7CE" stroke-width="2"/>
<line x1="-9.70711" y1="460.293" x2="639.293" y2="-188.707" stroke="#A2C7CE" stroke-width="2"/>
<line x1="1.29289" y1="460.293" x2="650.293" y2="-188.707" stroke="#A2C7CE" stroke-width="2"/>
<line x1="12.2929" y1="460.293" x2="661.293" y2="-188.707" stroke="#A2C7CE" stroke-width="2"/>
<line x1="23.2929" y1="460.293" x2="672.293" y2="-188.707" stroke="#A2C7CE" stroke-width="2"/>
<line x1="34.2929" y1="460.293" x2="683.293" y2="-188.707" stroke="#A2C7CE" stroke-width="2"/>
<line x1="45.2929" y1="460.293" x2="694.293" y2="-188.707" stroke="#A2C7CE" stroke-width="2"/>
<line x1="56.2929" y1="460.293" x2="705.293" y2="-188.707" stroke="#A2C7CE" stroke-width="2"/>
<line x1="67.2929" y1="460.293" x2="716.293" y2="-188.707" stroke="#A2C7CE" stroke-width="2"/>
<line x1="78.2929" y1="460.293" x2="727.293" y2="-188.707" stroke="#A2C7CE" stroke-width="2"/>
<line x1="89.2929" y1="460.293" x2="738.293" y2="-188.707" stroke="#A2C7CE" stroke-width="2"/>
<line x1="100.293" y1="460.293" x2="749.293" y2="-188.707" stroke="#A2C7CE" stroke-width="2"/>
<line x1="111.293" y1="460.293" x2="760.293" y2="-188.707" stroke="#A2C7CE" stroke-width="2"/>
<line x1="122.293" y1="460.293" x2="771.293" y2="-188.707" stroke="#A2C7CE" stroke-width="2"/>
<line x1="133.293" y1="460.293" x2="782.293" y2="-188.707" stroke="#A2C7CE" stroke-width="2"/>
<line x1="144.293" y1="460.293" x2="793.293" y2="-188.707" stroke="#A2C7CE" stroke-width="2"/>
<line x1="155.293" y1="460.293" x2="804.293" y2="-188.707" stroke="#A2C7CE" stroke-width="2"/>
<line x1="166.293" y1="460.293" x2="815.293" y2="-188.707" stroke="#A2C7CE" stroke-width="2"/>
<line x1="177.293" y1="460.293" x2="826.293" y2="-188.707" stroke="#A2C7CE" stroke-width="2"/>
<line x1="188.293" y1="460.293" x2="837.293" y2="-188.707" stroke="#A2C7CE" stroke-width="2"/>
<line x1="199.293" y1="460.293" x2="848.293" y2="-188.707" stroke="#A2C7CE" stroke-width="2"/>
<line x1="210.293" y1="460.293" x2="859.293" y2="-188.707" stroke="#A2C7CE" stroke-width="2"/>
<line x1="221.293" y1="460.293" x2="870.293" y2="-188.707" stroke="#A2C7CE" stroke-width="2"/>
<line x1="232.293" y1="460.293" x2="881.293" y2="-188.707" stroke="#A2C7CE" stroke-width="2"/>
<line x1="243.293" y1="460.293" x2="892.293" y2="-188.707" stroke="#A2C7CE" stroke-width="2"/>
<line x1="254.293" y1="460.293" x2="903.293" y2="-188.707" stroke="#A2C7CE" stroke-width="2"/>
<line x1="265.293" y1="460.293" x2="914.293" y2="-188.707" stroke="#A2C7CE" stroke-width="2"/>
</g>
</g>
<path d="M138.789 162.347L138.794 162.342L138.8 162.337C147.316 153.989 157.308 147.597 168.791 143.161C180.272 138.725 192.67 136.5 206 136.5C218.308 136.5 230.373 138.804 242.205 143.419L242.217 143.424L242.229 143.428C253.71 147.682 263.715 154.296 270.966 162.446L244.152 190.185C240.013 184.894 234.254 180.721 228.089 178.09C221.409 175.239 214.543 173.808 207.5 173.808C199.801 173.808 192.669 175.322 186.126 178.365C179.772 181.225 174.27 185.249 169.632 190.431C164.994 195.614 161.4 201.764 158.841 208.861C156.273 215.807 155 223.439 155 231.74C155 240.213 156.273 248.016 158.839 255.133C161.394 262.221 164.898 268.367 169.364 273.548L169.381 273.568L169.4 273.588C174.04 278.593 179.539 282.524 185.885 285.379C192.261 288.247 199.223 289.672 206.75 289.672C215.457 289.672 223.13 287.894 229.72 284.286C235.715 281.004 241.253 276.02 245.184 270.806L272.461 298.082C264.891 306.833 255.229 314.337 244.356 319.584C233.09 324.847 220.066 327.5 205.25 327.5C191.759 327.5 179.286 325.191 167.813 320.588C156.495 315.981 146.667 309.504 138.315 301.158C129.964 292.64 123.404 282.495 118.641 270.706C113.887 258.942 111.5 245.959 111.5 231.74C111.5 217.172 113.888 204.02 118.637 192.262C123.564 180.478 130.284 170.514 138.789 162.347Z" stroke="#217889" stroke-width="3"/>
</svg>
