<svg fill="none" height="100" viewBox="0 0 390 100" width="390" xmlns="http://www.w3.org/2000/svg" xmlns:xlink="http://www.w3.org/1999/xlink"><clipPath id="a"><path d="m0 0h390v100h-390z"/></clipPath><g clip-path="url(#a)"><path d="m293 1h98v98h-98z" stroke="#4d4f4f" stroke-width="2"/><path d="m341.006 63v-3.852h-5.688v-21.276h-7.236l-6.228 7.416 2.952 2.484 5.472-6.48h.324v17.856h-6.912v3.852zm11.794.432c5.976 0 9.288-3.132 9.288-7.308 0-3.312-2.052-5.328-5.04-6.12v-.288c2.556-.9 4.284-2.844 4.284-5.76 0-3.852-3.096-6.516-8.532-6.516s-8.532 2.664-8.532 6.516c0 2.916 1.728 4.86 4.284 5.76v.288c-2.988.792-5.04 2.808-5.04 6.12 0 4.176 3.312 7.308 9.288 7.308zm0-3.672c-2.808 0-4.392-1.368-4.392-3.6v-.72c0-2.268 1.548-3.636 4.392-3.636s4.392 1.368 4.392 3.636v.72c0 2.232-1.584 3.6-4.392 3.6zm0-11.448c-2.628 0-4.068-1.296-4.068-3.384v-.504c0-2.052 1.44-3.312 4.068-3.312s4.068 1.26 4.068 3.312v.504c0 2.088-1.44 3.384-4.068 3.384z" fill="#fe6a6a"/><path d="m307.868 12.4-5.472 8.802v1.296h6.516v2.502h1.476v-2.502h2.16v-1.35h-2.16v-8.748zm.828 1.224h.216v7.524h-4.878z" fill="#fff" opacity=".5"/><path d="m-1 1h98v98h-98z" stroke="#4d4f4f" stroke-width="2"/><path d="m36.9261 63.432c6.084 0 9.36-3.276 9.36-7.956 0-3.744-2.124-6.228-6.444-7.02l-2.628-.468c-2.772-.468-3.816-1.404-3.816-3.312 0-2.232 1.404-3.384 4.104-3.384 2.52 0 4.392 1.008 5.724 2.592l2.772-2.952c-1.728-2.16-4.608-3.492-8.532-3.492-5.472 0-8.82 2.664-8.82 7.452 0 3.492 1.8 6.3 6.444 7.092l2.664.432c2.736.432 3.78 1.404 3.78 3.384 0 2.412-1.584 3.78-4.464 3.78-2.484 0-4.68-1.008-6.552-3.168l-2.844 2.952c1.908 2.448 4.968 4.068 9.252 4.068zm30.1179-.432v-3.636h-7.56v-11.304h7.56v-3.636h-7.56v-6.552h-4.284v4.5c0 1.548-.576 2.052-2.052 2.052h-3.672v3.636h5.4v9.9c0 2.952 1.656 5.04 5.184 5.04z" fill="#d0d0d0"/><path d="m11.708 12.4-3.6 5.436h1.674l2.556-3.996h.216v11.16h1.476l.018-12.6z" fill="#fff" opacity=".5"/><path d="m195 1h98v98h-98z" stroke="#4d4f4f" stroke-width="2"/><path d="m242.214 59.04h-12.564l5.472-4.428c3.636-2.916 6.408-5.616 6.408-9.72 0-4.32-3.06-7.452-8.424-7.452-5.22 0-7.956 2.952-9.036 6.264l4.104 1.548c.612-2.088 1.908-3.744 4.536-3.744 2.376 0 3.816 1.296 3.816 3.672v.36c0 2.124-1.296 3.888-3.96 6.192l-8.064 6.876v4.392h17.712zm12.586 4.392c6.552 0 9.504-4.788 9.504-12.996s-2.952-12.996-9.504-12.996-9.504 4.788-9.504 12.996 2.952 12.996 9.504 12.996zm0-3.78c-3.456 0-4.716-2.664-4.716-6.984v-4.464c0-4.32 1.26-6.984 4.716-6.984s4.716 2.664 4.716 6.984v4.464c0 4.32-1.26 6.984-4.716 6.984zm0-7.092c1.656 0 2.232-.756 2.232-1.728v-.792c0-.972-.576-1.728-2.232-1.728s-2.232.756-2.232 1.728v.792c0 .972.576 1.728 2.232 1.728z" fill="#fe6a6a"/><path d="m205.026 12.4v1.368h6.534l-3.924 3.456v1.386h1.8c1.53 0 2.79.9 2.79 2.556 0 1.566-1.152 2.736-2.934 2.736-1.926 0-3.15-1.062-3.15-2.952v-.72h-1.476v.774c0 2.61 1.908 4.248 4.644 4.248 2.448 0 4.392-1.656 4.392-4.05 0-2.322-1.638-3.762-3.726-3.762h-.45v-.198l4.05-3.528v-1.314z" fill="#fff" opacity=".5"/><path d="m97 1h98v98h-98z" stroke="#4d4f4f" stroke-width="2"/><path d="m129.238 37.872v3.888h8.496v13.824c0 2.7-1.224 3.96-3.348 3.96-2.34 0-3.348-1.548-3.78-3.636l-4.428.936c.756 3.996 3.456 6.588 8.208 6.588 4.896 0 8.1-2.844 8.1-7.308v-18.252zm27.49 25.56c5.256 0 8.388-2.34 8.388-6.156 0-3.672-2.952-4.86-6.084-5.328l-2.952-.468c-1.512-.216-2.592-.612-2.592-1.944 0-1.44 1.224-2.196 3.528-2.196 2.664 0 4.392 1.044 5.436 2.196l2.412-2.664c-1.62-1.8-4.14-2.88-7.704-2.88-5.04 0-8.172 2.16-8.172 6.012 0 3.672 2.952 4.896 6.048 5.364l2.988.468c1.512.216 2.556.576 2.556 1.908 0 1.584-1.512 2.34-3.816 2.34-2.628 0-4.608-.972-6.12-2.628l-2.7 2.448c1.656 2.16 4.716 3.528 8.784 3.528z" fill="#72d7d1"/><path d="m106.882 16.432v.468h1.476v-.378c0-1.944 1.17-3.024 3.078-3.024 1.62 0 2.808.972 2.808 2.646 0 1.818-1.296 2.61-3.438 3.24-2.394.702-3.942 1.656-3.942 4.158v1.458h8.784v-1.35h-7.29v-.288c0-1.728 1.08-2.178 3.096-2.79 2.466-.756 4.266-1.836 4.266-4.374 0-2.43-1.782-4.05-4.284-4.05-2.664 0-4.554 1.638-4.554 4.284z" fill="#fff" opacity=".5"/></g></svg>