<svg width="394" height="100" viewBox="0 0 394 100" fill="none" xmlns="http://www.w3.org/2000/svg">
<rect x="295" y="1" width="98" height="98" stroke="#4D4F4F" stroke-width="2"/>
<path d="M343.006 63V59.148H337.318V37.872H330.082L323.854 45.288L326.806 47.772L332.278 41.292H332.602V59.148H325.69V63H343.006ZM354.8 63.432C360.776 63.432 364.088 60.3 364.088 56.124C364.088 52.812 362.036 50.796 359.048 50.004V49.716C361.604 48.816 363.332 46.872 363.332 43.956C363.332 40.104 360.236 37.44 354.8 37.44C349.364 37.44 346.268 40.104 346.268 43.956C346.268 46.872 347.996 48.816 350.552 49.716V50.004C347.564 50.796 345.512 52.812 345.512 56.124C345.512 60.3 348.824 63.432 354.8 63.432ZM354.8 59.76C351.992 59.76 350.408 58.392 350.408 56.16V55.44C350.408 53.172 351.956 51.804 354.8 51.804C357.644 51.804 359.192 53.172 359.192 55.44V56.16C359.192 58.392 357.608 59.76 354.8 59.76ZM354.8 48.312C352.172 48.312 350.732 47.016 350.732 44.928V44.424C350.732 42.372 352.172 41.112 354.8 41.112C357.428 41.112 358.868 42.372 358.868 44.424V44.928C358.868 47.016 357.428 48.312 354.8 48.312Z" fill="#FE6A6A"/>
<path opacity="0.5" d="M309.868 12.4L304.396 21.202V22.498H310.912V25H312.388V22.498H314.548V21.148H312.388V12.4H309.868ZM310.696 13.624H310.912V21.148H306.034L310.696 13.624Z" fill="white"/>
<rect x="1" y="1" width="98" height="98" stroke="#4D4F4F" stroke-width="2"/>
<path d="M38.9261 63.432C45.0101 63.432 48.2861 60.156 48.2861 55.476C48.2861 51.732 46.1621 49.248 41.8421 48.456L39.2141 47.988C36.4421 47.52 35.3981 46.584 35.3981 44.676C35.3981 42.444 36.8021 41.292 39.5021 41.292C42.0221 41.292 43.8941 42.3 45.2261 43.884L47.9981 40.932C46.2701 38.772 43.3901 37.44 39.4661 37.44C33.9941 37.44 30.6461 40.104 30.6461 44.892C30.6461 48.384 32.4461 51.192 37.0901 51.984L39.7541 52.416C42.4901 52.848 43.5341 53.82 43.5341 55.8C43.5341 58.212 41.9501 59.58 39.0701 59.58C36.5861 59.58 34.3901 58.572 32.5181 56.412L29.6741 59.364C31.5821 61.812 34.6421 63.432 38.9261 63.432ZM69.044 63V59.364H61.484V48.06H69.044V44.424H61.484V37.872H57.2V42.372C57.2 43.92 56.624 44.424 55.148 44.424H51.476V48.06H56.876V57.96C56.876 60.912 58.532 63 62.06 63H69.044Z" fill="#D0D0D0"/>
<path opacity="0.5" d="M13.708 12.4L10.108 17.836H11.782L14.338 13.84H14.554V25H16.03L16.048 12.4H13.708Z" fill="white"/>
<rect x="197" y="1" width="98" height="98" stroke="#4D4F4F" stroke-width="2"/>
<path d="M244.214 59.04H231.65L237.122 54.612C240.758 51.696 243.53 48.996 243.53 44.892C243.53 40.572 240.47 37.44 235.106 37.44C229.886 37.44 227.15 40.392 226.07 43.704L230.174 45.252C230.786 43.164 232.082 41.508 234.71 41.508C237.086 41.508 238.526 42.804 238.526 45.18V45.54C238.526 47.664 237.23 49.428 234.566 51.732L226.502 58.608V63H244.214V59.04ZM256.8 63.432C263.352 63.432 266.304 58.644 266.304 50.436C266.304 42.228 263.352 37.44 256.8 37.44C250.248 37.44 247.296 42.228 247.296 50.436C247.296 58.644 250.248 63.432 256.8 63.432ZM256.8 59.652C253.344 59.652 252.084 56.988 252.084 52.668V48.204C252.084 43.884 253.344 41.22 256.8 41.22C260.256 41.22 261.516 43.884 261.516 48.204V52.668C261.516 56.988 260.256 59.652 256.8 59.652ZM256.8 52.56C258.456 52.56 259.032 51.804 259.032 50.832V50.04C259.032 49.068 258.456 48.312 256.8 48.312C255.144 48.312 254.568 49.068 254.568 50.04V50.832C254.568 51.804 255.144 52.56 256.8 52.56Z" fill="#FE6A6A"/>
<path opacity="0.5" d="M207.026 12.4V13.768H213.56L209.636 17.224V18.61H211.436C212.966 18.61 214.226 19.51 214.226 21.166C214.226 22.732 213.074 23.902 211.292 23.902C209.366 23.902 208.142 22.84 208.142 20.95V20.23H206.666V21.004C206.666 23.614 208.574 25.252 211.31 25.252C213.758 25.252 215.702 23.596 215.702 21.202C215.702 18.88 214.064 17.44 211.976 17.44H211.526V17.242L215.576 13.714V12.4H207.026Z" fill="white"/>
<rect x="99" y="1" width="98" height="98" stroke="#4D4F4F" stroke-width="2"/>
<path d="M131.238 37.872V41.76H139.734V55.584C139.734 58.284 138.51 59.544 136.386 59.544C134.046 59.544 133.038 57.996 132.606 55.908L128.178 56.844C128.934 60.84 131.634 63.432 136.386 63.432C141.282 63.432 144.486 60.588 144.486 56.124V37.872H131.238ZM158.728 63.432C163.984 63.432 167.116 61.092 167.116 57.276C167.116 53.604 164.164 52.416 161.032 51.948L158.08 51.48C156.568 51.264 155.488 50.868 155.488 49.536C155.488 48.096 156.712 47.34 159.016 47.34C161.68 47.34 163.408 48.384 164.452 49.536L166.864 46.872C165.244 45.072 162.724 43.992 159.16 43.992C154.12 43.992 150.988 46.152 150.988 50.004C150.988 53.676 153.94 54.9 157.036 55.368L160.024 55.836C161.536 56.052 162.58 56.412 162.58 57.744C162.58 59.328 161.068 60.084 158.764 60.084C156.136 60.084 154.156 59.112 152.644 57.456L149.944 59.904C151.6 62.064 154.66 63.432 158.728 63.432Z" fill="#72D7D1"/>
<path opacity="0.5" d="M108.882 16.432V16.9H110.358V16.522C110.358 14.578 111.528 13.498 113.436 13.498C115.056 13.498 116.244 14.47 116.244 16.144C116.244 17.962 114.948 18.754 112.806 19.384C110.412 20.086 108.864 21.04 108.864 23.542V25H117.648V23.65H110.358V23.362C110.358 21.634 111.438 21.184 113.454 20.572C115.92 19.816 117.72 18.736 117.72 16.198C117.72 13.768 115.938 12.148 113.436 12.148C110.772 12.148 108.882 13.786 108.882 16.432Z" fill="white"/>
</svg>
